<?xml version="1.0" standalone="no"?>
<!DOCTYPE svg PUBLIC "-//W3C//DTD SVG 1.1//EN" "http://www.w3.org/Graphics/SVG/1.1/DTD/svg11.dtd" >
<svg xmlns="http://www.w3.org/2000/svg" xmlns:xlink="http://www.w3.org/1999/xlink" version="1.1">
<metadata>
Created by FontForge 20190801 at Sun Nov 18 09:13:26 2018
 By www-data
Copyright \(c\) 2018 by cotbada studio. All rights reserved.
</metadata>
<defs>
<font id="GhiocityandDhisthesItalic" horiz-adv-x="346" >
  <font-face 
    font-family="GhiocityandDhisthesItalic"
    font-weight="400"
    font-style="italic"
    font-stretch="normal"
    units-per-em="1000"
    panose-1="0 0 0 0 0 0 0 0 0 0"
    ascent="750"
    descent="-250"
    x-height="334"
    cap-height="927"
    bbox="-1058.38 -481.348 3641.46 1161.45"
    underline-thickness="50"
    underline-position="-100"
    unicode-range="U+0020-FB02"
  />
<missing-glyph horiz-adv-x="207" 
 />
    <glyph glyph-name=".notdef" horiz-adv-x="207" 
 />
    <glyph glyph-name=".null" horiz-adv-x="0" 
 />
    <glyph glyph-name="nonmarkingreturn" horiz-adv-x="333" 
 />
    <glyph glyph-name="space" unicode=" " horiz-adv-x="207" 
 />
    <glyph glyph-name="exclam" unicode="!" 
d="M507 696q13 -1 25.5 -13.5t13.5 -19.5q0 -9 -8 -5q-17 12 -301 -386q-102 -143 -105 -152q-7 -5 -16.5 -2t-17 10.5t-5.5 11.5q133 216 327 479q55 77 87 77zM65 88q9 7 26 -6t9 -23q-13 -17 -24 -36.5t-16 -31.5t-4 -14q1 -1 0 -4.5t-5 -4.5q-7 -1 -23.5 8t-19.5 22
q-3 12 16 41q21 35 41 49z" />
    <glyph glyph-name="quotedbl" unicode="&#x22;" horiz-adv-x="133" 
d="M387 694q11 1 23 -10.5t13 -17.5t-6 -6q-2 1 -12 -7t-24.5 -22t-25.5 -28q-7 -9 -20 1t-8 19q3 12 21 37h-2q-2 1 -12 -7t-24 -22t-25 -28q-7 -9 -20 1t-9 19q7 19 30 48q17 23 30 23q12 1 24 -10.5t12 -17.5v-1q2 4 4 6q18 23 31 23z" />
    <glyph glyph-name="numbersign" unicode="#" horiz-adv-x="586" 
d="M501 217q4 -5 4.5 -16.5t-3 -20t-7.5 -6.5q0 11 -98 15q-10 1 -32 1q-38 -66 -70 -124l-5 -8q-3 -8 -13 -4l-7 4q-7 4 -10 6q-7 4 -11.5 8t-1.5 7q4 4 59 95l10 17q-34 1 -101 1l-67 -120l-5 -8q-5 -9 -13 -4l-7 4q-7 4 -10 6q-6 3 -11 7.5t-2 7.5q5 5 59 94l7 12l-87 -3
h-9q-10 0 -10 10q0 3 -0.5 10t-0.5 11v7.5t0.5 6.5t2 6t3.5 1q7 -3 108 -3h20l29 49q-47 0 -83 -2q-4 -1 -10 -1q-9 0 -9 11q-1 6 -1 21q-1 20 6 20q7 -3 107 -3h18q23 38 53 83q20 30 28 38t16 9q13 2 27 -14q7 -8 3 -12q-4 3 -18 -14.5t-45 -65.5l-15 -23q18 0 52 -0.5
t49 -0.5q37 58 50 77q21 30 28.5 38t15.5 9q13 2 27 -14q7 -8 3 -12q-4 3 -18 -14.5t-45 -65.5l-12 -20l51 -3q52 -3 61 -15t1 -35q-4 -8 -8 -7q1 5 -21.5 8.5t-75.5 5.5l-36 2l-30 -51l49 -3q53 -4 61 -15zM242 238q38 0 100 -2l16.5 27.5t14.5 23.5h-102z" />
    <glyph glyph-name="dollar" unicode="$" horiz-adv-x="416" 
d="M481 659q13 -1 25.5 -13.5t13.5 -19.5q0 -9 -8 -5q-6 4 -149 -186q13 -15 20.5 -51.5t-3.5 -59.5q-12 -19 -34.5 -34.5t-41.5 -20.5q-16 -4 -26 3t-12 16l-3 9q4 2 11.5 5.5t26 13.5t32 19.5t24 22.5t8.5 23q-2 9 -17.5 14.5t-41.5 3t-52 -14.5q-21 -10 -34.5 -21.5
t-19 -20t-5.5 -20t1.5 -17t6.5 -16.5t6 -13q0 -1 2.5 -6.5t5.5 -14t5 -12.5l5 -12q5 -12 9 -25.5t6.5 -30.5t-2.5 -34t-18 -29q-28 -26 -66 -42t-70 -17l-90 -130q-6 -8 -9.5 -11.5t-10 -2t-8.5 3t-14 8.5q-14 8 -7 18l94 134q-13 19 -18 51t5 53q12 20 35 35.5t41 19.5
q16 4 26 -3t12 -15l3 -9q-12 -5 -30 -14t-46.5 -31.5t-25.5 -39.5q2 -9 17.5 -14t41.5 -2.5t52 14.5q21 10 33 25t15.5 28.5t1.5 30.5t-5.5 27.5t-8.5 22.5l-5 11q-41 88 1 127q51 47 117 57l95 133q36 49 53 64t30 15z" />
    <glyph glyph-name="percent" unicode="%" horiz-adv-x="460" 
d="M408 524q6 0 17 -12.5t6 -18.5q-4 -3 -16.5 -20l-37.5 -51t-45 -60q-69 -90 -268 -380q-5 -8 -9 -11.5t-9.5 -2.5t-9 3t-14.5 9q-18 11 -7 18q5 4 72.5 97.5t145.5 202.5t101 138l21 28q-71 -26 -126 2v-8t-1 -13t-4.5 -17t-10.5 -23q-19 -34 -49.5 -49.5t-59.5 -7.5
q-27 8 -38.5 29.5t-2.5 52.5q11 38 46 66t73 27q23 0 25 -14q2 -12 -11 -14q-5 9 -17 9q-21 -1 -43 -22t-32 -44q-11 -21 -9 -42t20 -23q38 -6 69 43q22 36 17 60q-3 9 5 16q9 7 19 0q21 -16 56 -16q51 0 112 39q7 7 12 8l1 1v-1q1 0 2 1zM300 149q36 -1 47.5 -36t-8.5 -76
q-16 -35 -47.5 -53t-63.5 -10q-27 7 -39 29t-2 53q12 39 44 66.5t69 26.5zM309 45q18 28 17.5 55.5t-23.5 29.5q-22 2 -44 -20t-33 -51q-8 -22 -3 -41t23 -20q35 0 63 47z" />
    <glyph glyph-name="ampersand" unicode="&#x26;" horiz-adv-x="492" 
d="M421 124q35 -14 53.5 -38.5t17.5 -48.5t-9 -47q-16 -38 -46 -55t-58 -11q-16 4 -22 15.5t-3 22t10 13.5q6 3 9 -1.5t8 -3.5q45 8 61 44q21 50 -75 85q-5 2 -8 3q-70 -83 -161 -96q-53 -8 -97.5 10.5t-59.5 58.5q-47 120 158 229q-8 108 60 185q34 32 68.5 32.5t59 -25
t18.5 -57.5q-6 -27 -21 -51t-40.5 -44.5t-45 -32.5t-50.5 -30q7 -41 30.5 -70t67.5 -54q28 50 35 96q-2 1 -1.5 3.5t3.5 3.5q5 2 19 -3t18 -14q11 -17 -38 -103zM297 465q-50 -56 -52 -136q81 51 109 101q17 32 -5.5 50t-51.5 -15zM86 116q3 -38 36.5 -53t71.5 -11t67 19
q35 17 59 48q-96 49 -113 139q-53 -26 -87 -62q-37 -39 -34 -80z" />
    <glyph glyph-name="quotesingle" unicode="'" horiz-adv-x="119" 
d="M316 694q12 1 24 -10.5t12 -17.5q1 -6 -6 -6q-2 1 -12 -7t-24 -22t-25 -28q-7 -9 -20 1t-9 19q7 19 30 48q17 23 30 23z" />
    <glyph glyph-name="parenleft" unicode="(" horiz-adv-x="321" 
d="M480 698q13 -4 22.5 -18t8.5 -21q-1 -3 -4.5 -4t-4.5 0q-10 5 -33 -3q-66 -22 -137.5 -106t-119.5 -172q-110 -204 -76 -373q-2 -1 -4.5 -3t-10.5 -5.5t-14.5 -2.5t-14 8.5t-11.5 22.5q-15 60 2.5 151t51.5 167q50 112 146 226.5t177 131.5q16 3 22 1z" />
    <glyph glyph-name="parenright" unicode=")" horiz-adv-x="387" 
d="M-18 -10q-13 4 -22.5 18t-8.5 21q1 3 4.5 4t4.5 0q10 -5 33 3q66 22 137.5 106t119.5 172q110 204 76 373q2 1 4.5 3t10.5 5.5t14.5 2.5t14 -8.5t11.5 -22.5q15 -60 -2.5 -151t-51.5 -167q-50 -112 -146 -226.5t-177 -131.5q-16 -3 -22 -1z" />
    <glyph glyph-name="asterisk" unicode="*" horiz-adv-x="178" 
d="M419 675q7 -1 10.5 -7.5t2.5 -12.5q-1 -3 -12 -5l-36 -20q30 -30 32 -35q2 -4 -1.5 -9t-9 -6t-10.5 4q-5 7 -25 25q-2 -17 0 -29q1 -6 -5 -8.5t-13.5 0t-8.5 6.5q-1 2 1 29q-15 -10 -33 -20q-10 -6 -15.5 3.5t0.5 17.5q3 5 42 27q-26 19 -33 22q-9 4 1 16q7 9 17 8
q2 0 28 -21q2 21 4 24q9 11 23 4q5 -2 4 -6l-5 -24q1 0 5 2q27 15 37 15z" />
    <glyph glyph-name="plus" unicode="+" horiz-adv-x="390" 
d="M323 253q0 -13 -1.5 -19.5t-4 -7.5t-8.5 -1h-90v-94q-1 -9 -18 -9q-20 -1 -24.5 2t-3.5 12q0 2 -0.5 15.5t-0.5 33.5v40h-6q-27 1 -84 1q-11 0 -13 9q0 22 1 31q0 7 15 7q10 0 40 -0.5t48 -0.5v91q1 8 3 10t7 2q15 2 30 0q7 0 7 -15v-88q45 -1 94 -1q9 0 9 -18z" />
    <glyph glyph-name="comma" unicode="," horiz-adv-x="177" 
d="M72 77q11 1 23 -10.5t13 -17.5q1 -3 -1.5 -5t-4.5 -1t-12 -7t-24.5 -22.5t-25.5 -28.5q-7 -9 -20 1.5t-8 19.5q4 16 29 47q17 22 31 24z" />
    <glyph glyph-name="hyphen" unicode="-" horiz-adv-x="378" 
d="M301 272q7 -1 9 -16q0 -34 -14 -32h-203q-11 0 -11 8v35q2 6 13 6q37 0 120 -0.5t86 -0.5z" />
    <glyph glyph-name="period" unicode="." horiz-adv-x="146" 
d="M57 27q1 -6 -6 -6q-2 1 -24 -19q-10 -10 -26.5 3t-9.5 23q2 4 4 5q16 22 31 24q11 1 20.5 -10.5t10.5 -19.5z" />
    <glyph glyph-name="slash" unicode="/" horiz-adv-x="353" 
d="M541 747q13 -1 25.5 -13.5t13.5 -19.5q0 -9 -8 -5q-20 12 -548 -770q-10 -15 -13 -19q-7 -10 -13.5 -11.5t-10.5 1.5t-18 14q-13 10 -5 23q7 9 220 319t273 391q42 57 57.5 73.5t26.5 16.5z" />
    <glyph glyph-name="zero" unicode="0" horiz-adv-x="378" 
d="M367 426q28 -54 -10 -165q-30 -87 -106.5 -171.5t-161.5 -87.5q-26 -1 -54 15.5t-35 54.5q-5 29 10.5 90.5t47.5 107.5q30 43 53 45q-11 7 -14 11.5t1 20.5q25 44 78.5 84.5t117.5 39.5q49 -1 73 -45zM178 86q108 108 150 244q13 55 3.5 81t-30.5 30q-36 7 -90.5 -38
t-79.5 -87q13 -3 20.5 -8t5.5 -11q-1 -1 -6 -1t-13 -8q-55 -60 -80 -151.5t14 -103.5q20 -6 50.5 11t55.5 42z" />
    <glyph glyph-name="one" unicode="1" horiz-adv-x="325" 
d="M296 467q24 -3 32 -23q-68 -62 -191 -262q-23 -37 -47 -81.5t-36 -70.5l-12 -27q-35 10 -38 28q-5 14 10 44q68 135 192 299q-10 2 -17.5 10t-7.5 13q-1 2 3 3q7 3 14 7l74 50q12 10 24 10z" />
    <glyph glyph-name="two" unicode="2" horiz-adv-x="403" 
d="M265 60q41 -3 52 -23q5 -12 1.5 -25t-8.5 -17q-6 -4 -6 4q-13 4 -41.5 8.5t-96.5 7.5t-137 -13q-1 0 -3 -0.5t-3 -0.5q1 -3 -1 -3q-2 -1 -6 1q-5 4 -9 17t1 26q0 4 3 8.5t12.5 11.5t18.5 13t29.5 19.5t37.5 24.5q83 57 151.5 128t89 118.5t-1.5 65.5q-21 9 -55.5 -7.5
t-63.5 -47.5q-69 -74 -72 -103q6 -6 -2 -8q-7 0 -18.5 9t-13.5 20q-4 22 20 60q32 49 82.5 83.5t100.5 28.5q22 -2 45.5 -23.5t26.5 -48.5q3 -37 -13.5 -69.5t-69.5 -91.5q-66 -74 -221 -179q1 0 11.5 1.5t27 3t37 2.5t46 1t49.5 -2z" />
    <glyph glyph-name="three" unicode="3" horiz-adv-x="393" 
d="M391 399q0 -51 -43.5 -103t-99.5 -83q20 -23 35.5 -54.5t10.5 -57.5q-12 -60 -108 -84.5t-144 -12.5q-16 4 -19.5 35t1.5 48q2 5 7 5q6 0 7 -12q2 -23 33 -24q17 0 45 3t62 10t57.5 23t23.5 38q0 16 -12 34.5t-23 29.5l-12 10q-9 7 -10.5 16t9.5 16q26 13 67 56
t63.5 84.5t-3.5 60.5q-33 18 -99.5 -44.5t-95.5 -114.5q7 -7 -2 -8q-7 0 -18 9t-13 20q-5 23 22 59t57 62q66 57 126 50q23 -2 50 -26t26 -45z" />
    <glyph glyph-name="four" unicode="4" horiz-adv-x="442" 
d="M436 468q12 -1 22 -11.5t10 -16.5q0 -4 -3 -4.5t-4 1.5q-1 -1 -7 -6l-9 -7.5t-11 -10t-15 -15t-17 -18.5t-21.5 -25.5t-26 -32.5t-31.5 -41.5t-36 -50.5q6 -2 11 -9q5 -11 3 -22.5t-6 -15.5q-6 -3 -6 3q-24 8 -28 9q-11 -12 -53.5 -87.5t-57.5 -107.5q-34 10 -37 27
q-3 14 14 44q11 20 83 130q-94 5 -184 -15q-12 -3 -16 10l-3 16q-9 16 -3 21q21 16 92 79q93 85 156 148q-4 7 4 7q8 -1 17 -10t8 -23q-3 -35 -215 -205q70 18 167 12q46 68 126 163q53 64 77 64z" />
    <glyph glyph-name="five" unicode="5" horiz-adv-x="423" 
d="M410 444q5 -12 2.5 -23t-7.5 -15q-6 -4 -6 4q-13 6 -68.5 10.5t-105.5 3.5q-5 -4 -14.5 -17.5t-37.5 -53t-63 -86.5q103 5 139 -52q10 -16 15 -34.5t2 -42.5t-18 -45q-51 -71 -177 -88q-60 -8 -83 7q-38 24 -26 85q2 7 7 7q7 -2 7 -13q0 -30 30 -36q45 -9 132.5 17.5
t96.5 69.5q6 29 -12.5 50t-51.5 28q-39 9 -107 3q-7 -2 -16 10.5t-3 23.5q15 27 52.5 80.5t64.5 86.5q-10 7 -3 34q3 8 6 9q2 -2 77 0q28 1 120 -1q39 -1 48 -22z" />
    <glyph glyph-name="six" unicode="6" horiz-adv-x="416" 
d="M384 468q10 -5 15.5 -18.5t3.5 -20.5q-4 -7 -8 0q-57 -8 -126.5 -53t-114.5 -99q46 18 86.5 15t63 -37.5t10.5 -88.5q-16 -73 -78 -125t-129 -37q-42 10 -63 36.5t-20.5 60.5t11 68t29.5 65q47 77 126 142q60 50 135 81q44 18 59 11zM226 105q22 30 33 65.5t3 60.5
q-14 44 -81 25q-38 -11 -59 -32q-18 -23 -33 -58.5t-14.5 -74t31.5 -51.5q26 -9 58.5 9.5t61.5 55.5z" />
    <glyph glyph-name="seven" unicode="7" horiz-adv-x="352" 
d="M334 467q19 -1 24 -34q-2 -9 -7 -4q-1 -1 -8 -6t-10 -7.5t-12.5 -11.5t-18 -18.5t-23.5 -28t-31.5 -41t-40.5 -56t-52 -73.5q-21 -31 -48 -77t-43 -77l-17 -31q-35 10 -38 27q-4 15 14 45q47 74 69 107q43 66 178 231q-84 -18 -171 -7q-47 5 -57 24q-4 12 -1.5 25t7.5 17
q3 2 5 0t1 -4q16 -5 45 -9t90.5 -4.5t128.5 9.5q9 4 16 4z" />
    <glyph glyph-name="eight" unicode="8" horiz-adv-x="409" 
d="M410 448q5 -12 1.5 -25t-8.5 -16q-4 -1 -6 3q-12 8 -50 13.5t-104 -2.5q-15 -3 -26 -6t-23 -9.5t-16.5 -15t-7 -22t5.5 -30.5q5 -15 23 -50q26 18 68 44t60.5 40t23.5 26q11 -6 20 -18.5t4 -23.5q-4 -8 -11 -15.5t-22 -18.5t-27.5 -19t-42 -26.5t-49.5 -31.5
q1 -1 10.5 -15t13 -19t12.5 -19.5t12.5 -22.5t9 -21.5t7 -23.5t1 -21.5t-3.5 -21.5q-9 -25 -39.5 -45.5t-69.5 -29t-76.5 -7t-64.5 21t-30 54.5q-7 74 150 185q-63 103 -6 164q42 45 160 47q87 2 101 -23zM237 104q-1 17 -20.5 54.5t-35.5 59.5q-24 -17 -48 -40.5t-45.5 -52
t-23 -50.5t19.5 -37q31 -17 92.5 3t60.5 63z" />
    <glyph glyph-name="nine" unicode="9" horiz-adv-x="376" 
d="M35 5q-10 5 -16.5 18.5t-4.5 19.5q4 9 8 1q56 11 122.5 55t114.5 98q-65 -36 -120.5 -5t-48.5 107q6 72 67.5 126.5t131.5 43.5q45 -7 65.5 -48t15 -90t-26.5 -88q-39 -71 -102.5 -130t-145.5 -96q-41 -18 -60 -12zM175 365q-21 -32 -29 -65.5t1 -60.5q18 -44 83 -25
q32 10 55 37q15 22 26 59t7 74.5t-31 46.5q-55 14 -112 -66z" />
    <glyph glyph-name="colon" unicode=":" horiz-adv-x="295" 
d="M218 178q1 -3 -1.5 -5t-4.5 -1q-4 0 -24 -20q-10 -9 -26.5 3.5t-9.5 22.5q2 4 4 6q18 23 31 23q11 1 20.5 -10.5t10.5 -18.5zM92 30q1 -3 -1.5 -5t-4.5 -1q-4 0 -24 -20q-10 -9 -26.5 3.5t-9.5 22.5q2 4 4 6q18 23 31 23q11 1 20.5 -10.5t10.5 -18.5z" />
    <glyph glyph-name="semicolon" unicode=";" horiz-adv-x="298" 
d="M218 178q1 -3 -1.5 -5t-4.5 -1q-4 0 -24 -20q-10 -9 -26.5 3.5t-9.5 22.5q2 4 4 6q18 23 31 23q11 1 20.5 -10.5t10.5 -18.5zM73 78q11 1 23 -10.5t13 -17.5q1 -3 -1.5 -5t-4.5 -1t-12 -7t-24.5 -22.5t-25.5 -28.5q-7 -9 -20 1.5t-8 19.5q4 16 29 47q17 22 31 24z" />
    <glyph glyph-name="less" unicode="&#x3c;" horiz-adv-x="266" 
d="M195 401q11 0 19.5 -12t7.5 -18q-2 -9 -8 -6q-2 1 -25 -17.5t-50.5 -43t-37.5 -37.5q-8 -10 14 -28q10 -8 28.5 -22.5t21.5 -16.5q13 -11 13 -18.5t-14 -23.5q-11 -14 -20 -7q-8 7 -33 26.5t-58 47.5q-11 10 -12 21.5t9 26t17 23t22 22.5l3.5 3.5l2.5 2.5q15 15 63 57
q24 22 37 20z" />
    <glyph glyph-name="equal" unicode="=" horiz-adv-x="385" 
d="M82 275q-8 1 -10 3t-3 7q0 22 1 30q0 7 15 7q27 0 86 -0.5t90.5 -0.5h52.5q9 -1 9 -18q1 -20 -2 -24.5t-12 -3.5h-143h-84zM314 227q9 -1 9 -19q1 -19 -2 -23.5t-12 -3.5q-2 0 -27.5 -0.5t-51.5 -0.5h-64q-27 1 -84 1q-11 0 -13 9q0 23 1 31q0 7 15 7q27 0 86 -0.5
t90.5 -0.5h52.5z" />
    <glyph glyph-name="greater" unicode="&#x3e;" horiz-adv-x="328" 
d="M90 149q-11 0 -19 11.5t-8 18.5q0 3 2 4.5t3.5 1.5h2.5q2 -1 25.5 17.5t51 43t37.5 37.5q6 10 -14 28q-10 8 -29 22.5t-22 16.5q-13 11 -13 18.5t14 23.5q11 14 20 7q1 0 27.5 -21.5t63.5 -52.5q5 -5 8 -10t3 -11t-1 -11t-5.5 -12.5t-7 -11.5t-9 -12t-9.5 -11
l-10.5 -10.5l-9.5 -9.5q-39 -37 -64 -57q-23 -20 -37 -20z" />
    <glyph glyph-name="question" unicode="?" horiz-adv-x="628" 
d="M361 704q119 25 188.5 -43.5t41.5 -175.5q-13 -48 -59 -85q-47 -38 -105 -68t-95.5 -46t-81.5 -57t-80 -107q-10 -11 -28.5 1t-14.5 21q15 33 36 62q48 66 122 114q22 14 100.5 57.5t115.5 76.5q41 36 52 82t-12.5 81.5t-75.5 41.5q-112 13 -189 -60t-91 -189
q1 -1 1.5 -2.5t-0.5 -3.5t-4 -3q-7 -2 -24.5 4t-22.5 18q-17 39 7 97t76 108q60 57 143 76zM99 88q9 8 25.5 -5t8.5 -24q-13 -18 -24 -37t-16 -31t-3 -14q1 -1 0 -4.5t-5 -4.5q-7 -1 -23.5 8t-19.5 22q-3 14 15 41q21 33 42 49z" />
    <glyph glyph-name="at" unicode="@" horiz-adv-x="695" 
d="M379 428q113 0 180.5 -72.5t49.5 -175.5q-9 -43 -32 -85q-8 -14 -23 -31.5t-39 -39t-57 -31t-66 0.5q-30 9 -52 32.5t-20 64.5q-56 -70 -76 -70q-23 -1 -46.5 17t-23.5 36q0 34 24.5 80t64.5 86q57 59 103 54q16 -1 27 -15t15 -33q15 23 27 32q18 18 30 18
q11 -1 24 -12.5t13 -17.5q1 -4 -2 -4.5t-4 1.5q-3 1 -13 -8t-26 -28.5t-31 -43.5q-40 -65 -48 -80q-14 -28 2 -48t57 -16q40 4 74 40q45 47 51 122t-28 113q-55 69 -161 69q-96 0 -175 -60t-94 -145q-16 -86 48 -151q35 -37 79.5 -55t70 -20t28.5 1q5 5 9 -1q3 -4 0.5 -21.5
t-11.5 -24.5q-9 -6 -39 -1q-105 23 -171 95q-72 80 -55 180q18 103 110.5 175.5t205.5 72.5zM230 61q25 -10 128 117l34 44q-6 29 -25 28q-16 -1 -43 -21q-20 -15 -41 -42t-31 -43.5t-15 -26.5q-25 -50 -7 -56z" />
    <glyph glyph-name="A" unicode="A" horiz-adv-x="1886" 
d="M2102 866q74 64 107 73q32 8 42 -37q2 -9 -4.5 -15.5t-12.5 -4.5q-1 1 -6.5 -2.5t-20 -14.5t-39 -31t-63.5 -52q-9 -13 -62.5 -83.5t-94.5 -127t-103.5 -151.5t-113.5 -186q60 2 79 1h11t12 -0.5t10 -1.5t9 -3t6.5 -6t4.5 -10q1 -9 -2 -26q-4 -33 -18 -37q-7 -2 -10 9
q-1 1 -1 2q-1 4 -5.5 6.5t-12.5 4t-17 2t-23 0.5t-24.5 -0.5t-27.5 -1.5t-27 -1q-9 -7 -58.5 -115.5t-84.5 -220t-4 -117.5q12 -2 -3 -13q-27 -18 -49 -6q-15 8 -18 30q-9 63 39.5 190.5t114.5 249.5q-221 -15 -364 -35q-174 -116 -537 -336q-55 -34 -109.5 -64t-119.5 -62
t-125 -54t-118 -37t-109 -15t-88 17q-50 24 -53 87q-2 54 50 126.5t133.5 143t181 141.5t188.5 125t160 90q5 2 14 7q129 65 171 65q29 0 33 -39q1 -10 -2 -14.5t-7.5 -4t-7.5 3.5q-15 17 -158.5 -63t-307 -190.5t-289 -229t-107.5 -169.5q10 -27 43.5 -34.5t86.5 6
t112.5 35t136.5 60t143 72.5t147 82t132.5 78.5t116 71.5t82 52.5t44.5 28.5l-333 -35q-2 0 -8.5 -1t-11 -1.5t-10.5 0t-9.5 2.5t-4.5 7q-4 12 0 30.5t11 19.5q3 1 7 -4t10 -4q38 5 225 23.5t216 23.5q321 212 625 458q56 45 110 89t85 70.5t56.5 48.5t28.5 24zM1665 229
q112 193 290 437q-348 -286 -607 -468q201 26 317 31z" />
    <glyph glyph-name="B" unicode="B" horiz-adv-x="1886" 
d="M2045 823q26 -35 40 -77t15 -91.5t-28 -102.5t-87 -98q-56 -43 -130.5 -84.5t-141.5 -71.5t-161 -64.5t-154.5 -54t-160 -51t-142.5 -45.5q85 -28 144 -66q346 114 605 143q72 7 80 -26q2 -11 0 -20.5t-6 -9.5q-1 0 -5.5 4t-15.5 3q-86 -2 -278 -46t-323 -92
q41 -40 54 -91t1 -96.5t-42 -80.5q-60 -71 -162.5 -109.5t-218.5 -31.5q-58 5 -90.5 27t-51.5 72q-25 67 35 133q54 59 151.5 111t195.5 84q-54 34 -122.5 52t-108.5 1q-13 -12 -17 8q-5 24 9 36q2 2 5 3l8 2q457 125 759 274q178 87 265 170q50 48 73 107.5t13 98.5
q-16 63 -94 95.5t-197.5 34t-238 -10t-254.5 -35.5q-305 -457 -551 -950q-1 -2 -8 -16.5t-15 -28t-15 -19.5q-3 -3 -9 -3.5t-9.5 0.5t-10.5 4t-8 3q-8 2 -6 24q2 11 5.5 29.5t5 28.5t3 22.5t1 21.5t-3.5 15q-5 7 -3 14t16 8q24 2 33 -3q97 193 198 370q90 157 288 467
q-247 -45 -509 -126t-465 -169q-79 -34 -130.5 -66t-40.5 -45q-2 -11 -9 -14t-21 9q-67 67 3 104q156 86 401.5 168.5t432.5 128.5t382 86q56 82 91 87q39 4 53 -17q8 -11 -2 -19q-13 0 -45 -39q111 18 215 26t209 4.5t184.5 -31.5t116.5 -78zM1245 -272q128 97 -24 220
q-184 -66 -313 -157q-48 -34 -68.5 -67t-10.5 -58q13 -32 69 -36.5t123 11t130.5 40t93.5 47.5z" />
    <glyph glyph-name="C" unicode="C" horiz-adv-x="1561" 
d="M1570 189q14 -33 -47 -67q-57 -36 -117.5 -71.5t-136 -77t-150.5 -78.5t-158.5 -74t-162 -66.5t-160 -52t-154 -34.5t-141.5 -11t-125 16q-69 19 -112 56.5t-58 87.5t-10.5 106t27.5 118q55 146 190 295t283 257q278 202 574 276q129 33 234 21.5t153 -65.5
q67 -77 30 -182q-12 -33 -37.5 -67.5t-77 -79.5t-123.5 -91t-183 -100.5t-249 -107.5q-83 -30 -128 -15q-10 3 -18 21t-8 31q-2 14 6 13q4 0 6 -4q6 -12 62 1.5t156.5 54.5t212.5 100q71 38 135 80t120.5 89.5t84.5 95t16 86.5q-32 105 -235 88q-172 -16 -370.5 -115.5
t-374.5 -233.5q-135 -105 -235 -218t-150.5 -212.5t-48.5 -182.5t64 -129q41 -30 133 -34t236.5 26t307.5 94q144 57 394.5 185.5t309.5 172.5q9 5 11 11l1 6q2 2 6 -0.5t9 -7.5t8 -11z" />
    <glyph glyph-name="D" unicode="D" horiz-adv-x="1950" 
d="M2109 791q48 -67 37.5 -157t-80.5 -185q-115 -153 -346.5 -318t-538.5 -293q-96 -40 -211.5 -73.5t-233.5 -55.5t-218.5 -16.5t-148.5 44.5q-42 33 -43 90q1 44 42 93t110.5 95t148 85.5t168.5 75.5l101 171q145 238 303 473q-252 -50 -525.5 -132.5t-460.5 -158.5
q-49 -20 -92.5 -44.5t-66.5 -45t-16 -29.5q-2 -11 -9.5 -14t-20.5 9q-62 67 7 104q117 63 292.5 127.5t316.5 101.5q383 102 619 146q64 88 96 95q39 4 53 -17q7 -11 -4 -19q-12 0 -46 -42q113 20 229 27t249 -8.5t213 -61.5q49 -29 76 -67zM1613 146q86 55 165 116
t158.5 135t123.5 149t36 134q-8 58 -51.5 99.5t-111.5 61t-148.5 28.5t-171 5t-169.5 -13.5t-152 -23.5q-137 -185 -307 -469l-91 -154q92 33 151 48q133 36 177 35q12 -1 22 -3q29 -6 29 -49q0 -11 -3.5 -15t-8 -2t-7.5 6q-12 18 -135 -16t-278 -97q-78 -137 -133 -241
q-30 -55 -40 -64q-7 -6 -43 2q-8 2 -5 25q2 12 6 29.5t6.5 28.5t4 23t1.5 21t-3 15q-8 20 14 22q24 2 33 -3q21 40 54 97q-169 -77 -272.5 -148.5t-90.5 -119.5q15 -55 125.5 -64.5t286 30.5t365.5 121q221 95 463 251z" />
    <glyph glyph-name="E" unicode="E" horiz-adv-x="1531" 
d="M1380 497q-9 13 -1 16q70 54 102 109.5t25 99.5t-37 78.5t-83 50.5t-115 11q-158 -13 -416 -132q-204 -94 -300 -186t6 -161q70 -47 263 -93q32 5 47 0q28 -6 28 -51q0 -12 -4 -16t-8.5 -2.5t-7.5 6.5q-68 9 -178 -19t-221.5 -79.5t-211 -111t-158.5 -121t-51 -102.5
q7 -33 63 -53t136 -20q351 0 1031 356l9 4.5t7.5 3.5t7.5 4q148 77 195 109q9 6 11 12t3 7q3 2 10 -4t11 -16q14 -30 -51 -70q-192 -114 -307 -173q-431 -220 -767 -278q-54 -9 -104.5 -12.5t-112.5 -0.5t-110 26t-70 65q-18 34 -19 74q2 70 87.5 146.5t206 135t235 100
t191.5 56.5q-2 1 -42.5 9t-88.5 24t-82 39q-20 14 -31.5 38.5t-14 41t-3.5 43.5q-4 87 51 140q72 70 207.5 139t235 105t156.5 50q135 33 243.5 21t154.5 -67q68 -81 29 -183l-3 -9q3 4 66.5 85.5t101.5 128.5q6 21 30 13q22 -8 24 -28q0 -7 -3 -14q-24 -35 -77.5 -104.5
t-97 -124t-43.5 -55.5q-4 -5 -17.5 -21.5t-20.5 -25t-18.5 -20.5t-22 -18.5t-20.5 -8.5q-15 -5 -31.5 7t-24.5 26z" />
    <glyph glyph-name="F" unicode="F" horiz-adv-x="2036" 
d="M2054 933q44 -5 73 -29t38.5 -56t9.5 -63.5t-8 -56.5q-35 -109 -332 -481q127 1 182.5 -6.5t65.5 -26.5q8 -17 -16 -52q-6 -10 -11 -15.5t-6 -3.5q-15 16 -21 18q-55 28 -239 30l-2 -4q-55 -70 -142.5 -180t-146.5 -184.5t-91 -120.5q-1 -2 -8.5 -12.5t-13.5 -19
t-14.5 -18.5t-15.5 -15q-9 -3 -14 -2.5t-15.5 5t-12.5 4.5q-10 2 0 25q5 13 14 36l13.5 34.5t7 25t0.5 21.5q-6 20 17 21t34 -4q6 8 116.5 144t195.5 244q-206 -4 -743 -47q-23 0 -24 9q-1 3 1 8q3 12 11 19t14 7q126 17 362.5 35t422.5 23q130 165 213 278q169 229 166 287
q-4 130 -498 54q-411 -64 -953 -228q-203 -61 -340 -113q-56 -22 -106.5 -48t-78.5 -47.5t-21 -30.5q-4 -11 -11.5 -14t-20.5 9q-54 70 25 109q258 127 677 246q523 153 1059 190q92 8 187 -4z" />
    <glyph glyph-name="G" unicode="G" horiz-adv-x="1923" 
d="M1571 492q-8 14 1 17q65 51 99.5 104t38 97t-13.5 79t-51 56q-29 18 -66.5 22t-64.5 0.5t-84 -13.5q-295 -55 -760 -312q-154 -84 -311 -206q-291 -227 -300 -386q-4 -68 9 -102q42 -109 262 -113q131 -3 299.5 34t316.5 90.5t309 126t259.5 123.5t186.5 101
q-124 -7 -210 -14.5t-130 -13t-68 -13.5t-28.5 -12.5t-7.5 -13.5q-1 -3 -2 -5q-5 -11 -20 6q-24 26 -9 55q1 3 3 6q24 36 231 49q162 9 259.5 9t232.5 -5q23 -1 27.5 -14t-4 -25t-15.5 -11q-70 8 -143 7q-13 -20 -32 -47.5t-24 -35.5q-54 -82 -178 -262.5t-160 -239.5
q-29 -53 -45 -67q-13 -8 -39 3q-9 2 -2 26q4 12 10 30.5t9.5 29.5t7 23.5t4.5 21.5t0 16q-6 21 14 23q18 1 33 -5q12 18 53.5 78t110 158t124.5 179q-96 -61 -245.5 -137t-351.5 -155.5t-392 -130.5t-368 -49.5t-278 75.5q-47 33 -66 77q-21 55 -19.5 117t34.5 135.5
t95 146.5q158 175 413.5 332t600.5 282q101 37 197 59t143.5 27t80.5 4q122 -3 180 -78.5t3 -193.5q23 28 83.5 103.5t96.5 118.5q9 23 30 13q21 -9 18 -31l-3 -12q-27 -37 -84.5 -109t-103 -126.5t-49.5 -58.5q-2 -3 -12.5 -16t-14.5 -18t-14 -16t-16 -16.5t-14.5 -13
t-16 -11.5t-14.5 -6q-14 -5 -27.5 7.5t-17.5 26.5z" />
    <glyph glyph-name="H" unicode="H" horiz-adv-x="2742" 
d="M3018 930q10 -2 3 -26q-4 -15 -11.5 -38.5t-10.5 -33.5t-6.5 -28t0.5 -21q3 -8 1 -15t-15 -8q-18 -1 -33 5q-37 -48 -149.5 -210.5t-215.5 -322.5q122 -5 135 -34q9 -15 -15 -51q-14 -19 -16 -19l-4 5q-4 5 -8.5 9t-9.5 6q-38 18 -120 24q-186 -293 -220 -398
q-13 -43 -12 -66t12 -27q12 -3 -5 -13q-29 -16 -52 -2q-15 9 -17 30q-3 60 30 134q28 67 202 346q-38 1 -81 1.5t-97.5 -1t-94.5 -3t-109 -5.5t-102.5 -6t-114 -6.5t-105.5 -6.5q-45 -63 -121 -167t-125 -172.5t-77 -111.5q-36 -56 -48 -65q-7 -3 -13.5 -1.5t-16.5 5
t-13 3.5q-9 2 -1 25q4 14 11.5 37t10.5 33t6.5 27t-0.5 20q-8 20 15 22q24 0 34 -5q12 16 48 64.5t97.5 131t110.5 149.5l-123 -6q-9 1 -12.5 1.5t-8 5t-1.5 12.5q2 12 10 18.5t14 6.5q13 1 42 3.5t58.5 4.5t57.5 4q143 198 229 325q78 117 114.5 185.5t32.5 101.5
q-21 118 -369 72t-747 -152.5t-656 -206.5q-54 -21 -103 -47.5t-75.5 -48t-19.5 -30.5q-3 -11 -11 -14t-21 9q-59 70 18 109q242 125 661 246q514 153 1046 190q92 8 188 -4q44 -5 75 -29.5t41.5 -55.5t14.5 -63.5t-4 -55.5q-6 -24 -22.5 -59.5t-44.5 -81t-52 -83
t-62.5 -92.5t-57.5 -81t-55 -75.5t-38 -52.5q414 29 635 34q47 0 68 -1l82 130q61 94 182.5 270.5t154.5 232.5q31 56 43 67q13 8 39 -3z" />
    <glyph glyph-name="I" unicode="I" horiz-adv-x="1935" 
d="M2018 923q44 -5 75 -29.5t42 -55.5t15.5 -63.5t-4.5 -55.5q-9 -35 -41.5 -95.5t-80.5 -132.5t-86.5 -127t-84.5 -119t-50 -69q-50 -70 -129.5 -179t-133.5 -184.5t-83 -120.5q-31 -53 -48 -65q-5 -4 -23 1t-20 5q-9 4 -2 26q4 13 12 37t10.5 32.5t6.5 27t0 20.5
q-9 20 14 22q23 0 35 -5q8 11 107 144t215 293.5t197 281.5q77 117 113.5 186t32.5 102q-22 117 -369 71t-746.5 -152.5t-655.5 -206.5q-53 -20 -102 -46.5t-75.5 -48.5t-19.5 -31q-3 -11 -11 -14t-22 10q-57 71 18 109q128 66 312.5 132.5t348.5 113.5q516 153 1046 190
q91 8 187 -4z" />
    <glyph glyph-name="J" unicode="J" horiz-adv-x="2027" 
d="M2085 184q1 -11 -2.5 -20.5t-7.5 -9.5q-17 3 -30 2q-44 -4 -119 -23t-128 -36l-53 -17q-92 -111 -116 -137q-251 -282 -360 -286q-64 -2 -98 27.5t-25 78.5t63 99q59 54 180.5 119.5t273.5 123.5q24 29 63 78.5t132 184t154 247.5q34 62 50.5 108.5t18.5 72t-7 43
t-19.5 23t-26.5 10.5q-132 38 -474 -21t-673 -154t-543 -179q-54 -20 -102.5 -46.5t-74 -48.5t-17.5 -31q-3 -11 -10.5 -14t-22.5 10q-60 70 16 109q125 66 308 132.5t347 113.5q514 153 1041 190q91 8 188 -4q88 -11 118 -75t4 -138q-35 -104 -115 -236t-233 -336
q120 44 222 68q24 5 50 -2t28 -26zM1247 -278q96 4 368 312q-128 -48 -231.5 -111.5t-155.5 -117.5q-26 -27 -19 -55.5t38 -27.5z" />
    <glyph glyph-name="K" unicode="K" horiz-adv-x="2250" 
d="M3106 787q4 -10 1 -14t-8 -4t-8 3q-53 11 -221 -79t-361 -220t-342.5 -236.5t-211.5 -155.5q12 -38 57.5 -111.5t97.5 -116.5q36 -28 73.5 -23.5t64.5 18.5t29 21q0 3 2.5 6t5.5 4.5t6.5 -1.5t5.5 -10q6 -10 4 -32t-16 -34q-2 -1 -14 -8.5t-23.5 -13.5t-28 -12.5
t-37.5 -9t-42 0.5q-40 4 -82 42t-74 90.5t-52 91.5t-30 65q-157 -123 -257 -212.5t-133.5 -128t-57.5 -76.5q2 -5 -7 -6q-23 0 -43 18q-7 7 -9 14q-5 19 22 64q26 39 45.5 66.5t40.5 56.5t38 53q303 440 412 617q141 229 132 287q-11 68 -154 78.5t-352.5 -25t-450 -94.5
t-451 -125t-349.5 -121q-53 -21 -100.5 -47.5t-72.5 -48t-18 -30.5q-2 -11 -9.5 -14t-22.5 9q-61 69 12 109q241 126 648 246q505 153 1037 190q91 8 187 -4q59 -7 94 -46.5t43 -81t1 -77.5q-7 -35 -36.5 -95.5t-73 -131t-80.5 -127.5t-78 -117.5t-47 -69.5
q-77 -118 -213 -315q139 125 386 315.5t553 392.5q136 90 255 154t166 83t75 27q25 7 45.5 -11.5t26.5 -36.5z" />
    <glyph glyph-name="L" unicode="L" horiz-adv-x="1992" 
d="M2448 -324q12 -17 -17 -51q-7 -10 -12 -15t-7 -4q-1 0 -4 7.5t-21 12.5q-65 17 -220 20t-311 -3t-396.5 -16t-381.5 -13q-8 1 -11 1.5t-6.5 6t0.5 15.5q8 31 22 31l330 17q-27 17 -6 49q22 38 66 101.5t60 83.5q291 388 430 594q153 228 147 287q-21 118 -369 72
t-747 -152.5t-656 -206.5q-54 -21 -103 -47.5t-76 -48t-20 -30.5q-2 -11 -10 -14t-21 9q-59 70 18 109q242 125 661 246q512 153 1046 190q92 8 188 -4q44 -5 74.5 -29.5t41.5 -55.5t15 -63.5t-5 -55.5q-9 -35 -41.5 -95.5t-80 -131.5t-87.5 -127.5t-84.5 -118t-50.5 -69.5
q-52 -73 -121.5 -167.5t-115 -157.5t-74.5 -108q-18 -35 -38 -57q452 20 672 25q172 0 240.5 -7.5t81.5 -28.5z" />
    <glyph glyph-name="M" unicode="M" horiz-adv-x="2239" 
d="M2679 970q16 -3 24.5 -17.5t7.5 -22.5q-2 -7 -9 -4q-348 -328 -605 -834q-94 -187 -119 -296q-11 -44 -9 -67t13 -25q13 -2 -2 -13q-25 -16 -48 -6q-17 7 -21 30q-4 39 -0.5 61.5t18.5 73.5q64 214 211 455t338 464q-133 -112 -422 -407.5t-420 -442.5q-10 -12 -22 -12
h-1q-14 0 -22 13.5t-3 25.5q39 88 206.5 380t235.5 401q-38 -31 -149.5 -121.5t-199.5 -160.5t-161 -125q-62 -45 -221.5 -155t-268.5 -179q-93 -59 -308 -184q-56 -34 -112.5 -64.5t-122 -62.5t-127.5 -54.5t-121 -37.5t-111 -14.5t-89 17.5q-52 23 -53 86q-3 66 77 160.5
t201 184t238.5 163t211.5 120.5q144 71 188 71q30 0 34 -38q1 -10 -2 -14.5t-7 -4t-7 3.5q-12 13 -112 -36t-233 -133.5t-261 -177t-210 -179t-67 -128.5q13 -36 68.5 -37t140.5 30.5t177.5 73.5t201.5 102.5t188.5 107t161.5 96.5q209 129 456 299q204 143 520 395
q12 9 42 33.5t55 44.5t37 29q23 16 37 14t13.5 -15t-7.5 -28q-99 -164 -248 -424.5t-200 -346.5q188 214 430.5 454.5t456.5 407.5q93 73 112 70z" />
    <glyph glyph-name="N" unicode="N" horiz-adv-x="2781" 
d="M2828 772q65 -12 85 -62.5t3 -104.5q-22 -68 -142 -250.5t-241 -355t-136 -204.5q11 -7 18 -27q8 -19 -15 -21q-7 -1 -16 -5.5t-20.5 -12.5t-20.5 -15t-25 -20t-25 -20q-19 -16 -26 -9q-1 1 -9 8t-12 13.5t-2 11.5q7 23 47 67q19 23 94.5 132.5t180.5 263.5t160 233
q166 236 157 292q-10 59 -118 35q-144 -32 -350 -181q-27 -19 -53 -39q-133 -95 -374.5 -307t-422 -383.5t-178.5 -181.5q1 -12 -24 -3q-30 11 -32 29q-3 19 28 64q6 7 130.5 164.5t259.5 332.5t222 295q165 228 162 287q-6 130 -495 55q-409 -63 -945 -226
q-208 -63 -347 -116q-55 -21 -105.5 -47.5t-78 -48t-21.5 -30.5q-3 -11 -11 -14t-21 9q-54 70 23 109q249 125 674 246q521 153 1057 190q91 8 187 -4q44 -5 73.5 -29.5t38.5 -55.5t11.5 -63.5t-7.5 -55.5q-11 -35 -46.5 -95t-87.5 -132t-93 -127t-91 -119t-54 -69
q-43 -57 -127.5 -165t-93.5 -120q283 274 501.5 460t363 277.5t235.5 123.5t155 21z" />
    <glyph glyph-name="O" unicode="O" horiz-adv-x="1861" 
d="M1876 712q74 -136 -16 -312.5t-303 -333.5q-219 -163 -545 -282.5t-560 -118.5q-143 1 -252 53.5t-143 144.5q-16 40 -20 85.5t12.5 112t58.5 133.5q99 154 296 298t415 249q8 3 38 16.5t44 19t37.5 14t40.5 11.5t31 3q30 -1 40 -38q4 -13 -3 -16t-13 2q-28 23 -271 -112
q-220 -118 -387 -255q-67 -54 -137 -131q-131 -149 -148 -268t86.5 -184t313.5 -55q147 6 325.5 56.5t325.5 115.5q148 62 276 140t218.5 160t149.5 168t69.5 163t-22.5 146q-45 83 -170 126t-297 47q-196 4 -468 -68.5t-529 -196.5q-50 -24 -93 -53.5t-65 -53t-13 -31.5
q0 -11 -7 -14.5t-23 7.5q-73 65 -6 109q135 87 237 129q302 125 488.5 167.5t406.5 59.5q227 15 373.5 -40.5t208.5 -172.5z" />
    <glyph glyph-name="P" unicode="P" horiz-adv-x="1936" 
d="M2099 821q22 -35 31 -77t3 -91t-40 -102t-94 -99q-133 -100 -311.5 -176.5t-408.5 -151.5q-40 -15 -107.5 -35t-189.5 -45.5t-222 -30.5q-159 -245 -187 -295l-9 -17q-10 -17 -19 -29.5t-17 -18.5q-4 -3 -10.5 -3t-11.5 1t-12.5 3t-8.5 2q-10 2 -2 25q4 14 10.5 37
t9 32.5t5 27t-1.5 20.5q-4 7 -2 13.5t16 7.5q26 3 33 -2l128 198q-78 8 -126 51q-39 32 -36 90q4 44 47.5 92.5t115 93.5t152 84.5t172.5 75.5q67 96 226 314q-255 -50 -534 -132.5t-472 -158.5q-50 -20 -95 -44.5t-69.5 -45t-18.5 -29.5q-3 -11 -10.5 -14t-19.5 9
q-57 67 14 104q121 63 301 127.5t324 101.5q388 101 630 146q70 88 102 95q40 3 52 -17q7 -11 -4 -19q-11 0 -50 -42l102 16q146 20 263.5 21.5t215.5 -26t136 -87.5zM987 364q-53 -75 -187 -288q137 16 341.5 79t322 108.5t156.5 63.5q251 107 370 208q55 48 84.5 107.5
t23.5 98.5q-9 57 -66 90t-155 41t-207.5 1.5t-247.5 -25.5l-95 -15q-97 -120 -217 -291q100 34 159 49q138 36 182 35q11 -1 19 -3q28 -6 26 -49q0 -11 -4.5 -15t-9 -2t-6.5 6q-11 18 -136.5 -16t-284.5 -97l-13 -5q-38 -54 -55 -81zM934 399q-169 -76 -274 -146t-96 -116
q14 -63 143 -66h10q31 47 73.5 111.5t69 105.5t36.5 55z" />
    <glyph glyph-name="Q" unicode="Q" horiz-adv-x="1855" 
d="M1888 714q74 -136 -16 -312.5t-303 -333.5q-147 -108 -351 -200q180 -60 342 -100q32 -8 66 -12.5t63 -5.5t52 1.5t36 7.5t12 12q6 9 15.5 6.5t12.5 -20.5q4 -34 -32.5 -58.5t-72.5 -19.5q-242 32 -577 154q-179 -73 -357.5 -115.5t-315.5 -42.5q-145 1 -252.5 50
t-140.5 140q-16 40 -20 85.5t12.5 112t58.5 133.5q99 154 296 298t415 249q8 3 38 16.5t44 19t37.5 14t40.5 11.5t31 3q30 -1 40 -38q4 -13 -3 -16t-13 2q-28 23 -271 -112q-220 -118 -387 -255q-67 -54 -137 -131q-131 -149 -148 -268t86.5 -184t313.5 -55q235 10 536 118
q-26 10 -102.5 39.5t-117.5 44.5q-3 -9 -23 -24q-19 -14 -23 8q-2 8 -11 18t-18 17.5t-28 22.5t-29 23q-17 15 -12 22q1 2 5 8.5t7.5 10t9.5 3.5q18 0 71 -24q188 -76 355 -136l38 16q246 103 424.5 244.5t248.5 285t11 252.5q-45 83 -170 126t-297 47q-196 4 -468 -68.5
t-529 -196.5q-50 -24 -93 -53.5t-65 -53t-13 -31.5q0 -11 -7 -14.5t-23 7.5q-73 65 -6 109q135 87 237 129q302 125 488.5 167.5t406.5 59.5q227 15 373.5 -40.5t208.5 -172.5z" />
    <glyph glyph-name="R" unicode="R" horiz-adv-x="1933" 
d="M2156 832q21 -35 28.5 -76.5t1 -91t-43.5 -102.5t-102 -99q-118 -83 -276 -156.5t-308 -120.5t-271.5 -76t-207.5 -41q140 -86 353 -187.5t404.5 -168.5t244.5 -49q8 8 16 4.5t7 -22.5q-6 -43 -42.5 -59.5t-81.5 -3.5q-239 64 -514.5 200t-489.5 286l-11 -3
q-14 -10 -15 8q-1 24 16 36q3 2 7 3l4 1q39 6 83.5 15t154.5 33t220 58.5t236.5 80t249 109.5t215.5 136q57 44 88.5 105t28.5 101q-21 199 -703 105q-48 -6 -96 -15q-143 -168 -360 -469q-242 -337 -425 -618q-34 -53 -47 -64q-7 -6 -43 2q-9 3 -2 25q4 14 11.5 37t10.5 33
t6.5 27t-0.5 20q-6 20 17 21q23 3 32 -2q45 68 171 247t178 251q190 263 357 473q-257 -50 -540.5 -132.5t-479.5 -158.5q-79 -31 -138.5 -68.5t-49.5 -50.5q-4 -11 -11.5 -14t-19.5 9q-51 67 19 104q124 63 307 127.5t328 101.5q396 102 636 146q74 88 107 95q39 4 51 -17
q6 -11 -5 -19q-13 0 -52 -42l103 16q147 21 272.5 22.5t230.5 -26t140 -86.5z" />
    <glyph glyph-name="S" unicode="S" horiz-adv-x="1724" 
d="M1997 811q6 22 28 12q21 -10 21 -33q0 -7 -3 -13q-35 -59 -201 -291q-5 -6 -16.5 -22t-18.5 -24.5t-17.5 -20.5t-20 -18.5t-18.5 -8.5q-14 -4 -29 9.5t-20 28.5q-3 6 -4 10t0 5.5t3 1.5q65 55 94 113.5t24 106t-36 85.5q-13 16 -37 32t-88 36.5t-149 25.5
q-158 10 -312 -13t-382 -78q-547 -130 -665 -278q-61 -77 9 -136q19 -16 46 -29q32 -15 174.5 -60.5t290.5 -99.5t216 -97q353 89 662 111q78 8 85 -25q1 -7 0.5 -13.5t-3 -10t-4.5 -3.5q-1 0 -6 3.5t-16 2.5q-92 1 -299 -35.5t-351 -79.5q44 -38 56.5 -81t-3 -82t-52.5 -75
q-63 -58 -178 -95t-229 -33q-61 2 -96.5 26t-56.5 73q-14 25 -7.5 64t37.5 67q59 52 164.5 94.5t216.5 69.5q-173 71 -315 118.5t-216 73t-139 61.5q-28 16 -44.5 36.5t-21 48t-4.5 42.5t2 43q2 32 27 68.5t67 62.5q112 73 283.5 135t336 98.5t286.5 57.5t188 26
q446 40 564 -106q65 -87 23 -207q14 20 67.5 97t86.5 123zM834 -226q53 34 80 67t21 72t-57 74q-73 -16 -176 -55.5t-174 -79.5q-53 -30 -75.5 -59.5t-11.5 -53.5q17 -38 97.5 -39t165.5 22.5t130 51.5z" />
    <glyph glyph-name="T" unicode="T" horiz-adv-x="1254" 
d="M1524 868q-69 -69 -188.5 -224.5t-221.5 -298.5q-360 -501 -431 -610q-35 -54 -47 -64q-8 -6 -43 2q-7 3 -2 25q4 13 12 37t10.5 32.5t6.5 27t0 20.5q-8 20 16 21q23 3 32 -2q81 121 351 498q5 6 54 73.5t65.5 90t62.5 84t71.5 94t63 78.5t67 78.5t54.5 57.5l-535 -8
q-284 1 -580 -29q-31 -4 -63 -10t-58 -13t-46.5 -14.5t-30.5 -15.5t-8 -14q-6 -11 -14 -11.5t-15 14.5q-17 38 -7 63t53 37q68 19 168.5 30.5t152 14.5t187.5 6l136 3q191 5 760.5 7t698.5 -1q8 1 9.5 -5.5t-2.5 -30.5q-2 -11 -10 -16t-11 -5t-19 -1q-195 6 -698 0
q13 -13 -1 -21z" />
    <glyph glyph-name="U" unicode="U" horiz-adv-x="2820" 
d="M3093 865q3 -19 -32 -64q-84 -115 -307.5 -449.5t-299.5 -443.5q22 8 34 -19q4 -12 -1 -16.5t-16 -6.5q-8 -2 -20.5 -10.5t-22.5 -17t-30.5 -26t-31.5 -27.5q-21 -17 -27 -11q-24 20 -20 32q6 21 46 70q51 74 491 737q-140 -135 -315 -296t-265 -237q-466 -398 -656 -364
q-56 11 -66 68q-10 55 20 134.5t92 173.5t122.5 174t139.5 180t113 148q114 149 116 205q3 129 -490 54q-415 -63 -968 -227q-207 -62 -347 -114q-57 -22 -109 -48t-81 -47.5t-23 -30.5q-4 -11 -11.5 -14t-20.5 9q-51 69 30 109q259 125 690 246q531 153 1069 190
q93 8 187 -4q93 -11 127 -72t-10 -135q-38 -67 -335 -453q-131 -170 -206 -301t-51 -171q17 -25 60 -20.5t109 37t146.5 85t172 121t185.5 147t188 162.5q187 167 371.5 347.5t199.5 221.5q5 7 17 6t24.5 -11t11.5 -21z" />
    <glyph glyph-name="V" unicode="V" horiz-adv-x="2246" 
d="M3065 790q5 -9 2.5 -13.5t-7.5 -3.5t-8 2q-47 9 -176 -58.5t-289 -178.5t-292.5 -209t-240.5 -183q-10 -8 -65 -51.5t-104 -82.5t-63 -51q-104 -92 -171.5 -161t-91.5 -100.5t-42 -64.5q2 -6 -5 -6q-22 -1 -44 16q-10 8 -12 15q-7 19 16 65q29 50 62 102t46 74
q258 429 357 616q120 229 106 288q-17 68 -161 78.5t-350.5 -25.5t-441.5 -95t-439.5 -125t-338.5 -121q-51 -21 -96.5 -47.5t-68.5 -48t-15 -30.5q-1 -11 -8.5 -13.5t-22.5 9.5q-33 34 -34.5 59t36.5 50q119 66 296 133t330 112q480 150 1019 191q101 7 188 -5
q59 -6 97.5 -45.5t50.5 -81.5t8 -78q-4 -35 -27.5 -95t-61 -131.5t-69 -127t-68 -118t-40.5 -69.5q-62 -110 -185 -314q129 126 359 316t517 391q128 90 241 154.5t158.5 83.5t72.5 27q24 7 46.5 -12t29.5 -37z" />
    <glyph glyph-name="W" unicode="W" horiz-adv-x="2825" 
d="M3639 801q4 -9 1.5 -14t-8 -4.5t-8.5 2.5q-9 6 -64.5 -12.5t-151.5 -64.5t-207.5 -110.5t-249.5 -166.5t-260 -217q-105 -99 -187 -183.5t-127.5 -137.5t-75.5 -94.5t-40 -60.5t-13 -30q-4 -18 -38 -2q-35 16 -41 39q-1 9 1 15q1 1 42.5 95t76.5 168t86 177.5
t101.5 187.5t92.5 134q-263 -180 -508 -375q-10 -8 -65 -51.5t-104 -82.5t-63 -51q-104 -92 -171.5 -161t-91.5 -100.5t-42 -64.5q2 -6 -5 -6q-22 -1 -44 16q-10 8 -12 15q-7 19 16 65q29 50 62 102t46 74q258 429 357 616q120 229 106 288q-17 68 -161 78.5t-350.5 -25.5
t-441.5 -95t-439.5 -125t-338.5 -121q-51 -21 -96.5 -47.5t-68.5 -48t-15 -30.5q-1 -11 -8.5 -13.5t-22.5 9.5q-33 34 -34.5 59t36.5 50q119 66 296 133t330 112q480 150 1019 191q101 7 188 -5q59 -6 97.5 -45.5t50.5 -81.5t8 -78q-4 -35 -27.5 -95t-61 -131.5t-69 -127
t-68 -118t-40.5 -69.5q-62 -110 -185 -314q118 116 350 303.5t526 393.5q43 30 116 70q47 26 63 -3q9 -17 -1 -27q-3 -3 -6 -3q-8 1 -27.5 -22t-54 -76t-62 -97t-76.5 -125q-48 -80 -101 -190.5t-78.5 -172t-29.5 -72.5q119 152 336 353.5t494 393.5q50 35 99.5 66t89 53
t79.5 42t67.5 32.5t56.5 23.5t44 16t32.5 11t18.5 6q34 0 55 -43z" />
    <glyph glyph-name="X" unicode="X" horiz-adv-x="2687" 
d="M2977 896q4 -10 1 -14t-8 -4t-8 3q-13 10 -140 -47.5t-341 -180t-413 -263.5q-15 -289 -12 -368q1 -43 10.5 -67.5t23 -36t41 -8.5t55 12.5t75.5 29.5q110 47 272 142q32 19 56 33.5t39 23.5t36 23.5t30.5 21t39.5 27.5t46 32q2 1 4.5 4t4 4.5t4 1t5.5 -4.5
q22 -30 -2 -55q-7 -7 -26.5 -20.5t-38.5 -25.5t-55 -34.5t-57 -35.5q-265 -168 -452 -218q-70 -19 -115.5 2t-54.5 86q-6 18 -4.5 84t3.5 100t7.5 105.5t7.5 102.5q-176 -129 -331.5 -272.5t-233.5 -235t-80 -116.5q0 -9 1 -13t1.5 -5.5t0.5 -2.5q-7 -21 -30 -12
q-28 12 -32 46q-2 24 11 50q39 75 165 199t236.5 216.5t213.5 171.5l87 65q1 8 11 97.5t15.5 162.5t0.5 102q-12 69 -153.5 80t-348 -24.5t-442 -95.5t-441 -126t-339.5 -121q-51 -21 -96.5 -47.5t-68.5 -48t-15 -29.5q-1 -11 -8.5 -14.5t-22.5 8.5q-22 23 -30 41.5t-1 35.5
t33 32q120 66 296.5 133.5t329.5 113.5q487 151 1019 189q81 9 188 -3q36 -4 63 -17t43.5 -28t27 -41.5t15 -46t4.5 -53.5t-1 -52t-4 -53q-13 -132 -15 -152q137 95 353 220q126 73 243.5 130t171.5 78t79 28q18 -1 31 -15t19 -30z" />
    <glyph glyph-name="Y" unicode="Y" horiz-adv-x="2936" 
d="M3160 930q15 -1 25 -14t10 -21q-1 -9 -10 -5q-1 1 -9 -8q-6 -6 -10.5 -11t-16 -16.5l-24.5 -24.5q-77 -137 -229.5 -360.5t-232.5 -324.5q53 21 222 59q25 5 48.5 -3t23.5 -27q1 -11 -2.5 -20.5t-8.5 -9.5q-15 4 -29 2q-45 -4 -122.5 -23t-132.5 -36l-54 -17
q-2 -4 -47.5 -50t-118.5 -115.5t-150.5 -137t-153 -118.5t-116.5 -56q-62 -8 -100.5 28.5t-32.5 96.5t62 112q59 55 132.5 100.5t170 83t146.5 54t153 47.5q8 9 24 26.5t66 79t102.5 130.5t130 180.5t152.5 230.5q-34 -34 -95 -93t-197.5 -182t-262 -225.5t-266.5 -196
t-233 -121.5q-59 -18 -106.5 -15.5t-75 22.5t-45.5 51t-17 69.5t11 77.5q23 73 124.5 219.5t191 271.5t91.5 159q7 129 -464 60q-404 -59 -952 -222q-227 -68 -375 -124q-56 -21 -106.5 -47.5t-78.5 -48.5t-22 -31q-4 -11 -12 -14t-20 10q-56 69 25 109q250 124 677 245
q528 154 1061 191q100 8 184 -5q45 -5 75.5 -24.5t40.5 -44.5t13 -53t-7 -51q-12 -37 -53 -98t-108.5 -156t-114.5 -170q-136 -202 -130 -263q13 -129 233 -29q173 78 389 249q147 116 311 259t242 215t96 90q81 82 108 84zM1951 -338q22 -23 91 7.5t143 91.5
q157 127 310 283q-262 -82 -421 -180q-26 -16 -49 -33.5t-45.5 -39.5t-35 -43t-12 -44t18.5 -42z" />
    <glyph glyph-name="Z" unicode="Z" horiz-adv-x="1880" 
d="M2045 818q26 -35 40 -77t15 -91.5t-28 -102.5t-87 -98q-56 -43 -130.5 -84.5t-141.5 -71.5t-161 -64.5t-154.5 -54t-160 -51t-142.5 -45.5q85 -28 144 -66q346 114 605 143q72 7 80 -26q2 -11 0 -20.5t-6 -9.5q-1 0 -5.5 4t-15.5 3q-86 -2 -278 -46t-323 -92
q41 -40 54 -91t1 -96.5t-42 -80.5q-60 -71 -162.5 -109.5t-218.5 -31.5q-58 5 -90.5 27t-51.5 72q-25 67 35 133q54 59 151.5 111t195.5 84q-54 34 -122.5 52t-108.5 1q-13 -12 -17 8q-5 24 9 36q2 2 5 3l8 2q457 125 759 274q178 87 265 170q50 48 73 107.5t13 98.5
q-38 147 -412 129q-95 -5 -277.5 -30.5t-330.5 -62.5q-539 -136 -827 -260q-79 -34 -130.5 -66t-40.5 -45q-2 -11 -9 -14t-21 9q-67 67 3 104q335 185 1017 340q53 12 234.5 42t227.5 35q122 10 230 9.5t199 -28.5t130 -82zM1245 -277q128 97 -24 220q-184 -66 -313 -157
q-48 -34 -68.5 -67t-10.5 -58q13 -32 69 -36.5t123 11t130.5 40t93.5 47.5z" />
    <glyph glyph-name="bracketleft" unicode="[" horiz-adv-x="326" 
d="M569 663l-66 1l-424 -633h78q5 0 7.5 -4t0.5 -8q-6 -14 -23 -14h-84q-13 0 -25.5 17.5t-3.5 31.5l413 617q11 20 39 20h99q10 0 6 -8q-5 -19 -17 -20z" />
    <glyph glyph-name="backslash" unicode="\" horiz-adv-x="506" 
d="M429 -41q5 -12 -11 -22q-19 -13 -26 -12t-13 17q-321 777 -345 766q-9 0 -7 5q3 8 16 19.5t26 12.5q11 0 22 -16.5t38 -72.5q29 -59 97 -218.5t131.5 -310t71.5 -168.5z" />
    <glyph glyph-name="bracketright" unicode="]" horiz-adv-x="369" 
d="M504 691q13 0 25.5 -17.5t3.5 -31.5l-413 -617q-11 -20 -39 -20h-99q-10 0 -6 8q5 19 17 20l66 -1l424 633h-78q-5 0 -7.5 4t-0.5 8q6 14 23 14h84z" />
    <glyph glyph-name="asciicircum" unicode="^" horiz-adv-x="272" 
d="M225 571q-3 9 64 73q27 25 42 36q15 10 28.5 8t19.5 -14q4 -9 29 -53t28 -52q7 -15 -8 -23q-11 -6 -15.5 -7t-9 2.5t-10.5 13.5q-2 3 -13 26t-18 35q-15 26 -25 19q-12 -9 -32 -30.5t-34 -38.5t-13 -18q0 -8 -6 -8t-17 9.5t-10 21.5z" />
    <glyph glyph-name="underscore" unicode="_" horiz-adv-x="397" 
d="M290 47q7 -1 9 -16q0 -34 -14 -32h-250q-11 0 -11 8v35q2 6 13 6z" />
    <glyph glyph-name="a" unicode="a" 
d="M367 190q5 4 9.5 2.5t5 -5.5t-2.5 -8l-87 -87l-64 -61q-33 -31 -46 -31q-27 0 -44.5 22t-13.5 44q0 1 2 8t4 11q-68 -84 -92 -85q-28 -1 -56.5 21.5t-28.5 43.5q0 42 29.5 97.5t77.5 103.5q70 72 125 66q20 -1 33.5 -18t17.5 -40q18 26 33 39q21 21 37 21q13 -1 26 -13.5
t13 -19.5q1 -5 -2.5 -5.5t-5.5 1.5q-3 2 -15 -9t-31 -35t-38 -53q-38 -58 -58 -97q-24 -45 -11 -54q8 -4 26 9q15 10 36 27q91 75 121 105zM18 44q18 -7 65.5 38.5t96.5 106.5l37 56q-1 6 -2.5 12t-8 14.5t-15 11.5t-25 -2t-37.5 -21q-24 -18 -49.5 -51t-37.5 -53t-18 -32
q-13 -26 -16 -44.5t0.5 -26t9.5 -9.5z" />
    <glyph glyph-name="b" unicode="b" horiz-adv-x="361" 
d="M424 652q0 -5 -3 -5.5t-5 1.5q-6 4 -53 -48.5t-126 -157.5t-153 -221q-58 -87 -68 -117q16 22 66 80t93 97q66 63 108 50q41 -15 41 -61q-2 -74 -77 -161q-38 -43 -64 -60q9 -2 51 32q96 79 126 109q4 4 8.5 2.5t5 -6t-2.5 -8.5q-1 0 -16 -15.5t-36.5 -37t-34.5 -33.5
l-8 -8l-12 -12t-12 -11.5t-14 -12.5t-14.5 -11.5t-16 -11.5t-16.5 -9.5t-18 -8.5t-17.5 -5.5t-18.5 -2.5q-68 -2 -89 35q-6 11 -6 26q2 9 8.5 12t12 1t6.5 -5q1 -8 8 -13t24 0t40 23q28 23 52 52q64 77 77 132q5 22 -9 29q-16 5 -38 -14q-44 -37 -107.5 -107t-91.5 -105
l-53 -66q-41 10 -45 30q-3 12 14 52q16 40 70 130q98 163 288 397q62 77 87 77q13 -1 25.5 -13.5t13.5 -19.5z" />
    <glyph glyph-name="c" unicode="c" horiz-adv-x="290" 
d="M301 192q7 7 12 1t-1 -12q-51 -47 -86.5 -77.5t-93.5 -65.5t-98 -37q-28 -1 -56.5 21.5t-28.5 43.5q0 40 35 105q28 52 89 110t108 53q17 -3 30 -14q17 -18 20 -42t-5 -45t-23 -39q-23 -28 -36 -27t-25 14t-12 21q0 5 3 5.5t5 -1.5q1 -1 5 0.5t10 5.5t12 11q25 28 36 52
q10 20 -5 23q-23 3 -82 -50q-47 -44 -78 -95q-54 -90 -22 -108q6 -6 36.5 -2t57.5 18q33 17 61 35t43 28.5t45 33.5t44 34z" />
    <glyph glyph-name="d" unicode="d" horiz-adv-x="328" 
d="M607 651q0 -9 -8 -5q-7 5 -67.5 -63.5t-157 -203.5t-178.5 -277q-11 -19 -13.5 -35.5t2.5 -18.5q8 -4 26 9q15 10 36 27q91 75 121 105q5 4 9.5 2.5t5 -5.5t-2.5 -8l-87 -87l-64 -61q-34 -32 -46 -32q-27 0 -44.5 22.5t-13.5 44.5l6 21q-68 -86 -92 -86
q-28 -1 -56.5 21.5t-28.5 43.5q0 42 29.5 97.5t77.5 103.5q70 72 125 66q20 -1 33 -16.5t17 -37.5q101 150 245 329q62 77 87 77q13 -1 25.5 -13.5t13.5 -19.5zM217 248q-2 9 -5.5 16.5t-12.5 15t-27 3t-42 -22.5t-49.5 -51t-37.5 -53t-18 -32q-13 -26 -16 -44.5t0.5 -26
t9.5 -9.5q32 -13 161 143z" />
    <glyph glyph-name="e" unicode="e" horiz-adv-x="272" 
d="M303 191q7 7 12 1t-1 -12q-51 -47 -86.5 -77.5t-93.5 -65.5t-98 -37q-28 -1 -56.5 21.5t-28.5 43.5q0 40 35 105q28 52 89 110t108 53q17 -3 30 -14q46 -50 -2 -115q-21 -28 -52.5 -49t-54.5 -23q-24 -3 -40 20q-6 9 -11 23q-14 -21 -15 -23q-54 -90 -22 -108
q6 -6 36.5 -2t57.5 18q33 17 61 35t43 28.5t45 33.5t44 34zM194 298q-24 0 -62.5 -35.5t-71.5 -78.5q3 -2 3 -5q1 -2 6 -3t15.5 0t22.5 5.5t30 16t36 28.5q21 19 28 36.5t3.5 26.5t-10.5 9z" />
    <glyph glyph-name="f" unicode="f" horiz-adv-x="181" 
d="M330 487q1 -5 -2 -6t-5 0q-4 3 -16.5 -6.5t-33 -31.5t-43.5 -53q-59 -78 -137.5 -197t-94.5 -148q19 5 43 17q13 6 33.5 21.5t41.5 33.5t39.5 34.5t30.5 28.5l13 11q7 7 12 1t-1 -12l-6 -7q-7 -7 -16 -17t-20 -21.5t-22.5 -23.5t-19.5 -20q-90 -87 -150 -90
q18 -42 6.5 -99.5t-47.5 -87.5q-20 -16 -52 4t-30 37q2 30 65 154q-8 3 -10.5 4t-6.5 6t-4 12q-1 9 7.5 17.5t14.5 5.5q12 -6 18 -7q48 88 163.5 254.5t160.5 203.5q17 13 32.5 9t25.5 -13t11 -14zM-49 -119q18 51 9 93q-39 -79 -47 -97q-17 -39 -1 -41q15 -2 31 27
q5 8 8 18z" />
    <glyph glyph-name="g" unicode="g" horiz-adv-x="315" 
d="M-395 -229q-5 -5 -12.5 5t-10.5 21q-8 30 15 41q51 23 183 38q56 33 142 60t144 37l59 10q-1 3 -1.5 9t-2 24.5t1.5 37.5q1 11 7 33q-68 -86 -93 -87q-28 -1 -56.5 21.5t-28.5 43.5q0 42 29.5 97.5t77.5 103.5q70 72 125 66q41 -3 51 -57q18 24 34 40q21 21 37 21
q13 -1 25.5 -13.5t13.5 -19.5q0 -10 -9 -4q-2 2 -14.5 -10t-32 -36t-37.5 -51q-55 -97 -65 -151q-6 -36 -4 -66q2 -5 5.5 -12t2.5 -11q0 -4 -2 -6t-3 -2h-2q-171 -19 -299 -72q48 3 109 1q134 -6 203 -32t80 -87q5 -34 -11.5 -67.5t-54 -63.5t-104 -49t-151.5 -21
q-70 -1 -124 13.5t-85 40.5t-45.5 59.5t-10 70.5t26.5 73q-53 -10 -81.5 -19t-32 -13t-1.5 -7q2 -1 3 -4.5t-1 -5.5zM17 44q17 -7 64 37.5t96 104.5q19 32 39 60q-15 70 -88 14q-24 -18 -49.5 -51t-37.5 -53t-18 -32q-13 -26 -16 -44.5t0.5 -26t9.5 -9.5zM257 -246
q-1 44 -81 66t-182.5 20t-200.5 -11q-56 -50 -44.5 -111.5t81.5 -87.5q49 -20 122 -16.5t141 18.5t116 48.5t48 73.5z" />
    <glyph glyph-name="h" unicode="h" horiz-adv-x="379" 
d="M384 688q13 -1 25.5 -13t13.5 -20q0 -5 -3.5 -5.5t-4.5 1.5q-6 4 -53 -48.5t-126 -157.5t-153 -221q-44 -69 -65 -112q53 73 145.5 154t149.5 72q21 -3 37 -15q10 -7 18.5 -18.5t7.5 -16.5q-2 -9 -8 -5q-5 5 -47 -43q-52 -63 -89 -138q-23 -46 -12 -52q4 -2 10.5 0
t14.5 7.5t14 10t13.5 11t8.5 7.5q16 13 45.5 38.5t52 45t24.5 21.5q4 4 8.5 2.5t5 -5.5t-2.5 -8q-1 -2 -86 -87l-64 -61q-36 -32 -47 -32q-26 0 -43.5 22.5t-13.5 44.5q9 50 49.5 114t75.5 103q4 2 -3 3q-14 0 -39 -13q-37 -19 -95.5 -72t-124.5 -134l-53 -66q-41 10 -45 30
q-2 10 14 52q17 40 71 130q96 162 287 397q62 77 87 77z" />
    <glyph glyph-name="i" unicode="i" horiz-adv-x="170" 
d="M245 471q13 -1 24.5 -16t11.5 -22q0 -4 -3 -5.5t-5 -0.5t-12.5 -5.5t-27.5 -20t-32 -29.5q-9 -9 -25.5 4t-10.5 22q15 29 42 52q25 22 38 21zM185 192q5 4 9.5 2.5t5 -5.5t-2.5 -8l-87 -87l-64 -61q-34 -32 -46 -32q-27 0 -44.5 22.5t-13.5 44.5q12 59 99 189
q26 38 46 58q21 21 37 21q13 -1 26 -13.5t13 -19.5q0 -5 -3.5 -5.5t-4.5 1.5q-3 2 -15.5 -10t-31.5 -36t-37 -51q-20 -31 -58 -97q-11 -19 -13.5 -35.5t2.5 -18.5q8 -4 26 9q15 10 36 27q91 75 121 105z" />
    <glyph glyph-name="j" unicode="j" horiz-adv-x="162" 
d="M268 473q13 -1 24 -16t11 -22q0 -6 -7 -6q-2 1 -13 -5.5t-27.5 -20t-31.5 -29.5q-8 -5 -17.5 -1.5t-16 12.5t-2.5 15q15 29 42 52q25 22 38 21zM142 334q13 -1 26 -13.5t13 -19.5q1 -5 -2.5 -5.5t-5.5 1.5q-3 2 -15.5 -10t-31.5 -36t-37 -51l-18 -29q-37 -68 -48 -120
q-6 -36 -4 -66q2 -5 5.5 -12t2.5 -11q0 -4 -2 -6t-3 -2h-2q-171 -19 -299 -72q48 3 109 1q134 -6 203 -32t80 -87q5 -34 -11.5 -67.5t-54 -63.5t-104 -49t-151.5 -21q-70 -1 -124 13.5t-85 40.5t-45.5 59.5t-10 70.5t26.5 73q-53 -10 -81.5 -19t-32 -13t-1.5 -7q2 -1 3 -4.5
t-1 -5.5q-5 -5 -12.5 5t-10.5 21q-8 30 15 41q51 23 183 38q56 33 142 60t144 37l59 10q-3 6 -5.5 19t9 63.5t46.5 114.5l48 75q26 38 46 58q21 21 37 21zM93 -246q-1 44 -81 66t-182.5 20t-200.5 -11q-56 -50 -44.5 -111.5t81.5 -87.5q49 -20 122 -16.5t141 18.5t116 48.5
t48 73.5z" />
    <glyph glyph-name="k" unicode="k" horiz-adv-x="378" 
d="M383 688q13 -1 25.5 -13t13.5 -20q0 -5 -3 -5.5t-5 1.5q-6 4 -53 -48.5t-126 -157.5t-153 -221q-44 -69 -65 -112q53 73 145.5 154t149.5 72q21 -3 37 -15q10 -7 18.5 -18.5t7.5 -16.5q-2 -9 -8 -5q-64 15 -122 -15q-66 -33 -126 -93q-3 -3 45 -57.5t56 -59.5
q14 -9 60 28q16 13 45.5 38.5t52 45t24.5 21.5q4 4 8.5 2.5t5 -5.5t-2.5 -8q-1 -2 -86 -87l-64 -61q-34 -31 -47 -32q-21 -2 -50 28q-11 10 -45.5 51t-42.5 53q-24 -26 -56 -64l-53 -66q-41 10 -45 30q-2 10 14 52q17 40 71 130q96 162 287 397q62 77 87 77z" />
    <glyph glyph-name="l" unicode="l" horiz-adv-x="165" 
d="M297 608q62 77 87 77q13 -1 25.5 -13.5t13.5 -19.5q0 -9 -8 -5q-7 5 -67.5 -63.5t-157 -203.5t-178.5 -277q-11 -19 -13.5 -35t2.5 -18q8 -4 26 9q22 15 36 26q91 75 121 105q5 4 9.5 2.5t5 -5.5t-2.5 -8l-87 -87q-42 -40 -64 -60q-34 -32 -46 -32q-27 0 -44.5 21.5
t-13.5 43.5q11 54 84 169t139 202.5t133 171.5z" />
    <glyph glyph-name="m" unicode="m" horiz-adv-x="536" 
d="M559 190q4 4 8.5 2.5t5 -5.5t-2.5 -8l-87 -87l-64 -61q-34 -32 -46 -32q-27 0 -44.5 22.5t-13.5 44.5q9 50 46 110.5t71 99.5q18 21 12 21q-6 1 -41 -20q-102 -60 -225 -210l-30 -39q-21 -6 -39 8q-20 15 5 69q10 20 37.5 63.5t50.5 76.5l23 33q-16 -2 -91 -73.5
t-119 -128.5q-28 -38 -46 -76q-42 7 -46 29q-3 16 17 60q11 23 38 69q64 107 107 157q23 22 37 20q13 -1 26 -13t13 -19q1 -5 -2.5 -6t-5.5 1q-3 2 -15 -9.5t-31.5 -35.5t-37.5 -52l-33 -55q28 35 105.5 104t100.5 76q15 5 29.5 -1t20.5 -15l7 -9q-49 -65 -84 -122
q-17 -27 -30 -53q35 44 81 91t105.5 86t96.5 33q21 -3 37 -15q10 -7 18.5 -18t7.5 -16q-2 -9 -8 -5q-1 2 -9.5 -4.5t-28 -28.5t-45.5 -56l-6 -9q-81 -122 -58 -135q9 -6 61 36q15 12 44.5 38t53 46t24.5 21z" />
    <glyph glyph-name="n" unicode="n" horiz-adv-x="378" 
d="M402 191q4 4 8.5 2.5t5 -5.5t-2.5 -8q-1 -2 -86 -87l-64 -61q-36 -32 -47 -32q-26 0 -43.5 22.5t-13.5 44.5q9 50 49.5 114t75.5 103q4 2 -3 3q-14 0 -39 -13q-37 -19 -95.5 -72t-124.5 -134q-47 -59 -51 -68q-17 0 -38 17q-6 6 -8 14t1 18.5t5 17t8.5 19t7.5 15.5
q12 26 62 107q35 60 78 109q23 22 37 20q13 -1 26 -13t13 -19q1 -5 -2.5 -6t-5.5 1q-3 2 -15 -9.5t-31.5 -35.5t-37.5 -52q-47 -75 -55 -91q53 63 68 79q62 66 124 110t104 37q21 -3 37 -15q10 -7 18.5 -18.5t7.5 -16.5q-2 -9 -8 -5q-5 5 -47 -43q-52 -63 -89 -138
q-23 -46 -12 -52q4 -2 10.5 0t14.5 7.5t14 10t13.5 11t8.5 7.5q16 13 45.5 38.5t52 45t24.5 21.5z" />
    <glyph glyph-name="o" unicode="o" horiz-adv-x="298" 
d="M380 272q5 6 10 2t2 -10q-44 -84 -122 -101q-23 -5 -51 -3q4 -20 -11.5 -60.5t-58.5 -74.5q-30 -23 -69.5 -26.5t-71 19t-33.5 66.5t20.5 95t60.5 91q64 69 133 65q58 -3 78 -62q5 -12 3 -23q-3 -13 -17.5 -23t-21.5 -9q-3 0 -4 2t-0.5 4t1.5 3q1 2 1 6t-2 12t-6 15
q-37 53 -97.5 5t-88.5 -127q-20 -59 5 -87q25 -22 59 -12t56 39q33 44 29 87q-8 4 -11 9q-10 18 -1 35q5 9 14 5q42 -25 82 -21q61 6 112 79z" />
    <glyph glyph-name="p" unicode="p" horiz-adv-x="336" 
d="M360 189q7 7 12 1t-1 -12l-7 -7q-6 -7 -16 -16.5t-21 -21t-23 -23t-20 -19.5l-11.5 -11.5t-14.5 -14t-16 -14t-18.5 -15t-19.5 -13.5t-22 -12.5t-22 -7.5t-23 -4q-67 -4 -89 35q-6 11 -5 26q2 9 8 12t11.5 1t6.5 -6q1 -8 7.5 -12.5t24 0t40.5 23.5q31 26 52 51
q64 77 77 132q7 24 -9 29q-17 5 -38 -13q-45 -38 -112.5 -110t-89.5 -99q-4 -5 -62 -68q-45 -89 -107 -209q-32 -61 -42.5 -77t-21.5 -18q-13 -2 -28 7.5t-17 16.5q-1 4 2 5.5t5 0.5q9 -4 45 65l131 252q80 154 109 201q32 53 47.5 70t27.5 18q13 1 27.5 -9.5t15.5 -17.5
q1 -5 -2 -6t-5 0q-8 5 -64 -81q-61 -101 -69 -116q16 21 68 80t94 99q68 64 108 49q43 -15 41 -60q-2 -73 -77 -162q-10 -12 -31.5 -32.5t-32.5 -27.5q10 -2 51 32q15 12 45.5 39t55 48t25.5 22z" />
    <glyph glyph-name="q" unicode="q" horiz-adv-x="334" 
d="M366 191q7 7 12 1t-1 -12l-7 -7q-6 -7 -15 -17t-20 -21.5t-22.5 -23.5t-19.5 -20q-90 -87 -150 -90q18 -42 6.5 -99.5t-47.5 -87.5q-20 -16 -48 2.5t-26 35.5q2 30 65 154q-7 4 -5 18q4 18 18 21q2 0 6 -1q18 34 26 51q-76 -94 -102 -95q-28 -1 -56.5 21.5t-28.5 43.5
q0 42 29.5 97.5t77.5 103.5q70 72 125 66q23 -2 35 -22t14 -47q14 23 58 89q24 37 45 32q9 -2 18.5 -10t10.5 -12q1 -5 -2 -6t-5 0q-5 2 -103 -153q-66 -115 -89 -158q19 5 43 17q13 6 33.5 21.5t41.5 33.5t39.5 34.5t31.5 28.5zM16 44q18 -7 74 44.5t102 108.5v-1
q10 18 23 38q-9 85 -88 26q-24 -18 -49.5 -51t-37.5 -53t-18 -32q-13 -26 -16 -44.5t0.5 -26t9.5 -9.5zM118 -119q18 51 9 93q-39 -79 -47 -97q-17 -39 -1 -41q15 -2 31 27q5 8 8 18z" />
    <glyph glyph-name="r" unicode="r" horiz-adv-x="360" 
d="M349 271q1 -41 -28 -77q-23 -27 -36 -26t-25.5 14t-12.5 20q0 10 9 5q3 -3 14 5q16 13 32 32.5t17 31.5q1 9 -9.5 12.5t-29.5 -1t-40 -15.5q-21 -12 -43 -29q-80 -59 -177 -177l-53 -66q-41 10 -45 30q-2 10 14 52q6 14 49 87.5t51 85.5q26 38 46 58q21 21 37 21
q13 -1 26 -13.5t13 -19.5q0 -5 -3 -5.5t-5 1.5q-6 4 -43 -40q-7 -10 -34.5 -52t-37.5 -59l-20 -36q41 55 112.5 124t130.5 93l8 3q18 6 33 5q17 -3 30 -14q20 -21 20 -50z" />
    <glyph glyph-name="s" unicode="s" horiz-adv-x="295" 
d="M311 191q7 6 12 0t-1 -12q-1 -2 -86 -87q-2 -2 -11.5 -10.5t-14.5 -13.5t-15.5 -13.5t-19 -14.5t-19 -13t-21.5 -12t-22 -9q-25 -11 -58.5 -5.5t-49.5 34.5q-7 12 -5 26q6 30 30 29q10 -2 10 -6q-7 -8 -7 -24t10 -22q24 -16 38 6q16 27 -9 63q-4 6 -17.5 23.5t-20.5 28
t-16 26.5t-12 32t-1 31q5 38 41.5 61t76 25t69.5 -4q73 -23 56 -87q-7 -26 -22 -46q-22 -27 -34 -26q-13 1 -26 14t-14 20q-1 10 8 5q4 -2 11 4q47 39 44 70q-2 20 -38 22t-73 -20.5t-40 -64.5q-2 -22 47 -75q23 -26 32 -44.5t6 -46.5q23 15 36 26q24 19 73.5 62.5
t52.5 47.5z" />
    <glyph glyph-name="t" unicode="t" horiz-adv-x="162" 
d="M423 653q0 -9 -8 -5q-3 2 -18.5 -12.5t-43 -45.5t-59.5 -71q30 -2 50 -5q23 -4 28 -13q5 -11 3 -25.5t-6 -17.5q-4 -2 -6 -0.5t-2 3.5q0 6 -104 11q-133 -172 -245 -368q-11 -19 -13.5 -35.5t3.5 -18.5q6 -4 25 9q15 10 36 27q15 12 44.5 38t53 46t24.5 21q4 4 8.5 2.5
t5 -5.5t-2.5 -8l-6 -7q-7 -7 -17 -16.5t-21 -21t-23 -23t-20 -19.5l-64 -61q-34 -32 -46 -32q-27 0 -44.5 22.5t-13.5 44.5q21 102 250 407q-11 0 -36.5 0.5t-38.5 0.5q-7 0 -32.5 -0.5t-43 -0.5h-28.5q-82 0 -93 16q-7 10 -5.5 23.5t6.5 17.5q3 2 5 0.5t2 -3.5q0 -5 68 -8
l103 1q70 2 130 0q19 25 69 88q62 77 87 77q13 -1 26 -13.5t13 -19.5z" />
    <glyph glyph-name="u" unicode="u" horiz-adv-x="345" 
d="M366 190q5 4 9.5 2.5t5 -5.5t-2.5 -8l-87 -87l-64 -61q-34 -32 -46 -32q-27 0 -44.5 22.5t-13.5 44.5q0 1 2 8t4 11q-68 -84 -92 -85q-28 -1 -56.5 21.5t-28.5 43.5q0 39 32 99q50 93 102 149q21 23 36 21q13 0 26 -12t14 -19q0 -9 -8 -5q-13 9 -72.5 -82t-71.5 -124
q-14 -40 7 -48q18 -7 65.5 38.5t96.5 106.5l43 66q26 38 46 58q21 21 37 21q13 -1 26 -13.5t13 -19.5q1 -5 -2.5 -5.5t-5.5 1.5q-3 2 -15.5 -10t-31.5 -36t-37 -51q-20 -31 -58 -97q-11 -19 -13.5 -35.5t2.5 -18.5q8 -4 26 9q15 10 36 27q91 75 121 105z" />
    <glyph glyph-name="v" unicode="v" horiz-adv-x="299" 
d="M336 297q-7 4 -46.5 -37.5t-83.5 -97.5q-124 -158 -169 -162q-35 0 -53 17.5t-18.5 45t4.5 52t15 45.5q21 46 55 95q32 45 46 58q23 23 36 21q13 0 26 -12.5t14 -19.5q0 -9 -8 -5q-3 2 -15.5 -8t-32.5 -34t-38 -54q-43 -75 -54 -113q-12 -42 7 -49q17 -7 72 59
q27 32 85 107.5t90 107.5q21 21 37 21q13 -1 26 -13.5t13 -19.5q1 -7 -8 -4z" />
    <glyph glyph-name="w" unicode="w" horiz-adv-x="480" 
d="M527 301q1 -7 -8 -4q-7 4 -46.5 -37.5t-83.5 -97.5q-124 -158 -169 -162q-48 0 -63 30.5t-7 74.5l-59 -64q-37 -40 -54 -40q-28 -1 -56.5 21.5t-28.5 43.5q0 39 32 99q50 93 102 149q21 23 36 21q13 0 26 -12t14 -19q0 -9 -8 -5q-13 9 -72.5 -82t-71.5 -124
q-14 -40 7 -48q18 -7 65.5 38.5t96.5 106.5l43 66q26 38 46 58q21 21 37 21q13 -1 25 -12q13 -13 15 -21l-1 -1v-2q-1 -2 -3.5 -2.5t-3.5 0.5q-3 2 -15.5 -8t-32.5 -34t-38 -54q-43 -75 -54 -113q-12 -42 7 -49q17 -7 72 59q27 32 85 107.5t90 107.5q21 21 37 21
q13 -1 26 -13.5t13 -19.5z" />
    <glyph glyph-name="x" unicode="x" horiz-adv-x="382" 
d="M403 191q4 4 8.5 2.5t5 -5.5t-2.5 -8q-1 -2 -86 -87l-64 -61q-20 -18 -26 -22q-13 -9 -21 -9q-31 -4 -63 64q-10 19 -18 39q-6 -6 -13.5 -14.5t-8.5 -10.5q-77 -82 -100 -79q-13 2 -24.5 15.5t-11.5 20.5q2 11 9 4q8 -6 127 115q-3 7 -23 51t-31.5 74.5t-8.5 38.5
q3 9 22 14t22 2q1 -1 3 -9q4 -11 56 -130q17 18 67 74q1 1 9.5 10.5t19 20.5t19.5 19q16 14 25 14q13 1 24 -13.5t11 -22.5q0 -5 -3.5 -5.5t-5.5 1.5t-36.5 -34.5t-69.5 -74.5t-37 -39q4 -9 12 -26.5t12 -26.5q10 -21 19 -29t13.5 -7.5t11.5 4.5q15 7 36 25q16 13 45.5 38.5
t52 45t24.5 21.5z" />
    <glyph glyph-name="y" unicode="y" horiz-adv-x="317" 
d="M344 301q1 -5 -2.5 -5.5t-5.5 1.5q-3 2 -15.5 -10t-31.5 -36t-37 -51l-18 -29q-37 -68 -48 -120q-6 -36 -4 -66q2 -5 5.5 -12t2.5 -11q0 -4 -2 -6t-4 -2h-1q-171 -19 -299 -72q48 3 109 1q134 -6 203 -32t80 -87q5 -34 -11.5 -67.5t-54 -63.5t-104 -49t-151.5 -21
q-70 -1 -124 13.5t-85 40.5t-45.5 59.5t-10 70.5t26.5 73q-53 -10 -81.5 -19t-32 -13t-1.5 -7q2 -1 3 -4.5t-1 -5.5q-5 -5 -12.5 5t-10.5 21q-8 30 15 41q51 23 183 38q56 33 142 60t145 37l58 10q-1 3 -1.5 9t-2 24.5t1.5 37.5q1 10 7 30q-67 -83 -92 -84h-8
q-27 2 -52 23.5t-25 41.5q0 37 32 99q50 93 102 149q21 23 36 21q13 0 26 -12t14 -19q0 -9 -8 -5q-13 9 -72.5 -82t-71.5 -124q-20 -50 7 -45q32 6 96 68l16 16q27 29 50 58l43 66q26 38 46 58q21 21 37 21q13 -1 26 -13.5t13 -19.5zM256 -246q-1 44 -81 66t-182.5 20
t-200.5 -11q-56 -50 -44.5 -111.5t81.5 -87.5q49 -20 122 -16.5t141 18.5t116 48.5t48 73.5z" />
    <glyph glyph-name="z" unicode="z" horiz-adv-x="311" 
d="M326 191q5 4 9 2.5t4.5 -5.5t-2.5 -8q-23 -23 -47 -44t-42.5 -36t-56 -45t-69.5 -56q33 -40 15.5 -102.5t-68.5 -82.5q-36 -14 -65 6q-16 11 -21.5 35.5t7.5 55.5q18 33 92 91q-4 9 -29.5 22t-31.5 11q-2 -1 -7.5 6t-8 14.5t0.5 11.5q27 15 39 22q49 28 124.5 98.5
t63.5 91.5q-2 6 -18.5 4t-35.5 -13q-92 -54 -115 -76q-10 -10 -8 -14q4 -8 -5 -8q-7 1 -19.5 14t-12.5 26q-2 16 12 27q23 18 54.5 38t50 30.5t24.5 12.5q33 16 54 14q23 -2 49 -33.5t8 -71.5q-13 -29 -66 -80.5t-137 -108.5q9 -3 20.5 -10.5t13.5 -10.5q8 6 109 82z
M87 -126q17 26 19 59t-7 46q-3 -2 -17.5 -16.5t-33.5 -37t-25 -36.5q-6 -15 -0.5 -26.5t14.5 -14.5q27 -8 50 26z" />
    <glyph glyph-name="braceleft" unicode="{" horiz-adv-x="307" 
d="M596 675q2 -2 0 -8t-5 -5q-47 7 -85 -40q-18 -23 -71.5 -92t-97.5 -126t-48 -62q-33 -35 -94 -15q5 -2 13 -10.5t14 -25.5t-9 -38q-21 -26 -65 -82t-59 -76q-38 -52 -17 -93q2 -4 -1 -8t-9 -1q-16 8 -26.5 41.5t1.5 63.5q3 7 24.5 35t59.5 75t63 80q16 23 -15 38
q-9 5 -4 14v1q3 5 11 5q47 -6 74 19q20 19 125.5 159.5t114.5 148.5q26 18 60.5 16.5t45.5 -14.5z" />
    <glyph glyph-name="bar" unicode="|" horiz-adv-x="225" 
d="M449 772q7 10 19 10q15 0 25.5 -8.5t3.5 -19.5l-547 -864q-7 -10 -18 -10q-14 0 -23.5 9.5t-2.5 20.5z" />
    <glyph glyph-name="braceright" unicode="}" horiz-adv-x="454" 
d="M-3 10q-2 2 0 7.5t5 4.5q47 -7 85 41q18 23 71.5 92t97.5 126t48 62q32 33 94 14q-4 2 -9 7t-12.5 15t-7 23.5t10.5 28.5q25 32 68 86.5t56 72.5q38 51 17 93q-2 4 1 7.5t9 0.5q16 -7 26.5 -40.5t-1.5 -63.5q-3 -7 -25 -35t-59.5 -75t-62.5 -81q-15 -21 14 -37
q10 -6 4 -15q-3 -7 -10 -5q-51 3 -74 -20q-20 -19 -125.5 -159t-114.5 -148q-26 -18 -60.5 -16.5t-45.5 14.5z" />
    <glyph glyph-name="asciitilde" unicode="~" horiz-adv-x="350" 
d="M360 301q7 0 8.5 -8.5t-3.5 -16.5q-22 -38 -71 -46q-35 -6 -100 16t-73 22q-10 1 -20 -1t-16 -4t-13.5 -5.5t-8.5 -3.5q-2 -2 -4 0q-5 2 -2 7q9 19 34.5 37t62.5 12q32 -6 78 -20t63 -15q17 0 33 6.5t24 12.5z" />
    <glyph glyph-name="Agrave" unicode="&#xc0;" horiz-adv-x="1886" 
d="M2278 1041q14 0 32 -22q24 -28 33 -47q4 -9 -10 -18.5t-22 -0.5q-11 13 -26.5 27t-26 21.5t-12.5 6.5q-8 0 -7 6q0 6 13 17t26 10zM2102 866q74 64 107 73q32 8 42 -37q2 -9 -4.5 -15.5t-12.5 -4.5q-1 1 -6.5 -2.5t-20 -14.5t-39 -31t-63.5 -52q-9 -13 -62.5 -83.5
t-94.5 -127t-103.5 -151.5t-113.5 -186q60 2 79 1h11t12 -0.5t10 -1.5t9 -3t6.5 -6t4.5 -10q1 -9 -2 -26q-4 -33 -18 -37q-7 -2 -10 9q-1 1 -1 2q-1 4 -5.5 6.5t-12.5 4t-17 2t-23 0.5t-24.5 -0.5t-27.5 -1.5t-27 -1q-9 -7 -58.5 -115.5t-84.5 -220t-4 -117.5q12 -2 -3 -13
q-27 -18 -49 -6q-15 8 -18 30q-9 63 39.5 190.5t114.5 249.5q-221 -15 -364 -35q-174 -116 -537 -336q-55 -34 -109.5 -64t-119.5 -62t-125 -54t-118 -37t-109 -15t-88 17q-50 24 -53 87q-2 54 50 126.5t133.5 143t181 141.5t188.5 125t160 90q5 2 14 7q129 65 171 65
q29 0 33 -39q1 -10 -2 -14.5t-7.5 -4t-7.5 3.5q-15 17 -158.5 -63t-307 -190.5t-289 -229t-107.5 -169.5q10 -27 43.5 -34.5t86.5 6t112.5 35t136.5 60t143 72.5t147 82t132.5 78.5t116 71.5t82 52.5t44.5 28.5l-333 -35q-2 0 -8.5 -1t-11 -1.5t-10.5 0t-9.5 2.5t-4.5 7
q-4 12 0 30.5t11 19.5q3 1 7 -4t10 -4q38 5 225 23.5t216 23.5q321 212 625 458q56 45 110 89t85 70.5t56.5 48.5t28.5 24zM1665 229q112 193 290 437q-348 -286 -607 -468q201 26 317 31z" />
    <glyph glyph-name="Aacute" unicode="&#xc1;" horiz-adv-x="1886" 
d="M2303 1066q12 1 24 -10.5t12 -17.5q1 -6 -6 -6q-2 1 -11.5 -7t-24 -22t-25.5 -28q-7 -9 -20 1t-9 19q7 19 30 48q17 23 30 23zM2102 866q74 64 107 73q32 8 42 -37q2 -9 -4.5 -15.5t-12.5 -4.5q-1 1 -6.5 -2.5t-20 -14.5t-39 -31t-63.5 -52q-9 -13 -62.5 -83.5
t-94.5 -127t-103.5 -151.5t-113.5 -186q60 2 79 1h11t12 -0.5t10 -1.5t9 -3t6.5 -6t4.5 -10q1 -9 -2 -26q-4 -33 -18 -37q-7 -2 -10 9q-1 1 -1 2q-1 4 -5.5 6.5t-12.5 4t-17 2t-23 0.5t-24.5 -0.5t-27.5 -1.5t-27 -1q-9 -7 -58.5 -115.5t-84.5 -220t-4 -117.5q12 -2 -3 -13
q-27 -18 -49 -6q-15 8 -18 30q-9 63 39.5 190.5t114.5 249.5q-221 -15 -364 -35q-174 -116 -537 -336q-55 -34 -109.5 -64t-119.5 -62t-125 -54t-118 -37t-109 -15t-88 17q-50 24 -53 87q-2 54 50 126.5t133.5 143t181 141.5t188.5 125t160 90q5 2 14 7q129 65 171 65
q29 0 33 -39q1 -10 -2 -14.5t-7.5 -4t-7.5 3.5q-15 17 -158.5 -63t-307 -190.5t-289 -229t-107.5 -169.5q10 -27 43.5 -34.5t86.5 6t112.5 35t136.5 60t143 72.5t147 82t132.5 78.5t116 71.5t82 52.5t44.5 28.5l-333 -35q-2 0 -8.5 -1t-11 -1.5t-10.5 0t-9.5 2.5t-4.5 7
q-4 12 0 30.5t11 19.5q3 1 7 -4t10 -4q38 5 225 23.5t216 23.5q321 212 625 458q56 45 110 89t85 70.5t56.5 48.5t28.5 24zM1665 229q112 193 290 437q-348 -286 -607 -468q201 26 317 31z" />
    <glyph glyph-name="Acircumflex" unicode="&#xc2;" horiz-adv-x="1886" 
d="M2357 980q2 -8 -12.5 -17t-20.5 -1q-15 26 -29 42q-27 -22 -44 -42q-8 -9 -19.5 0.5t-5.5 17.5q10 17 40 43q20 20 34 20h12q14 0 25 -20q18 -27 20 -43zM2102 866q74 64 107 73q32 8 42 -37q2 -9 -4.5 -15.5t-12.5 -4.5q-1 1 -6.5 -2.5t-20 -14.5t-39 -31t-63.5 -52
q-9 -13 -62.5 -83.5t-94.5 -127t-103.5 -151.5t-113.5 -186q60 2 79 1h11t12 -0.5t10 -1.5t9 -3t6.5 -6t4.5 -10q1 -9 -2 -26q-4 -33 -18 -37q-7 -2 -10 9q-1 1 -1 2q-1 4 -5.5 6.5t-12.5 4t-17 2t-23 0.5t-24.5 -0.5t-27.5 -1.5t-27 -1q-9 -7 -58.5 -115.5t-84.5 -220
t-4 -117.5q12 -2 -3 -13q-27 -18 -49 -6q-15 8 -18 30q-9 63 39.5 190.5t114.5 249.5q-221 -15 -364 -35q-174 -116 -537 -336q-55 -34 -109.5 -64t-119.5 -62t-125 -54t-118 -37t-109 -15t-88 17q-50 24 -53 87q-2 54 50 126.5t133.5 143t181 141.5t188.5 125t160 90
q5 2 14 7q129 65 171 65q29 0 33 -39q1 -10 -2 -14.5t-7.5 -4t-7.5 3.5q-15 17 -158.5 -63t-307 -190.5t-289 -229t-107.5 -169.5q10 -27 43.5 -34.5t86.5 6t112.5 35t136.5 60t143 72.5t147 82t132.5 78.5t116 71.5t82 52.5t44.5 28.5l-333 -35q-2 0 -8.5 -1t-11 -1.5
t-10.5 0t-9.5 2.5t-4.5 7q-4 12 0 30.5t11 19.5q3 1 7 -4t10 -4q38 5 225 23.5t216 23.5q321 212 625 458q56 45 110 89t85 70.5t56.5 48.5t28.5 24zM1665 229q112 193 290 437q-348 -286 -607 -468q201 26 317 31z" />
    <glyph glyph-name="Atilde" unicode="&#xc3;" horiz-adv-x="1886" 
d="M2391 1009q11 0 3 -21q-15 -31 -48 -38q-23 -5 -66.5 13.5t-50.5 18.5q-14 1 -39 -12q0 -1 -1 -1t-1 1q-3 2 -2 6q4 9 10.5 18.5t22 18t33.5 4.5q21 -5 52.5 -17t42.5 -12t22 5t17 11zM2102 866q74 64 107 73q32 8 42 -37q2 -9 -4.5 -15.5t-12.5 -4.5q-1 1 -6.5 -2.5
t-20 -14.5t-39 -31t-63.5 -52q-9 -13 -62.5 -83.5t-94.5 -127t-103.5 -151.5t-113.5 -186q60 2 79 1h11t12 -0.5t10 -1.5t9 -3t6.5 -6t4.5 -10q1 -9 -2 -26q-4 -33 -18 -37q-7 -2 -10 9q-1 1 -1 2q-1 4 -5.5 6.5t-12.5 4t-17 2t-23 0.5t-24.5 -0.5t-27.5 -1.5t-27 -1
q-9 -7 -58.5 -115.5t-84.5 -220t-4 -117.5q12 -2 -3 -13q-27 -18 -49 -6q-15 8 -18 30q-9 63 39.5 190.5t114.5 249.5q-221 -15 -364 -35q-174 -116 -537 -336q-55 -34 -109.5 -64t-119.5 -62t-125 -54t-118 -37t-109 -15t-88 17q-50 24 -53 87q-2 54 50 126.5t133.5 143
t181 141.5t188.5 125t160 90q5 2 14 7q129 65 171 65q29 0 33 -39q1 -10 -2 -14.5t-7.5 -4t-7.5 3.5q-15 17 -158.5 -63t-307 -190.5t-289 -229t-107.5 -169.5q10 -27 43.5 -34.5t86.5 6t112.5 35t136.5 60t143 72.5t147 82t132.5 78.5t116 71.5t82 52.5t44.5 28.5l-333 -35
q-2 0 -8.5 -1t-11 -1.5t-10.5 0t-9.5 2.5t-4.5 7q-4 12 0 30.5t11 19.5q3 1 7 -4t10 -4q38 5 225 23.5t216 23.5q321 212 625 458q56 45 110 89t85 70.5t56.5 48.5t28.5 24zM1665 229q112 193 290 437q-348 -286 -607 -468q201 26 317 31z" />
    <glyph glyph-name="Adieresis" unicode="&#xc4;" horiz-adv-x="1886" 
d="M2197 1030q11 1 20.5 -10.5t10.5 -18.5q1 -3 -1.5 -5t-4.5 -1q-4 0 -24 -20q-10 -9 -26.5 3.5t-9.5 22.5q2 4 4 6q18 23 31 23zM2342 995q1 -3 -1.5 -5t-4.5 -1q-4 0 -24 -20q-10 -9 -26.5 3.5t-9.5 22.5q2 4 4 6q18 23 31 23q11 1 20.5 -10.5t10.5 -18.5zM2102 866
q74 64 107 73q32 8 42 -37q2 -9 -4.5 -15.5t-12.5 -4.5q-1 1 -6.5 -2.5t-20 -14.5t-39 -31t-63.5 -52q-9 -13 -62.5 -83.5t-94.5 -127t-103.5 -151.5t-113.5 -186q60 2 79 1h11t12 -0.5t10 -1.5t9 -3t6.5 -6t4.5 -10q1 -9 -2 -26q-4 -33 -18 -37q-7 -2 -10 9q-1 1 -1 2
q-1 4 -5.5 6.5t-12.5 4t-17 2t-23 0.5t-24.5 -0.5t-27.5 -1.5t-27 -1q-9 -7 -58.5 -115.5t-84.5 -220t-4 -117.5q12 -2 -3 -13q-27 -18 -49 -6q-15 8 -18 30q-9 63 39.5 190.5t114.5 249.5q-221 -15 -364 -35q-174 -116 -537 -336q-55 -34 -109.5 -64t-119.5 -62t-125 -54
t-118 -37t-109 -15t-88 17q-50 24 -53 87q-2 54 50 126.5t133.5 143t181 141.5t188.5 125t160 90q5 2 14 7q129 65 171 65q29 0 33 -39q1 -10 -2 -14.5t-7.5 -4t-7.5 3.5q-15 17 -158.5 -63t-307 -190.5t-289 -229t-107.5 -169.5q10 -27 43.5 -34.5t86.5 6t112.5 35
t136.5 60t143 72.5t147 82t132.5 78.5t116 71.5t82 52.5t44.5 28.5l-333 -35q-2 0 -8.5 -1t-11 -1.5t-10.5 0t-9.5 2.5t-4.5 7q-4 12 0 30.5t11 19.5q3 1 7 -4t10 -4q38 5 225 23.5t216 23.5q321 212 625 458q56 45 110 89t85 70.5t56.5 48.5t28.5 24zM1665 229
q112 193 290 437q-348 -286 -607 -468q201 26 317 31z" />
    <glyph glyph-name="Aring" unicode="&#xc5;" horiz-adv-x="1886" 
d="M2272 927q-23 0 -34.5 13t-5.5 33q14 51 71 51q22 0 34 -15.5t5 -35.5q-6 -19 -27 -32.5t-43 -13.5zM2296 1000q-13 0 -24 -8t-14 -19q-4 -8 1 -13.5t13 -5.5q9 -2 19.5 4.5t15.5 16.5q10 23 -11 25zM2102 866q74 64 107 73q32 8 42 -37q2 -9 -4.5 -15.5t-12.5 -4.5
q-1 1 -6.5 -2.5t-20 -14.5t-39 -31t-63.5 -52q-9 -13 -62.5 -83.5t-94.5 -127t-103.5 -151.5t-113.5 -186q60 2 79 1h11t12 -0.5t10 -1.5t9 -3t6.5 -6t4.5 -10q1 -9 -2 -26q-4 -33 -18 -37q-7 -2 -10 9q-1 1 -1 2q-1 4 -5.5 6.5t-12.5 4t-17 2t-23 0.5t-24.5 -0.5
t-27.5 -1.5t-27 -1q-9 -7 -58.5 -115.5t-84.5 -220t-4 -117.5q12 -2 -3 -13q-27 -18 -49 -6q-15 8 -18 30q-9 63 39.5 190.5t114.5 249.5q-221 -15 -364 -35q-174 -116 -537 -336q-55 -34 -109.5 -64t-119.5 -62t-125 -54t-118 -37t-109 -15t-88 17q-50 24 -53 87
q-2 54 50 126.5t133.5 143t181 141.5t188.5 125t160 90q5 2 14 7q129 65 171 65q29 0 33 -39q1 -10 -2 -14.5t-7.5 -4t-7.5 3.5q-15 17 -158.5 -63t-307 -190.5t-289 -229t-107.5 -169.5q10 -27 43.5 -34.5t86.5 6t112.5 35t136.5 60t143 72.5t147 82t132.5 78.5t116 71.5
t82 52.5t44.5 28.5l-333 -35q-2 0 -8.5 -1t-11 -1.5t-10.5 0t-9.5 2.5t-4.5 7q-4 12 0 30.5t11 19.5q3 1 7 -4t10 -4q38 5 225 23.5t216 23.5q321 212 625 458q56 45 110 89t85 70.5t56.5 48.5t28.5 24zM1665 229q112 193 290 437q-348 -286 -607 -468q201 26 317 31z" />
    <glyph glyph-name="AE" unicode="&#xc6;" horiz-adv-x="2950" 
d="M2829 563q70 54 102 109.5t25 99.5t-37 78.5t-83 50.5t-115 11q-158 -13 -416 -132q-204 -94 -300 -186t6 -161q70 -47 263 -93q32 5 47 0q28 -6 28 -51q0 -12 -4 -16t-8.5 -2.5t-7.5 6.5q-124 17 -352 -77.5t-369 -209.5q-49 -120 -65 -186q57 -33 165 -33
q351 0 1031 356q17 8 24 12q148 77 195 109q9 6 11 12t3 7q3 2 10 -4t11 -16q14 -30 -51 -70q-192 -114 -307 -173q-431 -220 -767 -278q-228 -38 -334 18q2 -22 14 -25q12 -2 -3 -13q-27 -18 -49 -6q-15 8 -18 30t2 59l-9 15q-18 34 -19 74q3 84 122 175q28 61 58 117
q-221 -15 -364 -35q-174 -116 -537 -336q-55 -34 -109.5 -64t-119.5 -62t-125 -54t-118 -37t-109 -15t-88 17q-50 24 -53 87q-2 54 50 126.5t133.5 143t181 141.5t188.5 125t160 90q5 2 14 7q129 65 171 65q29 0 33 -39q1 -10 -2 -14.5t-7.5 -4t-7.5 3.5q-15 17 -158.5 -63
t-307 -190.5t-289 -229t-107.5 -169.5q10 -27 43.5 -34.5t86.5 6t112.5 35t136.5 60t143 72.5t147 82t132.5 78.5t116 71.5t82 52.5t44.5 28.5l-333 -35q-2 0 -8.5 -1t-11 -1.5t-10.5 0t-9.5 2.5t-4.5 7q-4 12 0 30.5t11 19.5q3 1 7 -4t10 -4q38 5 225 23.5t216 23.5
q321 212 625 458q56 45 110 89t85 70.5t56.5 48.5t28.5 24q74 64 107 73q32 8 42 -37q2 -9 -4.5 -15.5t-12.5 -4.5q-1 1 -6.5 -2.5t-20 -14.5t-39 -31t-63.5 -52l-36 -48q115 74 265 133.5t226 77.5q135 33 243.5 21t154.5 -67q68 -81 29 -183l-3 -9q3 4 66.5 85.5
t101.5 128.5q6 21 30 13q22 -8 24 -28q0 -7 -3 -14q-24 -35 -77.5 -104.5t-97 -124t-43.5 -55.5q-4 -5 -17.5 -21.5t-20.5 -25t-18.5 -20.5t-22 -18.5t-20.5 -8.5q-15 -5 -31.5 7t-24.5 26q-9 13 -1 16zM1348 198q201 26 317 31q112 193 290 437q-348 -286 -607 -468z
M2172 316q-2 1 -42.5 9t-88.5 24t-82 39q-20 14 -31.5 38.5t-14 41t-3.5 43.5v7q-98 -141 -179 -284q60 2 79 1h11t12 -0.5t10 -1.5t9 -3t6.5 -6t4.5 -10q181 76 309 102zM1695 172q-5 -4 -31 -58q62 36 113 61q-14 0 -45.5 -1.5t-36.5 -1.5z" />
    <glyph glyph-name="Ccedilla" unicode="&#xc7;" horiz-adv-x="1561" 
d="M1570 189q14 -33 -47 -67q-124 -78 -262.5 -153t-306.5 -151.5t-335 -121t-293 -39.5q-4 -1 -9 0q-16 4 -30.5 -5t-11.5 -24q1 -7 11.5 -20.5t19 -25t8 -26.5t-16.5 -27q-12 -9 -32.5 -9.5t-36.5 8.5q-30 21 -21 49q2 10 14.5 8t10.5 -12q-3 -9 14 -17q20 -11 23 5
q2 12 -12 38q-13 17 -15.5 28t8.5 34l4 4q-10 2 -36 8q-69 19 -112 56.5t-58 87.5t-10.5 106t27.5 118q55 146 190 295t283 257q278 202 574 276q129 33 234 21.5t153 -65.5q67 -77 30 -182q-12 -33 -37.5 -67.5t-77 -79.5t-123.5 -91t-183 -100.5t-249 -107.5
q-83 -30 -128 -15q-10 3 -18 21t-8 31q-2 14 6 13q4 0 6 -4q6 -12 62 1.5t156.5 54.5t212.5 100q71 38 135 80t120.5 89.5t84.5 95t16 86.5q-32 105 -235 88q-172 -16 -370.5 -115.5t-374.5 -233.5q-135 -105 -235 -218t-150.5 -212.5t-48.5 -182.5t64 -129q41 -30 133 -34
t236.5 26t307.5 94q144 57 394.5 185.5t309.5 172.5q9 5 11 11l1 6q2 2 6 -0.5t9 -7.5t8 -11z" />
    <glyph glyph-name="Egrave" unicode="&#xc8;" horiz-adv-x="1531" 
d="M1346 1066q14 0 32 -22q24 -28 33 -47q4 -9 -10 -18.5t-22 -0.5q-11 13 -26.5 27t-26 21.5t-12.5 6.5q-8 0 -7 6q0 6 13 17t26 10zM1380 497q-9 13 -1 16q70 54 102 109.5t25 99.5t-37 78.5t-83 50.5t-115 11q-158 -13 -416 -132q-204 -94 -300 -186t6 -161
q70 -47 263 -93q32 5 47 0q28 -6 28 -51q0 -12 -4 -16t-8.5 -2.5t-7.5 6.5q-68 9 -178 -19t-221.5 -79.5t-211 -111t-158.5 -121t-51 -102.5q7 -33 63 -53t136 -20q351 0 1031 356l9 4.5t7.5 3.5t7.5 4q148 77 195 109q9 6 11 12t3 7q3 2 10 -4t11 -16q14 -30 -51 -70
q-192 -114 -307 -173q-431 -220 -767 -278q-54 -9 -104.5 -12.5t-112.5 -0.5t-110 26t-70 65q-18 34 -19 74q2 70 87.5 146.5t206 135t235 100t191.5 56.5q-2 1 -42.5 9t-88.5 24t-82 39q-20 14 -31.5 38.5t-14 41t-3.5 43.5q-4 87 51 140q72 70 207.5 139t235 105t156.5 50
q135 33 243.5 21t154.5 -67q68 -81 29 -183l-3 -9q3 4 66.5 85.5t101.5 128.5q6 21 30 13q22 -8 24 -28q0 -7 -3 -14q-24 -35 -77.5 -104.5t-97 -124t-43.5 -55.5q-4 -5 -17.5 -21.5t-20.5 -25t-18.5 -20.5t-22 -18.5t-20.5 -8.5q-15 -5 -31.5 7t-24.5 26z" />
    <glyph glyph-name="Eacute" unicode="&#xc9;" horiz-adv-x="1531" 
d="M1371 1091q12 1 24 -10.5t12 -17.5q1 -6 -6 -6q-2 1 -11.5 -7t-24 -22t-25.5 -28q-7 -9 -20 1t-9 19q7 19 30 48q17 23 30 23zM1380 497q-9 13 -1 16q70 54 102 109.5t25 99.5t-37 78.5t-83 50.5t-115 11q-158 -13 -416 -132q-204 -94 -300 -186t6 -161q70 -47 263 -93
q32 5 47 0q28 -6 28 -51q0 -12 -4 -16t-8.5 -2.5t-7.5 6.5q-68 9 -178 -19t-221.5 -79.5t-211 -111t-158.5 -121t-51 -102.5q7 -33 63 -53t136 -20q351 0 1031 356l9 4.5t7.5 3.5t7.5 4q148 77 195 109q9 6 11 12t3 7q3 2 10 -4t11 -16q14 -30 -51 -70q-192 -114 -307 -173
q-431 -220 -767 -278q-54 -9 -104.5 -12.5t-112.5 -0.5t-110 26t-70 65q-18 34 -19 74q2 70 87.5 146.5t206 135t235 100t191.5 56.5q-2 1 -42.5 9t-88.5 24t-82 39q-20 14 -31.5 38.5t-14 41t-3.5 43.5q-4 87 51 140q72 70 207.5 139t235 105t156.5 50q135 33 243.5 21
t154.5 -67q68 -81 29 -183l-3 -9q3 4 66.5 85.5t101.5 128.5q6 21 30 13q22 -8 24 -28q0 -7 -3 -14q-24 -35 -77.5 -104.5t-97 -124t-43.5 -55.5q-4 -5 -17.5 -21.5t-20.5 -25t-18.5 -20.5t-22 -18.5t-20.5 -8.5q-15 -5 -31.5 7t-24.5 26z" />
    <glyph glyph-name="Ecircumflex" unicode="&#xca;" horiz-adv-x="1531" 
d="M1425 1005q2 -8 -12.5 -17t-20.5 -1q-15 26 -29 42q-27 -22 -44 -42q-8 -9 -19.5 0.5t-5.5 17.5q10 17 40 43q20 20 34 20h12q14 0 25 -20q18 -27 20 -43zM1380 497q-9 13 -1 16q70 54 102 109.5t25 99.5t-37 78.5t-83 50.5t-115 11q-158 -13 -416 -132
q-204 -94 -300 -186t6 -161q70 -47 263 -93q32 5 47 0q28 -6 28 -51q0 -12 -4 -16t-8.5 -2.5t-7.5 6.5q-68 9 -178 -19t-221.5 -79.5t-211 -111t-158.5 -121t-51 -102.5q7 -33 63 -53t136 -20q351 0 1031 356l9 4.5t7.5 3.5t7.5 4q148 77 195 109q9 6 11 12t3 7q3 2 10 -4
t11 -16q14 -30 -51 -70q-192 -114 -307 -173q-431 -220 -767 -278q-54 -9 -104.5 -12.5t-112.5 -0.5t-110 26t-70 65q-18 34 -19 74q2 70 87.5 146.5t206 135t235 100t191.5 56.5q-2 1 -42.5 9t-88.5 24t-82 39q-20 14 -31.5 38.5t-14 41t-3.5 43.5q-4 87 51 140
q72 70 207.5 139t235 105t156.5 50q135 33 243.5 21t154.5 -67q68 -81 29 -183l-3 -9q3 4 66.5 85.5t101.5 128.5q6 21 30 13q22 -8 24 -28q0 -7 -3 -14q-24 -35 -77.5 -104.5t-97 -124t-43.5 -55.5q-4 -5 -17.5 -21.5t-20.5 -25t-18.5 -20.5t-22 -18.5t-20.5 -8.5
q-15 -5 -31.5 7t-24.5 26z" />
    <glyph glyph-name="Edieresis" unicode="&#xcb;" horiz-adv-x="1531" 
d="M1287 1029q11 1 20.5 -10.5t10.5 -18.5q1 -3 -1.5 -5t-4.5 -1q-4 0 -24 -20q-10 -9 -26.5 3.5t-9.5 22.5q2 4 4 6q18 23 31 23zM1432 994q1 -3 -1.5 -5t-4.5 -1q-4 0 -24 -20q-10 -9 -26.5 3.5t-9.5 22.5q2 4 4 6q18 23 31 23q11 1 20.5 -10.5t10.5 -18.5zM1380 497
q-9 13 -1 16q70 54 102 109.5t25 99.5t-37 78.5t-83 50.5t-115 11q-158 -13 -416 -132q-204 -94 -300 -186t6 -161q70 -47 263 -93q32 5 47 0q28 -6 28 -51q0 -12 -4 -16t-8.5 -2.5t-7.5 6.5q-68 9 -178 -19t-221.5 -79.5t-211 -111t-158.5 -121t-51 -102.5q7 -33 63 -53
t136 -20q351 0 1031 356l9 4.5t7.5 3.5t7.5 4q148 77 195 109q9 6 11 12t3 7q3 2 10 -4t11 -16q14 -30 -51 -70q-192 -114 -307 -173q-431 -220 -767 -278q-54 -9 -104.5 -12.5t-112.5 -0.5t-110 26t-70 65q-18 34 -19 74q2 70 87.5 146.5t206 135t235 100t191.5 56.5
q-2 1 -42.5 9t-88.5 24t-82 39q-20 14 -31.5 38.5t-14 41t-3.5 43.5q-4 87 51 140q72 70 207.5 139t235 105t156.5 50q135 33 243.5 21t154.5 -67q68 -81 29 -183l-3 -9q3 4 66.5 85.5t101.5 128.5q6 21 30 13q22 -8 24 -28q0 -7 -3 -14q-24 -35 -77.5 -104.5t-97 -124
t-43.5 -55.5q-4 -5 -17.5 -21.5t-20.5 -25t-18.5 -20.5t-22 -18.5t-20.5 -8.5q-15 -5 -31.5 7t-24.5 26z" />
    <glyph glyph-name="Igrave" unicode="&#xcc;" horiz-adv-x="1935" 
d="M2184 1066q14 0 32 -22q24 -28 33 -47q4 -9 -10 -18.5t-22 -0.5q-11 13 -26.5 27t-26 21.5t-12.5 6.5q-8 0 -7 6q0 6 13 17t26 10zM2018 923q44 -5 75 -29.5t42 -55.5t15.5 -63.5t-4.5 -55.5q-9 -35 -41.5 -95.5t-80.5 -132.5t-86.5 -127t-84.5 -119t-50 -69
q-50 -70 -129.5 -179t-133.5 -184.5t-83 -120.5q-31 -53 -48 -65q-5 -4 -23 1t-20 5q-9 4 -2 26q4 13 12 37t10.5 32.5t6.5 27t0 20.5q-9 20 14 22q23 0 35 -5q8 11 107 144t215 293.5t197 281.5q77 117 113.5 186t32.5 102q-22 117 -369 71t-746.5 -152.5t-655.5 -206.5
q-53 -20 -102 -46.5t-75.5 -48.5t-19.5 -31q-3 -11 -11 -14t-22 10q-57 71 18 109q128 66 312.5 132.5t348.5 113.5q516 153 1046 190q91 8 187 -4z" />
    <glyph glyph-name="Iacute" unicode="&#xcd;" horiz-adv-x="1935" 
d="M2209 1091q12 1 24 -10.5t12 -17.5q1 -6 -6 -6q-2 1 -11.5 -7t-24 -22t-25.5 -28q-7 -9 -20 1t-9 19q7 19 30 48q17 23 30 23zM2018 923q44 -5 75 -29.5t42 -55.5t15.5 -63.5t-4.5 -55.5q-9 -35 -41.5 -95.5t-80.5 -132.5t-86.5 -127t-84.5 -119t-50 -69
q-50 -70 -129.5 -179t-133.5 -184.5t-83 -120.5q-31 -53 -48 -65q-5 -4 -23 1t-20 5q-9 4 -2 26q4 13 12 37t10.5 32.5t6.5 27t0 20.5q-9 20 14 22q23 0 35 -5q8 11 107 144t215 293.5t197 281.5q77 117 113.5 186t32.5 102q-22 117 -369 71t-746.5 -152.5t-655.5 -206.5
q-53 -20 -102 -46.5t-75.5 -48.5t-19.5 -31q-3 -11 -11 -14t-22 10q-57 71 18 109q128 66 312.5 132.5t348.5 113.5q516 153 1046 190q91 8 187 -4z" />
    <glyph glyph-name="Icircumflex" unicode="&#xce;" horiz-adv-x="1935" 
d="M1667 1056q12 1 24 -10.5t12 -17.5q1 -6 -6 -6q-2 1 -12 -7t-24 -22t-25 -28q-7 -9 -20 1t-9 19q7 19 30 48q17 23 30 23zM1724 1028q0 6 12 17.5t24 10.5q13 0 30 -23q23 -29 30 -48q4 -9 -9 -19t-20 -1q-11 14 -25 28t-24 22t-12 7q-7 0 -6 6zM2018 923q44 -5 75 -29.5
t42 -55.5t15.5 -63.5t-4.5 -55.5q-9 -35 -41.5 -95.5t-80.5 -132.5t-86.5 -127t-84.5 -119t-50 -69q-50 -70 -129.5 -179t-133.5 -184.5t-83 -120.5q-31 -53 -48 -65q-5 -4 -23 1t-20 5q-9 4 -2 26q4 13 12 37t10.5 32.5t6.5 27t0 20.5q-9 20 14 22q23 0 35 -5q8 11 107 144
t215 293.5t197 281.5q77 117 113.5 186t32.5 102q-22 117 -369 71t-746.5 -152.5t-655.5 -206.5q-53 -20 -102 -46.5t-75.5 -48.5t-19.5 -31q-3 -11 -11 -14t-22 10q-57 71 18 109q128 66 312.5 132.5t348.5 113.5q516 153 1046 190q91 8 187 -4z" />
    <glyph glyph-name="Idieresis" unicode="&#xcf;" horiz-adv-x="1935" 
d="M1688 1022q11 1 20.5 -10.5t10.5 -18.5q1 -3 -1.5 -5t-4.5 -1q-4 0 -24 -20q-10 -9 -26.5 3.5t-9.5 22.5q2 4 4 6q18 23 31 23zM1833 987q1 -3 -1.5 -5t-4.5 -1q-4 0 -24 -20q-10 -9 -26.5 3.5t-9.5 22.5q2 4 4 6q18 23 31 23q11 1 20.5 -10.5t10.5 -18.5zM2018 923
q44 -5 75 -29.5t42 -55.5t15.5 -63.5t-4.5 -55.5q-9 -35 -41.5 -95.5t-80.5 -132.5t-86.5 -127t-84.5 -119t-50 -69q-50 -70 -129.5 -179t-133.5 -184.5t-83 -120.5q-31 -53 -48 -65q-5 -4 -23 1t-20 5q-9 4 -2 26q4 13 12 37t10.5 32.5t6.5 27t0 20.5q-9 20 14 22
q23 0 35 -5q8 11 107 144t215 293.5t197 281.5q77 117 113.5 186t32.5 102q-22 117 -369 71t-746.5 -152.5t-655.5 -206.5q-53 -20 -102 -46.5t-75.5 -48.5t-19.5 -31q-3 -11 -11 -14t-22 10q-57 71 18 109q128 66 312.5 132.5t348.5 113.5q516 153 1046 190q91 8 187 -4z
" />
    <glyph glyph-name="Eth" unicode="&#xd0;" horiz-adv-x="1950" 
d="M2109 791q48 -67 37.5 -157t-80.5 -185q-115 -153 -346.5 -318t-538.5 -293q-96 -40 -211.5 -73.5t-233.5 -55.5t-218.5 -16.5t-148.5 44.5q-42 33 -43 90q1 44 42 93t110.5 95t148 85.5t168.5 75.5l101 171l6 10h-52q-11 0 -11 8v35q1 6 13 6h80q127 205 267 414
q-252 -50 -525.5 -132.5t-460.5 -158.5q-49 -20 -92.5 -44.5t-66.5 -45t-16 -29.5q-2 -11 -9.5 -14t-20.5 9q-62 67 7 104q117 63 292.5 127.5t316.5 101.5q383 102 619 146q64 88 96 95q39 4 53 -17q7 -11 -4 -19q-12 0 -46 -42q113 20 229 27t249 -8.5t213 -61.5
q49 -29 76 -67zM1058 405q7 -1 9 -16q0 -34 -14 -32h-75l-84 -143q92 33 151 48q133 36 177 35q12 -1 22 -3q29 -6 29 -49q0 -11 -3.5 -15t-8 -2t-7.5 6q-12 18 -135 -16t-278 -97q-78 -137 -133 -241q-30 -55 -40 -64q-7 -6 -43 2q-8 2 -5 25q2 12 6 29.5t6.5 28.5t4 23
t1.5 21t-3 15q-8 20 14 22q24 2 33 -3q21 40 54 97q-169 -77 -272.5 -148.5t-90.5 -119.5q15 -55 125.5 -64.5t286 30.5t365.5 121q221 95 463 251q86 55 165 116t158.5 135t123.5 149t36 134q-8 58 -51.5 99.5t-111.5 61t-148.5 28.5t-171 5t-169.5 -13.5t-152 -23.5
q-126 -171 -285 -432h51z" />
    <glyph glyph-name="Ntilde" unicode="&#xd1;" horiz-adv-x="2781" 
d="M2610 1053q7 0 8.5 -8.5t-3.5 -16.5q-22 -38 -71 -46q-35 -6 -100 16t-73 22q-10 1 -20 -1t-16 -4t-13.5 -5.5t-8.5 -3.5q-2 -2 -4 0q-5 2 -2 7q9 19 34.5 37t62.5 12q32 -6 78 -20t63 -15q17 0 33 6.5t24 12.5zM2828 772q65 -12 85 -62.5t3 -104.5q-22 -68 -142 -250.5
t-241 -355t-136 -204.5q11 -7 18 -27q8 -19 -15 -21q-7 -1 -16 -5.5t-20.5 -12.5t-20.5 -15t-25 -20t-25 -20q-19 -16 -26 -9q-1 1 -9 8t-12 13.5t-2 11.5q7 23 47 67q19 23 94.5 132.5t180.5 263.5t160 233q166 236 157 292q-10 59 -118 35q-144 -32 -350 -181
q-27 -19 -53 -39q-133 -95 -374.5 -307t-422 -383.5t-178.5 -181.5q1 -12 -24 -3q-30 11 -32 29q-3 19 28 64q6 7 130.5 164.5t259.5 332.5t222 295q165 228 162 287q-6 130 -495 55q-409 -63 -945 -226q-208 -63 -347 -116q-55 -21 -105.5 -47.5t-78 -48t-21.5 -30.5
q-3 -11 -11 -14t-21 9q-54 70 23 109q249 125 674 246q521 153 1057 190q91 8 187 -4q44 -5 73.5 -29.5t38.5 -55.5t11.5 -63.5t-7.5 -55.5q-11 -35 -46.5 -95t-87.5 -132t-93 -127t-91 -119t-54 -69q-43 -57 -127.5 -165t-93.5 -120q283 274 501.5 460t363 277.5
t235.5 123.5t155 21z" />
    <glyph glyph-name="Ograve" unicode="&#xd2;" horiz-adv-x="1861" 
d="M1657 1066q14 0 32 -22q24 -28 33 -47q4 -9 -10 -18.5t-22 -0.5q-11 13 -26.5 27t-26 21.5t-12.5 6.5q-8 0 -7 6q0 6 13 17t26 10zM1876 712q74 -136 -16 -312.5t-303 -333.5q-219 -163 -545 -282.5t-560 -118.5q-143 1 -252 53.5t-143 144.5q-16 40 -20 85.5t12.5 112
t58.5 133.5q99 154 296 298t415 249q8 3 38 16.5t44 19t37.5 14t40.5 11.5t31 3q30 -1 40 -38q4 -13 -3 -16t-13 2q-28 23 -271 -112q-220 -118 -387 -255q-67 -54 -137 -131q-131 -149 -148 -268t86.5 -184t313.5 -55q147 6 325.5 56.5t325.5 115.5q148 62 276 140
t218.5 160t149.5 168t69.5 163t-22.5 146q-45 83 -170 126t-297 47q-196 4 -468 -68.5t-529 -196.5q-50 -24 -93 -53.5t-65 -53t-13 -31.5q0 -11 -7 -14.5t-23 7.5q-73 65 -6 109q135 87 237 129q302 125 488.5 167.5t406.5 59.5q227 15 373.5 -40.5t208.5 -172.5z" />
    <glyph glyph-name="Oacute" unicode="&#xd3;" horiz-adv-x="1861" 
d="M1682 1091q12 1 24 -10.5t12 -17.5q1 -6 -6 -6q-2 1 -11.5 -7t-24 -22t-25.5 -28q-7 -9 -20 1t-9 19q7 19 30 48q17 23 30 23zM1876 712q74 -136 -16 -312.5t-303 -333.5q-219 -163 -545 -282.5t-560 -118.5q-143 1 -252 53.5t-143 144.5q-16 40 -20 85.5t12.5 112
t58.5 133.5q99 154 296 298t415 249q8 3 38 16.5t44 19t37.5 14t40.5 11.5t31 3q30 -1 40 -38q4 -13 -3 -16t-13 2q-28 23 -271 -112q-220 -118 -387 -255q-67 -54 -137 -131q-131 -149 -148 -268t86.5 -184t313.5 -55q147 6 325.5 56.5t325.5 115.5q148 62 276 140
t218.5 160t149.5 168t69.5 163t-22.5 146q-45 83 -170 126t-297 47q-196 4 -468 -68.5t-529 -196.5q-50 -24 -93 -53.5t-65 -53t-13 -31.5q0 -11 -7 -14.5t-23 7.5q-73 65 -6 109q135 87 237 129q302 125 488.5 167.5t406.5 59.5q227 15 373.5 -40.5t208.5 -172.5z" />
    <glyph glyph-name="Ocircumflex" unicode="&#xd4;" horiz-adv-x="1861" 
d="M1736 1005q2 -8 -12.5 -17t-20.5 -1q-15 26 -29 42q-27 -22 -44 -42q-8 -9 -19.5 0.5t-5.5 17.5q10 17 40 43q20 20 34 20h12q14 0 25 -20q18 -27 20 -43zM1876 712q74 -136 -16 -312.5t-303 -333.5q-219 -163 -545 -282.5t-560 -118.5q-143 1 -252 53.5t-143 144.5
q-16 40 -20 85.5t12.5 112t58.5 133.5q99 154 296 298t415 249q8 3 38 16.5t44 19t37.5 14t40.5 11.5t31 3q30 -1 40 -38q4 -13 -3 -16t-13 2q-28 23 -271 -112q-220 -118 -387 -255q-67 -54 -137 -131q-131 -149 -148 -268t86.5 -184t313.5 -55q147 6 325.5 56.5
t325.5 115.5q148 62 276 140t218.5 160t149.5 168t69.5 163t-22.5 146q-45 83 -170 126t-297 47q-196 4 -468 -68.5t-529 -196.5q-50 -24 -93 -53.5t-65 -53t-13 -31.5q0 -11 -7 -14.5t-23 7.5q-73 65 -6 109q135 87 237 129q302 125 488.5 167.5t406.5 59.5
q227 15 373.5 -40.5t208.5 -172.5z" />
    <glyph glyph-name="Otilde" unicode="&#xd5;" horiz-adv-x="1861" 
d="M1770 1034q11 0 3 -21q-15 -31 -48 -38q-23 -5 -66.5 13.5t-50.5 18.5q-14 1 -39 -12q0 -1 -1 -1t-1 1q-3 2 -2 6q4 9 10.5 18.5t22 18t33.5 4.5q21 -5 52.5 -17t42.5 -12t22 5t16 10zM1876 712q74 -136 -16 -312.5t-303 -333.5q-219 -163 -545 -282.5t-560 -118.5
q-143 1 -252 53.5t-143 144.5q-16 40 -20 85.5t12.5 112t58.5 133.5q99 154 296 298t415 249q8 3 38 16.5t44 19t37.5 14t40.5 11.5t31 3q30 -1 40 -38q4 -13 -3 -16t-13 2q-28 23 -271 -112q-220 -118 -387 -255q-67 -54 -137 -131q-131 -149 -148 -268t86.5 -184
t313.5 -55q147 6 325.5 56.5t325.5 115.5q148 62 276 140t218.5 160t149.5 168t69.5 163t-22.5 146q-45 83 -170 126t-297 47q-196 4 -468 -68.5t-529 -196.5q-50 -24 -93 -53.5t-65 -53t-13 -31.5q0 -11 -7 -14.5t-23 7.5q-73 65 -6 109q135 87 237 129
q302 125 488.5 167.5t406.5 59.5q227 15 373.5 -40.5t208.5 -172.5z" />
    <glyph glyph-name="Odieresis" unicode="&#xd6;" horiz-adv-x="1861" 
d="M1345 1032q11 1 20.5 -10.5t10.5 -18.5q1 -3 -1.5 -5t-4.5 -1q-4 0 -24 -20q-10 -9 -26.5 3.5t-9.5 22.5q2 4 4 6q18 23 31 23zM1490 997q1 -3 -1.5 -5t-4.5 -1q-4 0 -24 -20q-10 -9 -26.5 3.5t-9.5 22.5q2 4 4 6q18 23 31 23q11 1 20.5 -10.5t10.5 -18.5zM1876 712
q74 -136 -16 -312.5t-303 -333.5q-219 -163 -545 -282.5t-560 -118.5q-143 1 -252 53.5t-143 144.5q-16 40 -20 85.5t12.5 112t58.5 133.5q99 154 296 298t415 249q8 3 38 16.5t44 19t37.5 14t40.5 11.5t31 3q30 -1 40 -38q4 -13 -3 -16t-13 2q-28 23 -271 -112
q-220 -118 -387 -255q-67 -54 -137 -131q-131 -149 -148 -268t86.5 -184t313.5 -55q147 6 325.5 56.5t325.5 115.5q148 62 276 140t218.5 160t149.5 168t69.5 163t-22.5 146q-45 83 -170 126t-297 47q-196 4 -468 -68.5t-529 -196.5q-50 -24 -93 -53.5t-65 -53t-13 -31.5
q0 -11 -7 -14.5t-23 7.5q-73 65 -6 109q135 87 237 129q302 125 488.5 167.5t406.5 59.5q227 15 373.5 -40.5t208.5 -172.5z" />
    <glyph glyph-name="multiply" unicode="&#xd7;" horiz-adv-x="375" 
d="M214 246q60 -62 66 -67q6 -8 -6 -20q-14 -14 -20 -15t-10 6l-63 62l-63 -62q-4 -7 -10 -6t-20 15q-12 12 -6 20l66 67l-5 5l-59 60q-8 9 -2 15q8 9 22 21q4 4 15 -5l62 -63l62 63q10 9 15 5q14 -12 22 -21q6 -7 -2 -15l-59 -60z" />
    <glyph glyph-name="Oslash" unicode="&#xd8;" horiz-adv-x="1861" 
d="M1876 712q74 -136 -16 -312.5t-303 -333.5q-219 -163 -545 -282.5t-560 -118.5q-143 1 -252 53.5t-143 144.5q-16 40 -20 85.5t12.5 112t58.5 133.5q99 154 296 298t415 249q8 3 38 16.5t44 19t37.5 14t40.5 11.5t31 3q30 -1 40 -38q4 -13 -3 -16t-13 2q-28 23 -271 -112
q-220 -118 -387 -255q-67 -54 -137 -131q-131 -149 -148 -268t86.5 -184t313.5 -55q147 6 325.5 56.5t325.5 115.5q148 62 276 140t218.5 160t149.5 168t69.5 163t-22.5 146q-42 78 -153.5 120t-267.5 51q-160 -207 -605 -869q-8 -12 -16 -13t-13 2t-21 16t-6 27
q9 13 260.5 378t322.5 461q-195 -1 -456 -73.5t-509 -191.5q-50 -24 -93 -53.5t-65 -53t-13 -31.5q0 -11 -7 -14.5t-23 7.5q-73 65 -6 109q135 87 237 129q302 125 488.5 167.5t406.5 59.5q44 3 84 3q39 50 56 50q16 -1 30.5 -16t15.5 -23q0 -4 -2 -6t-4 -1.5t-3 1.5
q-2 1 -11 -7q314 -21 416 -214z" />
    <glyph glyph-name="Ugrave" unicode="&#xd9;" horiz-adv-x="2820" 
d="M2681 1066q14 0 32 -22q24 -28 33 -47q4 -9 -10 -18.5t-22 -0.5q-11 13 -26.5 27t-26 21.5t-12.5 6.5q-8 0 -7 6q0 6 13 17t26 10zM3093 865q3 -19 -32 -64q-84 -115 -307.5 -449.5t-299.5 -443.5q22 8 34 -19q4 -12 -1 -16.5t-16 -6.5q-8 -2 -20.5 -10.5t-22.5 -17
t-30.5 -26t-31.5 -27.5q-21 -17 -27 -11q-24 20 -20 32q6 21 46 70q51 74 491 737q-140 -135 -315 -296t-265 -237q-466 -398 -656 -364q-56 11 -66 68q-10 55 20 134.5t92 173.5t122.5 174t139.5 180t113 148q114 149 116 205q3 129 -490 54q-415 -63 -968 -227
q-207 -62 -347 -114q-57 -22 -109 -48t-81 -47.5t-23 -30.5q-4 -11 -11.5 -14t-20.5 9q-51 69 30 109q259 125 690 246q531 153 1069 190q93 8 187 -4q93 -11 127 -72t-10 -135q-38 -67 -335 -453q-131 -170 -206 -301t-51 -171q17 -25 60 -20.5t109 37t146.5 85t172 121
t185.5 147t188 162.5q187 167 371.5 347.5t199.5 221.5q5 7 17 6t24.5 -11t11.5 -21z" />
    <glyph glyph-name="Uacute" unicode="&#xda;" horiz-adv-x="2820" 
d="M2706 1091q12 1 24 -10.5t12 -17.5q1 -6 -6 -6q-2 1 -11.5 -7t-24 -22t-25.5 -28q-7 -9 -20 1t-9 19q7 19 30 48q17 23 30 23zM3093 865q3 -19 -32 -64q-84 -115 -307.5 -449.5t-299.5 -443.5q22 8 34 -19q4 -12 -1 -16.5t-16 -6.5q-8 -2 -20.5 -10.5t-22.5 -17
t-30.5 -26t-31.5 -27.5q-21 -17 -27 -11q-24 20 -20 32q6 21 46 70q51 74 491 737q-140 -135 -315 -296t-265 -237q-466 -398 -656 -364q-56 11 -66 68q-10 55 20 134.5t92 173.5t122.5 174t139.5 180t113 148q114 149 116 205q3 129 -490 54q-415 -63 -968 -227
q-207 -62 -347 -114q-57 -22 -109 -48t-81 -47.5t-23 -30.5q-4 -11 -11.5 -14t-20.5 9q-51 69 30 109q259 125 690 246q531 153 1069 190q93 8 187 -4q93 -11 127 -72t-10 -135q-38 -67 -335 -453q-131 -170 -206 -301t-51 -171q17 -25 60 -20.5t109 37t146.5 85t172 121
t185.5 147t188 162.5q187 167 371.5 347.5t199.5 221.5q5 7 17 6t24.5 -11t11.5 -21z" />
    <glyph glyph-name="Ucircumflex" unicode="&#xdb;" horiz-adv-x="2820" 
d="M2524 1055q12 1 24 -10.5t12 -17.5q1 -6 -6 -6q-2 1 -12 -7t-24 -22t-25 -28q-7 -9 -20 1t-9 19q7 19 30 48q17 23 30 23zM2581 1027q0 6 12 17.5t24 10.5q13 0 30 -23q23 -29 30 -48q4 -9 -9 -19t-20 -1q-11 14 -25 28t-24 22t-12 7q-7 0 -6 6zM3093 865q3 -19 -32 -64
q-84 -115 -307.5 -449.5t-299.5 -443.5q22 8 34 -19q4 -12 -1 -16.5t-16 -6.5q-8 -2 -20.5 -10.5t-22.5 -17t-30.5 -26t-31.5 -27.5q-21 -17 -27 -11q-24 20 -20 32q6 21 46 70q51 74 491 737q-140 -135 -315 -296t-265 -237q-466 -398 -656 -364q-56 11 -66 68
q-10 55 20 134.5t92 173.5t122.5 174t139.5 180t113 148q114 149 116 205q3 129 -490 54q-415 -63 -968 -227q-207 -62 -347 -114q-57 -22 -109 -48t-81 -47.5t-23 -30.5q-4 -11 -11.5 -14t-20.5 9q-51 69 30 109q259 125 690 246q531 153 1069 190q93 8 187 -4
q93 -11 127 -72t-10 -135q-38 -67 -335 -453q-131 -170 -206 -301t-51 -171q17 -25 60 -20.5t109 37t146.5 85t172 121t185.5 147t188 162.5q187 167 371.5 347.5t199.5 221.5q5 7 17 6t24.5 -11t11.5 -21z" />
    <glyph glyph-name="Udieresis" unicode="&#xdc;" horiz-adv-x="2820" 
d="M2552 1022q11 1 20.5 -10.5t10.5 -18.5q1 -3 -1.5 -5t-4.5 -1q-4 0 -24 -20q-10 -9 -26.5 3.5t-9.5 22.5q2 4 4 6q18 23 31 23zM2697 987q1 -3 -1.5 -5t-4.5 -1q-4 0 -24 -20q-10 -9 -26.5 3.5t-9.5 22.5q2 4 4 6q18 23 31 23q11 1 20.5 -10.5t10.5 -18.5zM3093 865
q3 -19 -32 -64q-84 -115 -307.5 -449.5t-299.5 -443.5q22 8 34 -19q4 -12 -1 -16.5t-16 -6.5q-8 -2 -20.5 -10.5t-22.5 -17t-30.5 -26t-31.5 -27.5q-21 -17 -27 -11q-24 20 -20 32q6 21 46 70q51 74 491 737q-140 -135 -315 -296t-265 -237q-466 -398 -656 -364
q-56 11 -66 68q-10 55 20 134.5t92 173.5t122.5 174t139.5 180t113 148q114 149 116 205q3 129 -490 54q-415 -63 -968 -227q-207 -62 -347 -114q-57 -22 -109 -48t-81 -47.5t-23 -30.5q-4 -11 -11.5 -14t-20.5 9q-51 69 30 109q259 125 690 246q531 153 1069 190
q93 8 187 -4q93 -11 127 -72t-10 -135q-38 -67 -335 -453q-131 -170 -206 -301t-51 -171q17 -25 60 -20.5t109 37t146.5 85t172 121t185.5 147t188 162.5q187 167 371.5 347.5t199.5 221.5q5 7 17 6t24.5 -11t11.5 -21z" />
    <glyph glyph-name="Yacute" unicode="&#xdd;" horiz-adv-x="2936" 
d="M2644 1091q12 1 24 -10.5t12 -17.5q1 -6 -6 -6q-2 1 -11.5 -7t-24 -22t-25.5 -28q-7 -9 -20 1t-9 19q7 19 30 48q17 23 30 23zM3160 930q15 -1 25 -14t10 -21q-1 -9 -10 -5q-1 1 -9 -8q-6 -6 -10.5 -11t-16 -16.5l-24.5 -24.5q-77 -137 -229.5 -360.5t-232.5 -324.5
q53 21 222 59q25 5 48.5 -3t23.5 -27q1 -11 -2.5 -20.5t-8.5 -9.5q-15 4 -29 2q-45 -4 -122.5 -23t-132.5 -36l-54 -17q-2 -4 -47.5 -50t-118.5 -115.5t-150.5 -137t-153 -118.5t-116.5 -56q-62 -8 -100.5 28.5t-32.5 96.5t62 112q59 55 132.5 100.5t170 83t146.5 54
t153 47.5q8 9 24 26.5t66 79t102.5 130.5t130 180.5t152.5 230.5q-34 -34 -95 -93t-197.5 -182t-262 -225.5t-266.5 -196t-233 -121.5q-59 -18 -106.5 -15.5t-75 22.5t-45.5 51t-17 69.5t11 77.5q23 73 124.5 219.5t191 271.5t91.5 159q7 129 -464 60q-404 -59 -952 -222
q-227 -68 -375 -124q-56 -21 -106.5 -47.5t-78.5 -48.5t-22 -31q-4 -11 -12 -14t-20 10q-56 69 25 109q250 124 677 245q528 154 1061 191q100 8 184 -5q45 -5 75.5 -24.5t40.5 -44.5t13 -53t-7 -51q-12 -37 -53 -98t-108.5 -156t-114.5 -170q-136 -202 -130 -263
q13 -129 233 -29q173 78 389 249q147 116 311 259t242 215t96 90q81 82 108 84zM1951 -338q22 -23 91 7.5t143 91.5q157 127 310 283q-262 -82 -421 -180q-26 -16 -49 -33.5t-45.5 -39.5t-35 -43t-12 -44t18.5 -42z" />
    <glyph glyph-name="Thorn" unicode="&#xde;" horiz-adv-x="352" 
d="M257 559q17 0 29.5 -10t4.5 -23l-210 -329q39 45 80 83q66 63 108 50q41 -15 41 -61q-2 -65 -62 -142q-80 -96 -154 -112q-44 -9 -60 18q-6 11 -6 26q2 9 8.5 12t12 1t6.5 -5q1 -8 8 -13t24 0t40 23q28 23 52 52q64 77 77 132q5 22 -9 29q-16 5 -38 -14
q-44 -37 -107.5 -107t-91.5 -105q-8 -9 -16.5 -19t-15 -18t-12 -14.5t-8.5 -10.5l-3 -3l-131 -209q-9 -12 -21 -12q-17 0 -28 11t-3 24l463 734q7 12 22 12z" />
    <glyph glyph-name="germandbls" unicode="&#xdf;" horiz-adv-x="345" 
d="M299 552q40 32 76.5 41t59 -2t35.5 -30.5t13 -40.5q0 -65 -57 -137q-7 -9 -20 -23t-44 -39.5t-59 -38.5q6 -14 6 -30q-2 -65 -62 -142q-80 -96 -154 -112q-44 -9 -60 18q-6 10 -6 26q2 9 8.5 12t12 1t6.5 -5q1 -8 8 -13t24 0t40 23q28 23 52 52q64 77 77 132q5 17 -4 26
h-4q-1 0 -1 0.5t-1 0.5l-10 5q-8 6 -8 18q0 8 7 15q2 3 13 3q20 -4 28 2q15 7 30 19q28 23 52 52q64 77 77 132q12 52 -20 47q-36 -7 -93 -62q-8 -8 -13 -14q-80 -93 -175 -233q-37 -55 -70.5 -109.5t-49 -82.5t-16.5 -29q-16 -33 -47 -24q-23 6 -24 27q-1 7 3 14
q29 61 153 241q68 98 117 159t100 101z" />
    <glyph glyph-name="agrave" unicode="&#xe0;" 
d="M243 461q14 0 32 -22q24 -28 33 -47q4 -9 -10 -18.5t-22 -0.5q-11 13 -26.5 27t-26 21.5t-12.5 6.5q-8 0 -7 6q0 6 13 17t26 10zM367 190q5 4 9.5 2.5t5 -5.5t-2.5 -8l-87 -87l-64 -61q-33 -31 -46 -31q-27 0 -44.5 22t-13.5 44q0 1 2 8t4 11q-68 -84 -92 -85
q-28 -1 -56.5 21.5t-28.5 43.5q0 42 29.5 97.5t77.5 103.5q70 72 125 66q20 -1 33.5 -18t17.5 -40q18 26 33 39q21 21 37 21q13 -1 26 -13.5t13 -19.5q1 -5 -2.5 -5.5t-5.5 1.5q-3 2 -15 -9t-31 -35t-38 -53q-38 -58 -58 -97q-24 -45 -11 -54q8 -4 26 9q15 10 36 27
q91 75 121 105zM18 44q18 -7 65.5 38.5t96.5 106.5l37 56q-1 6 -2.5 12t-8 14.5t-15 11.5t-25 -2t-37.5 -21q-24 -18 -49.5 -51t-37.5 -53t-18 -32q-13 -26 -16 -44.5t0.5 -26t9.5 -9.5z" />
    <glyph glyph-name="aacute" unicode="&#xe1;" 
d="M268 486q12 1 24 -10.5t12 -17.5q1 -6 -6 -6q-2 1 -11.5 -7t-24 -22t-25.5 -28q-7 -9 -20 1t-9 19q7 19 30 48q17 23 30 23zM367 190q5 4 9.5 2.5t5 -5.5t-2.5 -8l-87 -87l-64 -61q-33 -31 -46 -31q-27 0 -44.5 22t-13.5 44q0 1 2 8t4 11q-68 -84 -92 -85
q-28 -1 -56.5 21.5t-28.5 43.5q0 42 29.5 97.5t77.5 103.5q70 72 125 66q20 -1 33.5 -18t17.5 -40q18 26 33 39q21 21 37 21q13 -1 26 -13.5t13 -19.5q1 -5 -2.5 -5.5t-5.5 1.5q-3 2 -15 -9t-31 -35t-38 -53q-38 -58 -58 -97q-24 -45 -11 -54q8 -4 26 9q15 10 36 27
q91 75 121 105zM18 44q18 -7 65.5 38.5t96.5 106.5l37 56q-1 6 -2.5 12t-8 14.5t-15 11.5t-25 -2t-37.5 -21q-24 -18 -49.5 -51t-37.5 -53t-18 -32q-13 -26 -16 -44.5t0.5 -26t9.5 -9.5z" />
    <glyph glyph-name="acircumflex" unicode="&#xe2;" 
d="M322 400q2 -8 -12.5 -17t-20.5 -1q-15 26 -29 42q-27 -22 -44 -42q-8 -9 -19.5 0.5t-5.5 17.5q10 17 40 43q20 20 34 20h12q14 0 25 -20q18 -27 20 -43zM367 190q5 4 9.5 2.5t5 -5.5t-2.5 -8l-87 -87l-64 -61q-33 -31 -46 -31q-27 0 -44.5 22t-13.5 44q0 1 2 8t4 11
q-68 -84 -92 -85q-28 -1 -56.5 21.5t-28.5 43.5q0 42 29.5 97.5t77.5 103.5q70 72 125 66q20 -1 33.5 -18t17.5 -40q18 26 33 39q21 21 37 21q13 -1 26 -13.5t13 -19.5q1 -5 -2.5 -5.5t-5.5 1.5q-3 2 -15 -9t-31 -35t-38 -53q-38 -58 -58 -97q-24 -45 -11 -54q8 -4 26 9
q15 10 36 27q91 75 121 105zM18 44q18 -7 65.5 38.5t96.5 106.5l37 56q-1 6 -2.5 12t-8 14.5t-15 11.5t-25 -2t-37.5 -21q-24 -18 -49.5 -51t-37.5 -53t-18 -32q-13 -26 -16 -44.5t0.5 -26t9.5 -9.5z" />
    <glyph glyph-name="atilde" unicode="&#xe3;" 
d="M356 429q11 0 3 -21q-15 -31 -48 -38q-23 -5 -66.5 13.5t-50.5 18.5q-14 1 -39 -12q0 -1 -1 -1t-1 1q-3 2 -2 6q4 9 10.5 18.5t22 18t33.5 4.5q21 -5 52.5 -17t42.5 -12t22 5t16 11zM367 190q5 4 9.5 2.5t5 -5.5t-2.5 -8l-87 -87l-64 -61q-33 -31 -46 -31q-27 0 -44.5 22
t-13.5 44q0 1 2 8t4 11q-68 -84 -92 -85q-28 -1 -56.5 21.5t-28.5 43.5q0 42 29.5 97.5t77.5 103.5q70 72 125 66q20 -1 33.5 -18t17.5 -40q18 26 33 39q21 21 37 21q13 -1 26 -13.5t13 -19.5q1 -5 -2.5 -5.5t-5.5 1.5q-3 2 -15 -9t-31 -35t-38 -53q-38 -58 -58 -97
q-24 -45 -11 -54q8 -4 26 9q15 10 36 27q91 75 121 105zM18 44q18 -7 65.5 38.5t96.5 106.5l37 56q-1 6 -2.5 12t-8 14.5t-15 11.5t-25 -2t-37.5 -21q-24 -18 -49.5 -51t-37.5 -53t-18 -32q-13 -26 -16 -44.5t0.5 -26t9.5 -9.5z" />
    <glyph glyph-name="adieresis" unicode="&#xe4;" 
d="M194 481q11 1 20.5 -10.5t10.5 -18.5q1 -3 -1.5 -5t-4.5 -1q-4 0 -24 -20q-10 -9 -26.5 3.5t-9.5 22.5q2 4 4 6q18 23 31 23zM339 446q1 -3 -1.5 -5t-4.5 -1q-4 0 -24 -20q-10 -9 -26.5 3.5t-9.5 22.5q2 4 4 6q18 23 31 23q11 1 20.5 -10.5t10.5 -18.5zM367 190
q5 4 9.5 2.5t5 -5.5t-2.5 -8l-87 -87l-64 -61q-33 -31 -46 -31q-27 0 -44.5 22t-13.5 44q0 1 2 8t4 11q-68 -84 -92 -85q-28 -1 -56.5 21.5t-28.5 43.5q0 42 29.5 97.5t77.5 103.5q70 72 125 66q20 -1 33.5 -18t17.5 -40q18 26 33 39q21 21 37 21q13 -1 26 -13.5t13 -19.5
q1 -5 -2.5 -5.5t-5.5 1.5q-3 2 -15 -9t-31 -35t-38 -53q-38 -58 -58 -97q-24 -45 -11 -54q8 -4 26 9q15 10 36 27q91 75 121 105zM18 44q18 -7 65.5 38.5t96.5 106.5l37 56q-1 6 -2.5 12t-8 14.5t-15 11.5t-25 -2t-37.5 -21q-24 -18 -49.5 -51t-37.5 -53t-18 -32
q-13 -26 -16 -44.5t0.5 -26t9.5 -9.5z" />
    <glyph glyph-name="aring" unicode="&#xe5;" 
d="M255 397q-19 0 -28.5 11t-4.5 28q12 42 59 42q19 0 28.5 -12.5t4.5 -29.5q-5 -16 -22.5 -27.5t-36.5 -11.5zM275 458q-10 0 -19.5 -6.5t-12.5 -15.5q-3 -8 1 -12.5t11 -4.5q21 -2 29 18q8 19 -9 21zM367 190q5 4 9.5 2.5t5 -5.5t-2.5 -8l-87 -87l-64 -61q-33 -31 -46 -31
q-27 0 -44.5 22t-13.5 44q0 1 2 8t4 11q-68 -84 -92 -85q-28 -1 -56.5 21.5t-28.5 43.5q0 42 29.5 97.5t77.5 103.5q70 72 125 66q20 -1 33.5 -18t17.5 -40q18 26 33 39q21 21 37 21q13 -1 26 -13.5t13 -19.5q1 -5 -2.5 -5.5t-5.5 1.5q-3 2 -15 -9t-31 -35t-38 -53
q-38 -58 -58 -97q-24 -45 -11 -54q8 -4 26 9q15 10 36 27q91 75 121 105zM18 44q18 -7 65.5 38.5t96.5 106.5l37 56q-1 6 -2.5 12t-8 14.5t-15 11.5t-25 -2t-37.5 -21q-24 -18 -49.5 -51t-37.5 -53t-18 -32q-13 -26 -16 -44.5t0.5 -26t9.5 -9.5z" />
    <glyph glyph-name="ae" unicode="&#xe6;" horiz-adv-x="586" 
d="M620 189q7 7 12 1t-1 -12q-51 -47 -86.5 -77.5t-93.5 -65.5t-98 -37q-28 -1 -56.5 21.5t-28.5 43.5v6l-40 -38q-33 -31 -46 -31q-27 0 -44.5 22t-13.5 44q0 1 2 8t4 11q-68 -84 -92 -85q-28 -1 -56.5 21.5t-28.5 43.5q0 42 29.5 97.5t77.5 103.5q70 72 125 66
q20 -1 33.5 -18t17.5 -40q18 26 33 39q21 21 37 21q13 -1 26 -13.5t13 -19.5q1 -5 -2.5 -5.5t-5.5 1.5q-3 2 -15 -9t-31 -35t-38 -53q-38 -58 -58 -97q-24 -45 -11 -54q8 -4 26 9q15 10 36 27l31 26q8 27 26 57q28 52 89 110t108 53q17 -3 30 -14q46 -50 -2 -115
q-21 -28 -52.5 -49t-54.5 -23q-24 -3 -40 20q-6 9 -10 21l-7 -7q-8 -12 -9 -14q-54 -90 -22 -108q6 -6 36.5 -2t57.5 18q33 17 61 35t43 28.5t45 33.5t44 34zM511 296q-43 0 -130 -108q2 -5 -2 -9q1 0 1 -2q1 -2 6 -3t15.5 0t22.5 5.5t30 16t36 28.5q21 19 28 36.5t3.5 26.5
t-10.5 9zM18 44q18 -7 65.5 38.5t96.5 106.5l37 56q-1 6 -2.5 12t-8 14.5t-15 11.5t-25 -2t-37.5 -21q-24 -18 -49.5 -51t-37.5 -53t-18 -32q-13 -26 -16 -44.5t0.5 -26t9.5 -9.5z" />
    <glyph glyph-name="ccedilla" unicode="&#xe7;" horiz-adv-x="290" 
d="M301 192q7 7 12 1t-1 -12q-51 -47 -86.5 -77.5t-93.5 -65.5t-98 -37q-12 0 -18 2q-15 -7 -12 -21q1 -6 8.5 -16t14.5 -18.5t6.5 -19.5t-12.5 -20q-9 -7 -25 -7.5t-27 6.5q-23 16 -17 38q2 7 11.5 5.5t7.5 -9.5q-2 -7 11 -13q17 -8 18 6q0 9 -10 27q-19 26 -5 46l6 6
q-42 24 -42 53q0 40 35 105q28 52 89 110t108 53q17 -3 30 -14q17 -18 20 -42t-5 -45t-23 -39q-23 -28 -36 -27t-25 14t-12 21q0 5 3 5.5t5 -1.5q1 -1 5 0.5t10 5.5t12 11q25 28 36 52q10 20 -5 23q-23 3 -82 -50q-47 -44 -78 -95q-54 -90 -22 -108q6 -6 36.5 -2t57.5 18
q33 17 61 35t43 28.5t45 33.5t44 34z" />
    <glyph glyph-name="egrave" unicode="&#xe8;" horiz-adv-x="272" 
d="M183 458q14 0 32 -22q24 -28 33 -47q4 -9 -10 -18.5t-22 -0.5q-11 13 -26.5 27t-26 21.5t-12.5 6.5q-8 0 -7 6q0 6 13 17t26 10zM303 191q7 7 12 1t-1 -12q-51 -47 -86.5 -77.5t-93.5 -65.5t-98 -37q-28 -1 -56.5 21.5t-28.5 43.5q0 40 35 105q28 52 89 110t108 53
q17 -3 30 -14q46 -50 -2 -115q-21 -28 -52.5 -49t-54.5 -23q-24 -3 -40 20q-6 9 -11 23q-14 -21 -15 -23q-54 -90 -22 -108q6 -6 36.5 -2t57.5 18q33 17 61 35t43 28.5t45 33.5t44 34zM194 298q-24 0 -62.5 -35.5t-71.5 -78.5q3 -2 3 -5q1 -2 6 -3t15.5 0t22.5 5.5t30 16
t36 28.5q21 19 28 36.5t3.5 26.5t-10.5 9z" />
    <glyph glyph-name="eacute" unicode="&#xe9;" horiz-adv-x="272" 
d="M208 483q12 1 24 -10.5t12 -17.5q1 -6 -6 -6q-2 1 -11.5 -7t-24 -22t-25.5 -28q-7 -9 -20 1t-9 19q7 19 30 48q17 23 30 23zM303 191q7 7 12 1t-1 -12q-51 -47 -86.5 -77.5t-93.5 -65.5t-98 -37q-28 -1 -56.5 21.5t-28.5 43.5q0 40 35 105q28 52 89 110t108 53
q17 -3 30 -14q46 -50 -2 -115q-21 -28 -52.5 -49t-54.5 -23q-24 -3 -40 20q-6 9 -11 23q-14 -21 -15 -23q-54 -90 -22 -108q6 -6 36.5 -2t57.5 18q33 17 61 35t43 28.5t45 33.5t44 34zM194 298q-24 0 -62.5 -35.5t-71.5 -78.5q3 -2 3 -5q1 -2 6 -3t15.5 0t22.5 5.5t30 16
t36 28.5q21 19 28 36.5t3.5 26.5t-10.5 9z" />
    <glyph glyph-name="ecircumflex" unicode="&#xea;" horiz-adv-x="272" 
d="M262 397q2 -8 -12.5 -17t-20.5 -1q-15 26 -29 42q-27 -22 -44 -42q-8 -9 -19.5 0.5t-5.5 17.5q10 17 40 43q20 20 34 20h12q14 0 25 -20q18 -27 20 -43zM303 191q7 7 12 1t-1 -12q-51 -47 -86.5 -77.5t-93.5 -65.5t-98 -37q-28 -1 -56.5 21.5t-28.5 43.5q0 40 35 105
q28 52 89 110t108 53q17 -3 30 -14q46 -50 -2 -115q-21 -28 -52.5 -49t-54.5 -23q-24 -3 -40 20q-6 9 -11 23q-14 -21 -15 -23q-54 -90 -22 -108q6 -6 36.5 -2t57.5 18q33 17 61 35t43 28.5t45 33.5t44 34zM194 298q-24 0 -62.5 -35.5t-71.5 -78.5q3 -2 3 -5q1 -2 6 -3
t15.5 0t22.5 5.5t30 16t36 28.5q21 19 28 36.5t3.5 26.5t-10.5 9z" />
    <glyph glyph-name="edieresis" unicode="&#xeb;" horiz-adv-x="272" 
d="M194 481q11 1 20.5 -10.5t10.5 -18.5q1 -3 -1.5 -5t-4.5 -1q-4 0 -24 -20q-10 -9 -26.5 3.5t-9.5 22.5q2 4 4 6q18 23 31 23zM339 446q1 -3 -1.5 -5t-4.5 -1q-4 0 -24 -20q-10 -9 -26.5 3.5t-9.5 22.5q2 4 4 6q18 23 31 23q11 1 20.5 -10.5t10.5 -18.5zM303 191q7 7 12 1
t-1 -12q-51 -47 -86.5 -77.5t-93.5 -65.5t-98 -37q-28 -1 -56.5 21.5t-28.5 43.5q0 40 35 105q28 52 89 110t108 53q17 -3 30 -14q46 -50 -2 -115q-21 -28 -52.5 -49t-54.5 -23q-24 -3 -40 20q-6 9 -11 23q-14 -21 -15 -23q-54 -90 -22 -108q6 -6 36.5 -2t57.5 18
q33 17 61 35t43 28.5t45 33.5t44 34zM194 298q-24 0 -62.5 -35.5t-71.5 -78.5q3 -2 3 -5q1 -2 6 -3t15.5 0t22.5 5.5t30 16t36 28.5q21 19 28 36.5t3.5 26.5t-10.5 9z" />
    <glyph glyph-name="igrave" unicode="&#xec;" horiz-adv-x="170" 
d="M134 461q14 0 32 -22q24 -28 33 -47q4 -9 -10 -18.5t-22 -0.5q-11 13 -26.5 27t-26 21.5t-12.5 6.5q-8 0 -7 6q0 6 13 17t26 10zM185 192q5 4 9.5 2.5t5 -5.5t-2.5 -8l-87 -87l-64 -61q-34 -32 -46 -32q-27 0 -44.5 22.5t-13.5 44.5q12 59 99 189q26 38 46 58
q21 21 37 21q13 -1 26 -13.5t13 -19.5q0 -5 -3.5 -5.5t-4.5 1.5q-3 2 -15.5 -10t-31.5 -36t-37 -51q-20 -31 -58 -97q-11 -19 -13.5 -35.5t2.5 -18.5q8 -4 26 9q15 10 36 27q91 75 121 105z" />
    <glyph glyph-name="iacute" unicode="&#xed;" horiz-adv-x="170" 
d="M159 486q12 1 24 -10.5t12 -17.5q1 -6 -6 -6q-2 1 -11.5 -7t-24 -22t-25.5 -28q-7 -9 -20 1t-9 19q7 19 30 48q17 23 30 23zM185 192q5 4 9.5 2.5t5 -5.5t-2.5 -8l-87 -87l-64 -61q-34 -32 -46 -32q-27 0 -44.5 22.5t-13.5 44.5q12 59 99 189q26 38 46 58q21 21 37 21
q13 -1 26 -13.5t13 -19.5q0 -5 -3.5 -5.5t-4.5 1.5q-3 2 -15.5 -10t-31.5 -36t-37 -51q-20 -31 -58 -97q-11 -19 -13.5 -35.5t2.5 -18.5q8 -4 26 9q15 10 36 27q91 75 121 105z" />
    <glyph glyph-name="icircumflex" unicode="&#xee;" horiz-adv-x="151" 
d="M221 410q2 -8 -12.5 -17t-20.5 -1q-15 26 -29 42q-27 -22 -44 -42q-8 -9 -19.5 0.5t-5.5 17.5q10 17 40 43q20 20 34 20h12q14 0 25 -20q18 -27 20 -43zM185 192q5 4 9.5 2.5t5 -5.5t-2.5 -8l-87 -87l-64 -61q-34 -32 -46 -32q-27 0 -44.5 22.5t-13.5 44.5q12 59 99 189
q26 38 46 58q21 21 37 21q13 -1 26 -13.5t13 -19.5q0 -5 -3.5 -5.5t-4.5 1.5q-3 2 -15.5 -10t-31.5 -36t-37 -51q-20 -31 -58 -97q-11 -19 -13.5 -35.5t2.5 -18.5q8 -4 26 9q15 10 36 27q91 75 121 105z" />
    <glyph glyph-name="idieresis" unicode="&#xef;" horiz-adv-x="147" 
d="M127 481q11 1 20.5 -10.5t10.5 -18.5q1 -3 -1.5 -5t-4.5 -1q-4 0 -24 -20q-10 -9 -26.5 3.5t-9.5 22.5q2 4 4 6q18 23 31 23zM272 446q1 -3 -1.5 -5t-4.5 -1q-4 0 -24 -20q-10 -9 -26.5 3.5t-9.5 22.5q2 4 4 6q18 23 31 23q11 1 20.5 -10.5t10.5 -18.5zM185 192
q5 4 9.5 2.5t5 -5.5t-2.5 -8l-87 -87l-64 -61q-34 -32 -46 -32q-27 0 -44.5 22.5t-13.5 44.5q12 59 99 189q26 38 46 58q21 21 37 21q13 -1 26 -13.5t13 -19.5q0 -5 -3.5 -5.5t-4.5 1.5q-3 2 -15.5 -10t-31.5 -36t-37 -51q-20 -31 -58 -97q-11 -19 -13.5 -35.5t2.5 -18.5
q8 -4 26 9q15 10 36 27q91 75 121 105z" />
    <glyph glyph-name="eth" unicode="&#xf0;" horiz-adv-x="349" 
d="M340 463q10 -5 15.5 -18.5t3.5 -19.5q-5 -8 -9 -1q-33 -7 -77 -28q38 -11 44 -14q8 -6 0.5 -22t-14.5 -15q-43 15 -78 24q-65 -41 -121 -98q68 36 121 5t42 -107q-10 -72 -75 -126.5t-134 -43.5q-45 7 -63.5 44t-11 85.5t34.5 96.5q51 91 146 160q-32 8 -38 8q-8 -7 -8 4
q1 19 17 30q7 3 13 3q17 -3 61 -16q32 20 70 37q42 18 61 12zM132 254q-32 -10 -57 -37q-16 -22 -29.5 -59t-11.5 -74.5t28 -46.5q54 -14 116 66q23 32 34 67t2 59q-16 44 -82 25z" />
    <glyph glyph-name="ntilde" unicode="&#xf1;" horiz-adv-x="378" 
d="M367 472q11 0 3 -21q-15 -31 -48 -38q-23 -5 -67.5 13.5t-49.5 18.5q-13 1 -39 -12q0 -1 -1 -1t-1 1q-3 2 -2 6q4 9 10.5 18.5t22 18t33.5 4.5q21 -5 52.5 -17t42.5 -12t22 5t17 10zM402 191q4 4 8.5 2.5t5 -5.5t-2.5 -8q-1 -2 -86 -87l-64 -61q-36 -32 -47 -32
q-26 0 -43.5 22.5t-13.5 44.5q9 50 49.5 114t75.5 103q4 2 -3 3q-14 0 -39 -13q-37 -19 -95.5 -72t-124.5 -134q-47 -59 -51 -68q-17 0 -38 17q-6 6 -8 14t1 18.5t5 17t8.5 19t7.5 15.5q12 26 62 107q35 60 78 109q23 22 37 20q13 -1 26 -13t13 -19q1 -5 -2.5 -6t-5.5 1
q-3 2 -15 -9.5t-31.5 -35.5t-37.5 -52q-47 -75 -55 -91q53 63 68 79q62 66 124 110t104 37q21 -3 37 -15q10 -7 18.5 -18.5t7.5 -16.5q-2 -9 -8 -5q-5 5 -47 -43q-52 -63 -89 -138q-23 -46 -12 -52q4 -2 10.5 0t14.5 7.5t14 10t13.5 11t8.5 7.5q16 13 45.5 38.5t52 45
t24.5 21.5z" />
    <glyph glyph-name="ograve" unicode="&#xf2;" horiz-adv-x="298" 
d="M203 461q14 0 32 -22q24 -28 33 -47q4 -9 -10 -18.5t-22 -0.5q-11 13 -26.5 27t-26 21.5t-12.5 6.5q-8 0 -7 6q0 6 13 17t26 10zM380 272q5 6 10 2t2 -10q-44 -84 -122 -101q-23 -5 -51 -3q4 -20 -11.5 -60.5t-58.5 -74.5q-30 -23 -69.5 -26.5t-71 19t-33.5 66.5t20.5 95
t60.5 91q64 69 133 65q58 -3 78 -62q5 -12 3 -23q-3 -13 -17.5 -23t-21.5 -9q-3 0 -4 2t-0.5 4t1.5 3q1 2 1 6t-2 12t-6 15q-37 53 -97.5 5t-88.5 -127q-20 -59 5 -87q25 -22 59 -12t56 39q33 44 29 87q-8 4 -11 9q-10 18 -1 35q5 9 14 5q42 -25 82 -21q61 6 112 79z" />
    <glyph glyph-name="oacute" unicode="&#xf3;" horiz-adv-x="298" 
d="M228 486q12 1 24 -10.5t12 -17.5q1 -6 -6 -6q-2 1 -11.5 -7t-24 -22t-25.5 -28q-7 -9 -20 1t-9 19q7 19 30 48q17 23 30 23zM380 272q5 6 10 2t2 -10q-44 -84 -122 -101q-23 -5 -51 -3q4 -20 -11.5 -60.5t-58.5 -74.5q-30 -23 -69.5 -26.5t-71 19t-33.5 66.5t20.5 95
t60.5 91q64 69 133 65q58 -3 78 -62q5 -12 3 -23q-3 -13 -17.5 -23t-21.5 -9q-3 0 -4 2t-0.5 4t1.5 3q1 2 1 6t-2 12t-6 15q-37 53 -97.5 5t-88.5 -127q-20 -59 5 -87q25 -22 59 -12t56 39q33 44 29 87q-8 4 -11 9q-10 18 -1 35q5 9 14 5q42 -25 82 -21q61 6 112 79z" />
    <glyph glyph-name="ocircumflex" unicode="&#xf4;" horiz-adv-x="298" 
d="M282 400q2 -8 -12.5 -17t-20.5 -1q-15 26 -29 42q-27 -22 -44 -42q-8 -9 -19.5 0.5t-5.5 17.5q10 17 40 43q20 20 34 20h12q14 0 25 -20q18 -27 20 -43zM380 272q5 6 10 2t2 -10q-44 -84 -122 -101q-23 -5 -51 -3q4 -20 -11.5 -60.5t-58.5 -74.5q-30 -23 -69.5 -26.5
t-71 19t-33.5 66.5t20.5 95t60.5 91q64 69 133 65q58 -3 78 -62q5 -12 3 -23q-3 -13 -17.5 -23t-21.5 -9q-3 0 -4 2t-0.5 4t1.5 3q1 2 1 6t-2 12t-6 15q-37 53 -97.5 5t-88.5 -127q-20 -59 5 -87q25 -22 59 -12t56 39q33 44 29 87q-8 4 -11 9q-10 18 -1 35q5 9 14 5
q42 -25 82 -21q61 6 112 79z" />
    <glyph glyph-name="otilde" unicode="&#xf5;" horiz-adv-x="298" 
d="M316 429q11 0 3 -21q-15 -31 -48 -38q-23 -5 -66.5 13.5t-50.5 18.5q-14 1 -39 -12q0 -1 -1 -1t-1 1q-3 2 -2 6q4 9 10.5 18.5t22 18t33.5 4.5q21 -5 52.5 -17t42.5 -12t22 5t16 11zM380 272q5 6 10 2t2 -10q-44 -84 -122 -101q-23 -5 -51 -3q4 -20 -11.5 -60.5
t-58.5 -74.5q-30 -23 -69.5 -26.5t-71 19t-33.5 66.5t20.5 95t60.5 91q64 69 133 65q58 -3 78 -62q5 -12 3 -23q-3 -13 -17.5 -23t-21.5 -9q-3 0 -4 2t-0.5 4t1.5 3q1 2 1 6t-2 12t-6 15q-37 53 -97.5 5t-88.5 -127q-20 -59 5 -87q25 -22 59 -12t56 39q33 44 29 87
q-8 4 -11 9q-10 18 -1 35q5 9 14 5q42 -25 82 -21q61 6 112 79z" />
    <glyph glyph-name="odieresis" unicode="&#xf6;" horiz-adv-x="298" 
d="M155 481q11 1 20.5 -10.5t10.5 -18.5q1 -3 -1.5 -5t-4.5 -1q-4 0 -24 -20q-10 -9 -26.5 3.5t-9.5 22.5q2 4 4 6q18 23 31 23zM300 446q1 -3 -1.5 -5t-4.5 -1q-4 0 -24 -20q-10 -9 -26.5 3.5t-9.5 22.5q2 4 4 6q18 23 31 23q11 1 20.5 -10.5t10.5 -18.5zM380 272q5 6 10 2
t2 -10q-44 -84 -122 -101q-23 -5 -51 -3q4 -20 -11.5 -60.5t-58.5 -74.5q-30 -23 -69.5 -26.5t-71 19t-33.5 66.5t20.5 95t60.5 91q64 69 133 65q58 -3 78 -62q5 -12 3 -23q-3 -13 -17.5 -23t-21.5 -9q-3 0 -4 2t-0.5 4t1.5 3q1 2 1 6t-2 12t-6 15q-37 53 -97.5 5
t-88.5 -127q-20 -59 5 -87q25 -22 59 -12t56 39q33 44 29 87q-8 4 -11 9q-10 18 -1 35q5 9 14 5q42 -25 82 -21q61 6 112 79z" />
    <glyph glyph-name="divide" unicode="&#xf7;" horiz-adv-x="387" 
d="M187 323q-7 0 -11.5 5t-4.5 12v20q0 7 4.5 12t11.5 5h20q7 0 12 -5t5 -12v-20q0 -7 -5 -12t-12 -5h-20zM324 252q1 -19 -2 -23.5t-12 -3.5q-2 0 -27.5 -0.5t-51.5 -0.5h-64q-27 1 -84 1q-12 0 -12 9q-2 16 0 31q0 7 15 7q27 0 86 -0.5t90.5 -0.5h52.5q9 -1 9 -19z
M207 174q7 0 12 -4.5t5 -11.5v-21q0 -7 -5 -11.5t-12 -4.5h-20q-16 0 -16 16v21q0 16 16 16h20z" />
    <glyph glyph-name="oslash" unicode="&#xf8;" horiz-adv-x="298" 
d="M380 272q5 6 10 2t2 -10q-44 -84 -122 -101q-23 -5 -51 -3q4 -20 -11.5 -60.5t-58.5 -74.5q-26 -21 -62.5 -25t-65.5 10q-13 -19 -27.5 -40.5t-22 -33.5t-10.5 -16q-8 -9 -12 -8.5t-15 8.5q-1 1 -2 1.5t-2 1.5q-10 8 -3 17q3 4 25 35.5t40 58.5q-16 20 -17 50
q-2 44 20.5 95t60.5 91q64 69 133 65q6 0 9 -1q74 106 90 126q30 41 42 53.5t20 12.5q9 -1 18 -10t10 -14q0 -7 -6 -4q-4 3 -41 -46t-96 -133q25 -19 32 -46q5 -12 3 -23q-3 -13 -17.5 -23t-21.5 -9q-3 0 -4 2t-0.5 4t1.5 3q1 2 1 6t-2 12t-6 15q-6 11 -15 19
q-84 -121 -160 -233q25 -16 57 -5.5t52 37.5q33 44 29 87q-8 4 -11 9q-10 18 -1 35q5 9 14 5q42 -25 82 -21q61 6 112 79zM35 138q-11 -31 -9 -53q4 5 58 83.5t82 118.5q-36 -8 -74.5 -53.5t-56.5 -95.5z" />
    <glyph glyph-name="ugrave" unicode="&#xf9;" horiz-adv-x="345" 
d="M205 461q14 0 32 -22q24 -28 33 -47q4 -9 -10 -18.5t-22 -0.5q-11 13 -26.5 27t-26 21.5t-12.5 6.5q-8 0 -7 6q0 6 13 17t26 10zM366 190q5 4 9.5 2.5t5 -5.5t-2.5 -8l-87 -87l-64 -61q-34 -32 -46 -32q-27 0 -44.5 22.5t-13.5 44.5q0 1 2 8t4 11q-68 -84 -92 -85
q-28 -1 -56.5 21.5t-28.5 43.5q0 39 32 99q50 93 102 149q21 23 36 21q13 0 26 -12t14 -19q0 -9 -8 -5q-13 9 -72.5 -82t-71.5 -124q-14 -40 7 -48q18 -7 65.5 38.5t96.5 106.5l43 66q26 38 46 58q21 21 37 21q13 -1 26 -13.5t13 -19.5q1 -5 -2.5 -5.5t-5.5 1.5
q-3 2 -15.5 -10t-31.5 -36t-37 -51q-20 -31 -58 -97q-11 -19 -13.5 -35.5t2.5 -18.5q8 -4 26 9q15 10 36 27q91 75 121 105z" />
    <glyph glyph-name="uacute" unicode="&#xfa;" horiz-adv-x="345" 
d="M230 486q12 1 24 -10.5t12 -17.5q1 -6 -6 -6q-2 1 -11.5 -7t-24 -22t-25.5 -28q-7 -9 -20 1t-9 19q7 19 30 48q17 23 30 23zM366 190q5 4 9.5 2.5t5 -5.5t-2.5 -8l-87 -87l-64 -61q-34 -32 -46 -32q-27 0 -44.5 22.5t-13.5 44.5q0 1 2 8t4 11q-68 -84 -92 -85
q-28 -1 -56.5 21.5t-28.5 43.5q0 39 32 99q50 93 102 149q21 23 36 21q13 0 26 -12t14 -19q0 -9 -8 -5q-13 9 -72.5 -82t-71.5 -124q-14 -40 7 -48q18 -7 65.5 38.5t96.5 106.5l43 66q26 38 46 58q21 21 37 21q13 -1 26 -13.5t13 -19.5q1 -5 -2.5 -5.5t-5.5 1.5
q-3 2 -15.5 -10t-31.5 -36t-37 -51q-20 -31 -58 -97q-11 -19 -13.5 -35.5t2.5 -18.5q8 -4 26 9q15 10 36 27q91 75 121 105z" />
    <glyph glyph-name="ucircumflex" unicode="&#xfb;" horiz-adv-x="345" 
d="M299 410q2 -8 -12.5 -17t-20.5 -1q-15 26 -29 42q-27 -22 -44 -42q-8 -9 -19.5 0.5t-5.5 17.5q10 17 40 43q20 20 34 20h12q14 0 25 -20q18 -27 20 -43zM366 190q5 4 9.5 2.5t5 -5.5t-2.5 -8l-87 -87l-64 -61q-34 -32 -46 -32q-27 0 -44.5 22.5t-13.5 44.5q0 1 2 8t4 11
q-68 -84 -92 -85q-28 -1 -56.5 21.5t-28.5 43.5q0 39 32 99q50 93 102 149q21 23 36 21q13 0 26 -12t14 -19q0 -9 -8 -5q-13 9 -72.5 -82t-71.5 -124q-14 -40 7 -48q18 -7 65.5 38.5t96.5 106.5l43 66q26 38 46 58q21 21 37 21q13 -1 26 -13.5t13 -19.5q1 -5 -2.5 -5.5
t-5.5 1.5q-3 2 -15.5 -10t-31.5 -36t-37 -51q-20 -31 -58 -97q-11 -19 -13.5 -35.5t2.5 -18.5q8 -4 26 9q15 10 36 27q91 75 121 105z" />
    <glyph glyph-name="udieresis" unicode="&#xfc;" horiz-adv-x="345" 
d="M200 481q11 1 20.5 -10.5t10.5 -18.5q1 -3 -1.5 -5t-4.5 -1q-4 0 -24 -20q-10 -9 -26.5 3.5t-9.5 22.5q2 4 4 6q18 23 31 23zM345 446q1 -3 -1.5 -5t-4.5 -1q-4 0 -24 -20q-10 -9 -26.5 3.5t-9.5 22.5q2 4 4 6q18 23 31 23q11 1 20.5 -10.5t10.5 -18.5zM366 190
q5 4 9.5 2.5t5 -5.5t-2.5 -8l-87 -87l-64 -61q-34 -32 -46 -32q-27 0 -44.5 22.5t-13.5 44.5q0 1 2 8t4 11q-68 -84 -92 -85q-28 -1 -56.5 21.5t-28.5 43.5q0 39 32 99q50 93 102 149q21 23 36 21q13 0 26 -12t14 -19q0 -9 -8 -5q-13 9 -72.5 -82t-71.5 -124q-14 -40 7 -48
q18 -7 65.5 38.5t96.5 106.5l43 66q26 38 46 58q21 21 37 21q13 -1 26 -13.5t13 -19.5q1 -5 -2.5 -5.5t-5.5 1.5q-3 2 -15.5 -10t-31.5 -36t-37 -51q-20 -31 -58 -97q-11 -19 -13.5 -35.5t2.5 -18.5q8 -4 26 9q15 10 36 27q91 75 121 105z" />
    <glyph glyph-name="yacute" unicode="&#xfd;" horiz-adv-x="317" 
d="M226 486q12 1 24 -10.5t12 -17.5q1 -6 -6 -6q-2 1 -11.5 -7t-24 -22t-25.5 -28q-7 -9 -20 1t-9 19q7 19 30 48q17 23 30 23zM344 301q1 -5 -2.5 -5.5t-5.5 1.5q-3 2 -15.5 -10t-31.5 -36t-37 -51l-18 -29q-37 -68 -48 -120q-6 -36 -4 -66q2 -5 5.5 -12t2.5 -11
q0 -4 -2 -6t-4 -2h-1q-171 -19 -299 -72q48 3 109 1q134 -6 203 -32t80 -87q5 -34 -11.5 -67.5t-54 -63.5t-104 -49t-151.5 -21q-70 -1 -124 13.5t-85 40.5t-45.5 59.5t-10 70.5t26.5 73q-53 -10 -81.5 -19t-32 -13t-1.5 -7q2 -1 3 -4.5t-1 -5.5q-5 -5 -12.5 5t-10.5 21
q-8 30 15 41q51 23 183 38q56 33 142 60t145 37l58 10q-1 3 -1.5 9t-2 24.5t1.5 37.5q1 10 7 30q-67 -83 -92 -84h-8q-27 2 -52 23.5t-25 41.5q0 37 32 99q50 93 102 149q21 23 36 21q13 0 26 -12t14 -19q0 -9 -8 -5q-13 9 -72.5 -82t-71.5 -124q-20 -50 7 -45q32 6 96 68
l16 16q27 29 50 58l43 66q26 38 46 58q21 21 37 21q13 -1 26 -13.5t13 -19.5zM256 -246q-1 44 -81 66t-182.5 20t-200.5 -11q-56 -50 -44.5 -111.5t81.5 -87.5q49 -20 122 -16.5t141 18.5t116 48.5t48 73.5z" />
    <glyph glyph-name="thorn" unicode="&#xfe;" horiz-adv-x="326" 
d="M350 713q17 0 29.5 -10t4.5 -23l-306 -484q39 45 80 83q66 63 108 50q41 -15 41 -61q-2 -74 -77 -161q-38 -43 -64 -60q9 -2 51 32q96 79 126 109q4 4 8.5 2.5t5 -6t-2.5 -8.5q-1 0 -16 -15.5t-36.5 -37t-34.5 -33.5l-9 -8q-8 -9 -11 -12t-12 -11.5t-14 -12.5
t-14.5 -11.5t-16 -11.5t-16.5 -9.5t-18 -8.5t-17.5 -5.5t-18.5 -2.5q-68 -2 -89 35q-6 10 -6 26q2 9 8.5 12t12 1t6.5 -5q1 -8 8 -13t24 0t40 23q28 23 52 52q64 77 77 132q5 22 -9 29q-16 5 -38 -14q-44 -37 -107.5 -107t-91.5 -105q-8 -9 -16.5 -19t-15 -18t-12 -14.5
t-8.5 -9.5l-3 -4l-211 -333q-9 -12 -21 -12q-17 0 -28 11t-3 24l639 1013q7 12 22 12z" />
    <glyph glyph-name="ydieresis" unicode="&#xff;" horiz-adv-x="317" 
d="M191 481q11 1 20.5 -10.5t10.5 -18.5q1 -3 -1.5 -5t-4.5 -1q-4 0 -24 -20q-10 -9 -26.5 3.5t-9.5 22.5q2 4 4 6q18 23 31 23zM336 446q1 -3 -1.5 -5t-4.5 -1q-4 0 -24 -20q-10 -9 -26.5 3.5t-9.5 22.5q2 4 4 6q18 23 31 23q11 1 20.5 -10.5t10.5 -18.5zM344 301
q1 -5 -2.5 -5.5t-5.5 1.5q-3 2 -15.5 -10t-31.5 -36t-37 -51l-18 -29q-37 -68 -48 -120q-6 -36 -4 -66q2 -5 5.5 -12t2.5 -11q0 -4 -2 -6t-4 -2h-1q-171 -19 -299 -72q48 3 109 1q134 -6 203 -32t80 -87q5 -34 -11.5 -67.5t-54 -63.5t-104 -49t-151.5 -21q-70 -1 -124 13.5
t-85 40.5t-45.5 59.5t-10 70.5t26.5 73q-53 -10 -81.5 -19t-32 -13t-1.5 -7q2 -1 3 -4.5t-1 -5.5q-5 -5 -12.5 5t-10.5 21q-8 30 15 41q51 23 183 38q56 33 142 60t145 37l58 10q-1 3 -1.5 9t-2 24.5t1.5 37.5q1 10 7 30q-67 -83 -92 -84h-8q-27 2 -52 23.5t-25 41.5
q0 37 32 99q50 93 102 149q21 23 36 21q13 0 26 -12t14 -19q0 -9 -8 -5q-13 9 -72.5 -82t-71.5 -124q-20 -50 7 -45q32 6 96 68l16 16q27 29 50 58l43 66q26 38 46 58q21 21 37 21q13 -1 26 -13.5t13 -19.5zM256 -246q-1 44 -81 66t-182.5 20t-200.5 -11
q-56 -50 -44.5 -111.5t81.5 -87.5q49 -20 122 -16.5t141 18.5t116 48.5t48 73.5z" />
    <glyph glyph-name="Abreve" unicode="&#x102;" horiz-adv-x="1886" 
d="M2330 964q-22 -18 -56.5 -13.5t-51.5 34.5q-7 12 -5 26q6 30 30 29q10 -2 10 -6q-7 -8 -7 -24t10 -22q25 0 41.5 5.5t31 14.5t25.5 13q11 -9 8 -19.5t-11 -18t-25 -19.5zM2102 866q74 64 107 73q32 8 42 -37q2 -9 -4.5 -15.5t-12.5 -4.5q-1 1 -6.5 -2.5t-20 -14.5
t-39 -31t-63.5 -52q-9 -13 -62.5 -83.5t-94.5 -127t-103.5 -151.5t-113.5 -186q60 2 79 1h11t12 -0.5t10 -1.5t9 -3t6.5 -6t4.5 -10q1 -9 -2 -26q-4 -33 -18 -37q-7 -2 -10 9q-1 1 -1 2q-1 4 -5.5 6.5t-12.5 4t-17 2t-23 0.5t-24.5 -0.5t-27.5 -1.5t-27 -1
q-9 -7 -58.5 -115.5t-84.5 -220t-4 -117.5q12 -2 -3 -13q-27 -18 -49 -6q-15 8 -18 30q-9 63 39.5 190.5t114.5 249.5q-221 -15 -364 -35q-174 -116 -537 -336q-55 -34 -109.5 -64t-119.5 -62t-125 -54t-118 -37t-109 -15t-88 17q-50 24 -53 87q-2 54 50 126.5t133.5 143
t181 141.5t188.5 125t160 90q5 2 14 7q129 65 171 65q29 0 33 -39q1 -10 -2 -14.5t-7.5 -4t-7.5 3.5q-15 17 -158.5 -63t-307 -190.5t-289 -229t-107.5 -169.5q10 -27 43.5 -34.5t86.5 6t112.5 35t136.5 60t143 72.5t147 82t132.5 78.5t116 71.5t82 52.5t44.5 28.5l-333 -35
q-2 0 -8.5 -1t-11 -1.5t-10.5 0t-9.5 2.5t-4.5 7q-4 12 0 30.5t11 19.5q3 1 7 -4t10 -4q38 5 225 23.5t216 23.5q321 212 625 458q56 45 110 89t85 70.5t56.5 48.5t28.5 24zM1665 229q112 193 290 437q-348 -286 -607 -468q201 26 317 31z" />
    <glyph glyph-name="abreve" unicode="&#x103;" 
d="M295 384q-22 -18 -56.5 -13.5t-51.5 34.5q-7 12 -5 26q6 30 30 29q10 -2 10 -6q-7 -8 -7 -24t10 -22q25 0 41.5 5.5t31 14.5t25.5 13q11 -9 8 -19.5t-11 -18t-25 -19.5zM367 190q5 4 9.5 2.5t5 -5.5t-2.5 -8l-87 -87l-64 -61q-33 -31 -46 -31q-27 0 -44.5 22t-13.5 44
q0 1 2 8t4 11q-68 -84 -92 -85q-28 -1 -56.5 21.5t-28.5 43.5q0 42 29.5 97.5t77.5 103.5q70 72 125 66q20 -1 33.5 -18t17.5 -40q18 26 33 39q21 21 37 21q13 -1 26 -13.5t13 -19.5q1 -5 -2.5 -5.5t-5.5 1.5q-3 2 -15 -9t-31 -35t-38 -53q-38 -58 -58 -97q-24 -45 -11 -54
q8 -4 26 9q15 10 36 27q91 75 121 105zM18 44q18 -7 65.5 38.5t96.5 106.5l37 56q-1 6 -2.5 12t-8 14.5t-15 11.5t-25 -2t-37.5 -21q-24 -18 -49.5 -51t-37.5 -53t-18 -32q-13 -26 -16 -44.5t0.5 -26t9.5 -9.5z" />
    <glyph glyph-name="Dcroat" unicode="&#x110;" horiz-adv-x="1950" 
d="M2109 791q48 -67 37.5 -157t-80.5 -185q-115 -153 -346.5 -318t-538.5 -293q-96 -40 -211.5 -73.5t-233.5 -55.5t-218.5 -16.5t-148.5 44.5q-42 33 -43 90q1 44 42 93t110.5 95t148 85.5t168.5 75.5l101 171l6 10h-52q-11 0 -11 8v35q1 6 13 6h80q127 205 267 414
q-252 -50 -525.5 -132.5t-460.5 -158.5q-49 -20 -92.5 -44.5t-66.5 -45t-16 -29.5q-2 -11 -9.5 -14t-20.5 9q-62 67 7 104q117 63 292.5 127.5t316.5 101.5q383 102 619 146q64 88 96 95q39 4 53 -17q7 -11 -4 -19q-12 0 -46 -42q113 20 229 27t249 -8.5t213 -61.5
q49 -29 76 -67zM1058 405q7 -1 9 -16q0 -34 -14 -32h-75l-84 -143q92 33 151 48q133 36 177 35q12 -1 22 -3q29 -6 29 -49q0 -11 -3.5 -15t-8 -2t-7.5 6q-12 18 -135 -16t-278 -97q-78 -137 -133 -241q-30 -55 -40 -64q-7 -6 -43 2q-8 2 -5 25q2 12 6 29.5t6.5 28.5t4 23
t1.5 21t-3 15q-8 20 14 22q24 2 33 -3q21 40 54 97q-169 -77 -272.5 -148.5t-90.5 -119.5q15 -55 125.5 -64.5t286 30.5t365.5 121q221 95 463 251q86 55 165 116t158.5 135t123.5 149t36 134q-8 58 -51.5 99.5t-111.5 61t-148.5 28.5t-171 5t-169.5 -13.5t-152 -23.5
q-126 -171 -285 -432h51z" />
    <glyph glyph-name="dcroat" unicode="&#x111;" horiz-adv-x="328" 
d="M568 684q13 -1 25.5 -13.5t13.5 -19.5q0 -9 -8 -5q-4 3 -24 -16.5t-55 -61t-75 -93.5h34q7 -1 9 -16q0 -34 -14 -32h-65q-113 -152 -213 -325q-11 -19 -13.5 -35.5t2.5 -18.5q8 -4 26 9q15 10 36 27q91 75 121 105q5 4 9.5 2.5t5 -5.5t-2.5 -8l-87 -87l-64 -61
q-34 -32 -46 -32q-27 0 -44.5 22.5t-13.5 44.5l6 21q-68 -86 -92 -86q-28 -1 -56.5 21.5t-28.5 43.5q0 42 29.5 97.5t77.5 103.5q70 72 125 66q20 -1 33 -16.5t17 -37.5q51 75 106 149h-71q-11 0 -11 8v35q2 6 13 6h105q66 85 103 131q62 77 87 77zM180 187l37 61
q-2 9 -5.5 16.5t-12.5 15t-27 3t-42 -22.5t-49.5 -51t-37.5 -53t-18 -32q-13 -26 -16 -44.5t0.5 -26t9.5 -9.5q32 -13 161 143z" />
    <glyph glyph-name="Itilde" unicode="&#x128;" horiz-adv-x="1935" 
d="M2297 1034q11 0 3 -21q-15 -31 -48 -38q-23 -5 -66.5 13.5t-50.5 18.5q-13 1 -39 -12q0 -1 -1 -1t-1 1q-3 2 -2 6q4 9 10.5 18.5t22 18t33.5 4.5q21 -5 52.5 -17t42.5 -12t22 5t17 10zM2018 923q44 -5 75 -29.5t42 -55.5t15.5 -63.5t-4.5 -55.5q-9 -35 -41.5 -95.5
t-80.5 -132.5t-86.5 -127t-84.5 -119t-50 -69q-50 -70 -129.5 -179t-133.5 -184.5t-83 -120.5q-31 -53 -48 -65q-5 -4 -23 1t-20 5q-9 4 -2 26q4 13 12 37t10.5 32.5t6.5 27t0 20.5q-9 20 14 22q23 0 35 -5q8 11 107 144t215 293.5t197 281.5q77 117 113.5 186t32.5 102
q-22 117 -369 71t-746.5 -152.5t-655.5 -206.5q-53 -20 -102 -46.5t-75.5 -48.5t-19.5 -31q-3 -11 -11 -14t-22 10q-57 71 18 109q128 66 312.5 132.5t348.5 113.5q516 153 1046 190q91 8 187 -4z" />
    <glyph glyph-name="itilde" unicode="&#x129;" horiz-adv-x="170" 
d="M247 429q11 0 3 -21q-15 -31 -48 -38q-23 -5 -66.5 13.5t-50.5 18.5q-13 1 -39 -12q0 -1 -1 -1t-1 1q-3 2 -2 6q4 9 10.5 18.5t22 18t33.5 4.5q21 -5 52.5 -17t42.5 -12t22 5t17 11zM185 192q5 4 9.5 2.5t5 -5.5t-2.5 -8l-87 -87l-64 -61q-34 -32 -46 -32
q-27 0 -44.5 22.5t-13.5 44.5q12 59 99 189q26 38 46 58q21 21 37 21q13 -1 26 -13.5t13 -19.5q0 -5 -3.5 -5.5t-4.5 1.5q-3 2 -15.5 -10t-31.5 -36t-37 -51q-20 -31 -58 -97q-11 -19 -13.5 -35.5t2.5 -18.5q8 -4 26 9q15 10 36 27q91 75 121 105z" />
    <glyph glyph-name="dotlessi" unicode="&#x131;" horiz-adv-x="170" 
d="M185 192q5 4 9.5 2.5t5 -5.5t-2.5 -8l-87 -87l-64 -61q-34 -32 -46 -32q-27 0 -44.5 22.5t-13.5 44.5q12 59 99 189q26 38 46 58q21 21 37 21q13 -1 26 -13.5t13 -19.5q0 -5 -3.5 -5.5t-4.5 1.5q-3 2 -15.5 -10t-31.5 -36t-37 -51q-20 -31 -58 -97q-11 -19 -13.5 -35.5
t2.5 -18.5q8 -4 26 9q15 10 36 27q91 75 121 105z" />
    <glyph glyph-name="Lslash" unicode="&#x141;" horiz-adv-x="1992" 
d="M2236 516q12 -7 17 -23.5t3 -23.5q-5 -9 -9 -1q-8 12 -364 -181q-15 -20 -33 -45t-29.5 -41t-17.5 -24q-52 -73 -121.5 -167.5t-115 -157.5t-74.5 -108q-18 -35 -38 -57q452 20 672 25q172 0 240.5 -7.5t81.5 -28.5q12 -17 -17 -51q-7 -10 -12 -15t-7 -4q-1 0 -4 7.5
t-21 12.5q-65 17 -220 20t-311 -3t-396.5 -16t-381.5 -13q-8 1 -11 1.5t-6.5 6t0.5 15.5q8 31 22 31l330 17q-27 17 -6 49q22 38 66 101.5t60 83.5q18 25 95.5 127.5t126.5 170.5q-22 -12 -364 -202q-4 -2 -6.5 -3.5t-5.5 -1.5t-4.5 -0.5t-3.5 1.5t-3 2.5t-3 4.5l-2.5 5
t-3 6.5t-3.5 7.5q-7 16 5 23q17 9 87.5 48t183.5 101t194 106q70 99 137 198q153 228 147 287q-21 118 -369 72t-747 -152.5t-656 -206.5q-54 -21 -103 -47.5t-76 -48t-20 -30.5q-2 -11 -10 -14t-21 9q-59 70 18 109q242 125 661 246q512 153 1046 190q92 8 188 -4
q44 -5 74.5 -29.5t41.5 -55.5t15 -63.5t-5 -55.5q-23 -91 -195 -335q102 55 169 89q62 32 83.5 40t31.5 3z" />
    <glyph glyph-name="lslash" unicode="&#x142;" horiz-adv-x="165" 
d="M384 685q13 -1 25.5 -13.5t13.5 -19.5q0 -9 -8 -5q-6 4 -48 -41.5t-112 -137.5t-139 -196h29q6 0 6 -12q0 -14 -2.5 -19t-7.5 -4h-48q-36 -57 -81 -134q-11 -19 -13.5 -35t2.5 -18q8 -4 26 9q22 15 36 26q91 75 121 105q5 4 9.5 2.5t5 -5.5t-2.5 -8l-87 -87
q-42 -40 -64 -60q-34 -32 -46 -32q-27 0 -44.5 21.5t-13.5 43.5q13 59 85 172h-37q-8 0 -8 6v26q1 4 10 4h58q102 155 248 335q62 77 87 77z" />
    <glyph glyph-name="OE" unicode="&#x152;" horiz-adv-x="3085" 
d="M2768 537q70 54 102 109.5t25 99.5t-37 78.5t-83 50.5t-115 11q-158 -13 -416 -132q-204 -94 -300 -186t6 -161q70 -47 263 -93q32 5 47 0q28 -6 28 -51q0 -12 -4 -16t-8.5 -2.5t-7.5 6.5q-68 9 -178 -19t-221.5 -79.5t-211 -111t-158.5 -121t-51 -102.5q7 -33 63 -53
t136 -20q351 0 1031 356q17 8 24 12q148 77 195 109q9 6 11 12t3 7q3 2 10 -4t11 -16q14 -30 -51 -70q-192 -114 -307 -173q-431 -220 -767 -278q-54 -9 -104.5 -12.5t-112.5 -0.5t-110 26t-70 65q-18 34 -19 74q2 70 87.5 146.5t206 135t235 100t191.5 56.5q-2 1 -42.5 9
t-88.5 24t-82 39q-23 17 -35 43q-87 -178 -306 -339q-219 -163 -545 -282.5t-560 -118.5q-143 1 -252 53.5t-143 144.5q-16 40 -20 85.5t12.5 112t58.5 133.5q99 154 296 298t415 249q8 3 38 16.5t44 19t37.5 14t40.5 11.5t31 3q30 -1 40 -38q4 -13 -3 -16t-13 2
q-28 23 -271 -112q-220 -118 -387 -255q-67 -54 -137 -131q-131 -149 -148 -268t86.5 -184t313.5 -55q147 6 325.5 56.5t325.5 115.5q286 119 478 285.5t230 321.5q5 22 6 25q12 80 -23 145q-45 83 -170 126t-297 47q-196 4 -468 -68.5t-529 -196.5q-50 -24 -93 -53.5
t-65 -53t-13 -31.5q0 -11 -7 -14.5t-23 7.5q-73 65 -6 109q135 87 237 129q302 125 488.5 167.5t406.5 59.5q227 15 373.5 -40.5t208.5 -172.5q22 -40 29 -83q73 69 207.5 137.5t232.5 103.5t154 49q135 33 243.5 21t154.5 -67q68 -81 29 -183l-3 -9q3 4 66.5 85.5
t101.5 128.5q6 21 30 13q22 -8 24 -28q0 -7 -3 -14q-24 -35 -77.5 -104.5t-97 -124t-43.5 -55.5q-4 -5 -17.5 -21.5t-20.5 -25t-18.5 -20.5t-22 -18.5t-20.5 -8.5q-15 -5 -31.5 7t-24.5 26q-9 13 -1 16z" />
    <glyph glyph-name="oe" unicode="&#x153;" horiz-adv-x="570" 
d="M601 191q7 7 12 1t-1 -12q-51 -47 -86.5 -77.5t-93.5 -65.5t-98 -37q-28 -1 -56.5 21.5t-28.5 43.5q0 38 33 101l-12 -3q-23 -5 -51 -3q4 -20 -11.5 -60.5t-58.5 -74.5q-30 -23 -69.5 -26.5t-71 19t-33.5 66.5t20.5 95t60.5 91q64 69 133 65q58 -3 78 -62q5 -12 3 -23
q-3 -13 -17.5 -23t-21.5 -9q-3 0 -4 2t-0.5 4t1.5 3q1 2 1 6t-2 12t-6 15q-37 53 -97.5 5t-88.5 -127q-20 -59 5 -87q25 -22 59 -12t56 39q33 44 29 87q-8 4 -11 9q-10 18 -1 35q5 9 14 5q42 -25 82 -21q16 1 37 9q37 52 86.5 93.5t89.5 37.5q17 -3 30 -14q46 -50 -2 -115
q-21 -28 -52.5 -49t-54.5 -23q-24 -3 -40 20q-6 9 -11 23q-14 -21 -15 -23q-54 -90 -22 -108q6 -6 36.5 -2t57.5 18q33 17 61 35t43 28.5t45 33.5t44 34zM492 298q-24 0 -62.5 -35.5t-71.5 -78.5q3 -2 3 -5q1 -2 6 -3t15.5 0t22.5 5.5t30 16t36 28.5q21 19 28 36.5t3.5 26.5
t-10.5 9z" />
    <glyph glyph-name="Scaron" unicode="&#x160;" horiz-adv-x="1724" 
d="M1241 1065q7 0 15.5 -4t14 -8.5t4.5 -5.5q-1 -3 -3 -3t-6 1t-10 -3q-22 -15 -90 -98l-1 -1q-11 -10 -33 -5t-24 11q-1 5 7 43.5t8 42.5q-1 12 15 9t15 -11q-7 -33 -13 -70q14 18 41 51q25 29 36.5 39.5t23.5 11.5zM1997 811q6 22 28 12q21 -10 21 -33q0 -7 -3 -13
q-35 -59 -201 -291q-5 -6 -16.5 -22t-18.5 -24.5t-17.5 -20.5t-20 -18.5t-18.5 -8.5q-14 -4 -29 9.5t-20 28.5q-3 6 -4 10t0 5.5t3 1.5q65 55 94 113.5t24 106t-36 85.5q-13 16 -37 32t-88 36.5t-149 25.5q-158 10 -312 -13t-382 -78q-547 -130 -665 -278q-61 -77 9 -136
q19 -16 46 -29q32 -15 174.5 -60.5t290.5 -99.5t216 -97q353 89 662 111q78 8 85 -25q1 -7 0.5 -13.5t-3 -10t-4.5 -3.5q-1 0 -6 3.5t-16 2.5q-92 1 -299 -35.5t-351 -79.5q44 -38 56.5 -81t-3 -82t-52.5 -75q-63 -58 -178 -95t-229 -33q-61 2 -96.5 26t-56.5 73
q-14 25 -7.5 64t37.5 67q59 52 164.5 94.5t216.5 69.5q-173 71 -315 118.5t-216 73t-139 61.5q-28 16 -44.5 36.5t-21 48t-4.5 42.5t2 43q2 32 27 68.5t67 62.5q112 73 283.5 135t336 98.5t286.5 57.5t188 26q446 40 564 -106q65 -87 23 -207q14 20 67.5 97t86.5 123z
M834 -226q53 34 80 67t21 72t-57 74q-73 -16 -176 -55.5t-174 -79.5q-53 -30 -75.5 -59.5t-11.5 -53.5q17 -38 97.5 -39t165.5 22.5t130 51.5z" />
    <glyph glyph-name="scaron" unicode="&#x161;" horiz-adv-x="295" 
d="M268 497q7 0 15.5 -4t14 -8.5t4.5 -5.5q-1 -3 -3 -3t-6 1t-10 -3q-22 -15 -90 -98l-1 -1q-11 -10 -33 -5t-24 11q-1 5 7 43.5t8 42.5q-1 12 15 9t15 -11q-7 -33 -13 -70q13 18 41 51q25 29 36.5 39.5t23.5 11.5zM311 191q7 6 12 0t-1 -12q-1 -2 -86 -87
q-2 -2 -11.5 -10.5t-14.5 -13.5t-15.5 -13.5t-19 -14.5t-19 -13t-21.5 -12t-22 -9q-25 -11 -58.5 -5.5t-49.5 34.5q-7 12 -5 26q6 30 30 29q10 -2 10 -6q-7 -8 -7 -24t10 -22q24 -16 38 6q16 27 -9 63q-4 6 -17.5 23.5t-20.5 28t-16 26.5t-12 32t-1 31q5 38 41.5 61t76 25
t69.5 -4q73 -23 56 -87q-7 -26 -22 -46q-22 -27 -34 -26q-13 1 -26 14t-14 20q-1 10 8 5q4 -2 11 4q47 39 44 70q-2 20 -38 22t-73 -20.5t-40 -64.5q-2 -22 47 -75q23 -26 32 -44.5t6 -46.5q23 15 36 26q24 19 73.5 62.5t52.5 47.5z" />
    <glyph glyph-name="Utilde" unicode="&#x168;" horiz-adv-x="2820" 
d="M2794 1034q11 0 3 -21q-15 -31 -48 -38q-23 -5 -66.5 13.5t-50.5 18.5q-14 1 -39 -12q0 -1 -1 -1t-1 1q-3 2 -2 6q4 9 10.5 18.5t22 18t33.5 4.5q21 -5 52.5 -17t42.5 -12t22 5t16 10zM3093 865q3 -19 -32 -64q-84 -115 -307.5 -449.5t-299.5 -443.5q22 8 34 -19
q4 -12 -1 -16.5t-16 -6.5q-8 -2 -20.5 -10.5t-22.5 -17t-30.5 -26t-31.5 -27.5q-21 -17 -27 -11q-24 20 -20 32q6 21 46 70q51 74 491 737q-140 -135 -315 -296t-265 -237q-466 -398 -656 -364q-56 11 -66 68q-10 55 20 134.5t92 173.5t122.5 174t139.5 180t113 148
q114 149 116 205q3 129 -490 54q-415 -63 -968 -227q-207 -62 -347 -114q-57 -22 -109 -48t-81 -47.5t-23 -30.5q-4 -11 -11.5 -14t-20.5 9q-51 69 30 109q259 125 690 246q531 153 1069 190q93 8 187 -4q93 -11 127 -72t-10 -135q-38 -67 -335 -453q-131 -170 -206 -301
t-51 -171q17 -25 60 -20.5t109 37t146.5 85t172 121t185.5 147t188 162.5q187 167 371.5 347.5t199.5 221.5q5 7 17 6t24.5 -11t11.5 -21z" />
    <glyph glyph-name="utilde" unicode="&#x169;" horiz-adv-x="345" 
d="M318 429q11 0 3 -21q-15 -31 -48 -38q-23 -5 -66.5 13.5t-50.5 18.5q-13 1 -39 -12q0 -1 -1 -1t-1 1q-3 2 -2 6q4 9 10.5 18.5t22 18t33.5 4.5q21 -5 52.5 -17t42.5 -12t22 5t16 11zM366 190q5 4 9.5 2.5t5 -5.5t-2.5 -8l-87 -87l-64 -61q-34 -32 -46 -32
q-27 0 -44.5 22.5t-13.5 44.5q0 1 2 8t4 11q-68 -84 -92 -85q-28 -1 -56.5 21.5t-28.5 43.5q0 39 32 99q50 93 102 149q21 23 36 21q13 0 26 -12t14 -19q0 -9 -8 -5q-13 9 -72.5 -82t-71.5 -124q-14 -40 7 -48q18 -7 65.5 38.5t96.5 106.5l43 66q26 38 46 58q21 21 37 21
q13 -1 26 -13.5t13 -19.5q1 -5 -2.5 -5.5t-5.5 1.5q-3 2 -15.5 -10t-31.5 -36t-37 -51q-20 -31 -58 -97q-11 -19 -13.5 -35.5t2.5 -18.5q8 -4 26 9q15 10 36 27q91 75 121 105z" />
    <glyph glyph-name="Ydieresis" unicode="&#x178;" horiz-adv-x="2936" 
d="M2539 1024q11 1 20.5 -10.5t10.5 -18.5q1 -3 -1.5 -5t-4.5 -1q-4 0 -24 -20q-10 -9 -26.5 3.5t-9.5 22.5q2 4 4 6q18 23 31 23zM2684 989q1 -3 -1.5 -5t-4.5 -1q-4 0 -24 -20q-10 -9 -26.5 3.5t-9.5 22.5q2 4 4 6q18 23 31 23q11 1 20.5 -10.5t10.5 -18.5zM3160 930
q15 -1 25 -14t10 -21q-1 -9 -10 -5q-1 1 -9 -8q-6 -6 -10.5 -11t-16 -16.5l-24.5 -24.5q-77 -137 -229.5 -360.5t-232.5 -324.5q53 21 222 59q25 5 48.5 -3t23.5 -27q1 -11 -2.5 -20.5t-8.5 -9.5q-15 4 -29 2q-45 -4 -122.5 -23t-132.5 -36l-54 -17q-2 -4 -47.5 -50
t-118.5 -115.5t-150.5 -137t-153 -118.5t-116.5 -56q-62 -8 -100.5 28.5t-32.5 96.5t62 112q59 55 132.5 100.5t170 83t146.5 54t153 47.5q8 9 24 26.5t66 79t102.5 130.5t130 180.5t152.5 230.5q-34 -34 -95 -93t-197.5 -182t-262 -225.5t-266.5 -196t-233 -121.5
q-59 -18 -106.5 -15.5t-75 22.5t-45.5 51t-17 69.5t11 77.5q23 73 124.5 219.5t191 271.5t91.5 159q7 129 -464 60q-404 -59 -952 -222q-227 -68 -375 -124q-56 -21 -106.5 -47.5t-78.5 -48.5t-22 -31q-4 -11 -12 -14t-20 10q-56 69 25 109q250 124 677 245
q528 154 1061 191q100 8 184 -5q45 -5 75.5 -24.5t40.5 -44.5t13 -53t-7 -51q-12 -37 -53 -98t-108.5 -156t-114.5 -170q-136 -202 -130 -263q13 -129 233 -29q173 78 389 249q147 116 311 259t242 215t96 90q81 82 108 84zM1951 -338q22 -23 91 7.5t143 91.5
q157 127 310 283q-262 -82 -421 -180q-26 -16 -49 -33.5t-45.5 -39.5t-35 -43t-12 -44t18.5 -42z" />
    <glyph glyph-name="Zcaron" unicode="&#x17d;" horiz-adv-x="1880" 
d="M1295 1087q9 0 17.5 -4t13.5 -8.5t4 -5.5q-1 -4 -3.5 -4t-7 1t-12.5 -3q-24 -16 -109 -118l-1 -2q-14 -12 -37 -7.5t-26 11.5q-1 6 9 52.5t10 51.5q-1 10 10 11q17 2 25 -10q1 -2 1 -4q-11 -47 -16 -84q37 46 50 61q29 35 43.5 48t28.5 14zM2045 818q26 -35 40 -77
t15 -91.5t-28 -102.5t-87 -98q-56 -43 -130.5 -84.5t-141.5 -71.5t-161 -64.5t-154.5 -54t-160 -51t-142.5 -45.5q85 -28 144 -66q346 114 605 143q72 7 80 -26q2 -11 0 -20.5t-6 -9.5q-1 0 -5.5 4t-15.5 3q-86 -2 -278 -46t-323 -92q41 -40 54 -91t1 -96.5t-42 -80.5
q-60 -71 -162.5 -109.5t-218.5 -31.5q-58 5 -90.5 27t-51.5 72q-25 67 35 133q54 59 151.5 111t195.5 84q-54 34 -122.5 52t-108.5 1q-13 -12 -17 8q-5 24 9 36q2 2 5 3l8 2q457 125 759 274q178 87 265 170q50 48 73 107.5t13 98.5q-38 147 -412 129q-95 -5 -277.5 -30.5
t-330.5 -62.5q-539 -136 -827 -260q-79 -34 -130.5 -66t-40.5 -45q-2 -11 -9 -14t-21 9q-67 67 3 104q335 185 1017 340q53 12 234.5 42t227.5 35q122 10 230 9.5t199 -28.5t130 -82zM1245 -277q128 97 -24 220q-184 -66 -313 -157q-48 -34 -68.5 -67t-10.5 -58
q13 -32 69 -36.5t123 11t130.5 40t93.5 47.5z" />
    <glyph glyph-name="zcaron" unicode="&#x17e;" horiz-adv-x="311" 
d="M268 497q7 0 15.5 -4t14 -8.5t4.5 -5.5q-1 -3 -3 -3t-6 1t-10 -3q-22 -15 -90 -98l-1 -1q-11 -10 -33 -5t-24 11q-1 5 7 43.5t8 42.5q-1 12 15 9t15 -11q-7 -33 -13 -70q13 18 41 51q25 29 36.5 39.5t23.5 11.5zM326 191q5 4 9 2.5t4.5 -5.5t-2.5 -8q-23 -23 -47 -44
t-42.5 -36t-56 -45t-69.5 -56q33 -40 15.5 -102.5t-68.5 -82.5q-36 -14 -65 6q-16 11 -21.5 35.5t7.5 55.5q18 33 92 91q-4 9 -29.5 22t-31.5 11q-2 -1 -7.5 6t-8 14.5t0.5 11.5q27 15 39 22q49 28 124.5 98.5t63.5 91.5q-2 6 -18.5 4t-35.5 -13q-92 -54 -115 -76
q-10 -10 -8 -14q4 -8 -5 -8q-7 1 -19.5 14t-12.5 26q-2 16 12 27q23 18 54.5 38t50 30.5t24.5 12.5q33 16 54 14q23 -2 49 -33.5t8 -71.5q-13 -29 -66 -80.5t-137 -108.5q9 -3 20.5 -10.5t13.5 -10.5q8 6 109 82zM87 -126q17 26 19 59t-7 46q-3 -2 -17.5 -16.5t-33.5 -37
t-25 -36.5q-6 -15 -0.5 -26.5t14.5 -14.5q27 -8 50 26z" />
    <glyph glyph-name="florin" unicode="&#x192;" horiz-adv-x="181" 
d="M330 487q1 -5 -2 -6t-5 0q-4 3 -16.5 -6.5t-33 -31.5t-43.5 -53q-59 -78 -137.5 -197t-94.5 -148q19 5 43 17q13 6 33.5 21.5t41.5 33.5t39.5 34.5t30.5 28.5l13 11q7 7 12 1t-1 -12l-6 -7q-7 -7 -16 -17t-20 -21.5t-22.5 -23.5t-19.5 -20q-90 -87 -150 -90
q18 -42 6.5 -99.5t-47.5 -87.5q-20 -16 -52 4t-30 37q2 30 65 154q-8 3 -10.5 4t-6.5 6t-4 12q-1 9 7.5 17.5t14.5 5.5q12 -6 18 -7q48 88 163.5 254.5t160.5 203.5q17 13 32.5 9t25.5 -13t11 -14zM-49 -119q18 51 9 93q-39 -79 -47 -97q-17 -39 -1 -41q15 -2 31 27
q5 8 8 18z" />
    <glyph glyph-name="Ohorn" unicode="&#x1a0;" horiz-adv-x="1861" 
d="M1923 808q-12 -46 -62 -71q10 -16 15 -25q74 -136 -16 -312.5t-303 -333.5q-219 -163 -545 -282.5t-560 -118.5q-143 1 -252 53.5t-143 144.5q-16 40 -20 85.5t12.5 112t58.5 133.5q99 154 296 298t415 249q8 3 38 16.5t44 19t37.5 14t40.5 11.5t31 3q30 -1 40 -38
q4 -13 -3 -16t-13 2q-28 23 -271 -112q-220 -118 -387 -255q-67 -54 -137 -131q-131 -149 -148 -268t86.5 -184t313.5 -55q147 6 325.5 56.5t325.5 115.5q148 62 276 140t218.5 160t149.5 168t69.5 163t-22.5 146q-45 83 -170 126t-297 47q-196 4 -468 -68.5t-529 -196.5
q-50 -24 -93 -53.5t-65 -53t-13 -31.5q0 -11 -7 -14.5t-23 7.5q-73 65 -6 109q135 87 237 129q302 125 488.5 167.5t406.5 59.5q398 26 548 -161q28 -11 36 17q7 29 0 39q-2 2 -6 1q-3 -2 -5 0t1 6q5 7 23 15t31 5q11 -3 1 -39z" />
    <glyph glyph-name="ohorn" unicode="&#x1a1;" horiz-adv-x="298" 
d="M380 272q5 6 10 2t2 -10q-44 -84 -122 -101q-23 -5 -51 -3q4 -20 -11.5 -60.5t-58.5 -74.5q-30 -23 -69.5 -26.5t-71 19t-33.5 66.5t20.5 95t60.5 91q64 69 133 65q54 -2 75 -54q22 -3 29 19q7 29 0 39q-2 2 -6 1q-3 -2 -5 0t1 6q5 7 23 15t31 5q11 -3 1 -39
q-12 -49 -67 -73h-1v-4q-3 -13 -17.5 -23t-21.5 -9q-3 0 -4 2t-0.5 4t1.5 3q1 2 1 6t-2 12t-6 15q-37 53 -97.5 5t-88.5 -127q-20 -59 5 -87q25 -22 59 -12t56 39q33 44 29 87q-8 4 -11 9q-10 18 -1 35q5 9 14 5q42 -25 82 -21q61 6 112 79z" />
    <glyph glyph-name="Uhorn" unicode="&#x1af;" horiz-adv-x="2820" 
d="M3161 961q11 -3 1 -39q-12 -49 -67 -73l-4 -1q-5 -15 -30 -47q-84 -115 -307.5 -449.5t-299.5 -443.5q22 8 34 -19q4 -12 -1 -16.5t-16 -6.5q-8 -2 -20.5 -10.5t-22.5 -17t-30.5 -26t-31.5 -27.5q-21 -17 -27 -11q-24 20 -20 32q6 21 46 70q51 74 491 737
q-140 -135 -315 -296t-265 -237q-466 -398 -656 -364q-56 11 -66 68q-10 55 20 134.5t92 173.5t122.5 174t139.5 180t113 148q114 149 116 205q3 129 -490 54q-415 -63 -968 -227q-207 -62 -347 -114q-57 -22 -109 -48t-81 -47.5t-23 -30.5q-4 -11 -11.5 -14t-20.5 9
q-51 69 30 109q259 125 690 246q531 153 1069 190q93 8 187 -4q93 -11 127 -72t-10 -135q-38 -67 -335 -453q-131 -170 -206 -301t-51 -171q17 -25 60 -20.5t109 37t146.5 85t172 121t185.5 147t188 162.5q187 167 371.5 347.5t199.5 221.5q4 10 23.5 4.5t27.5 -19.5
q19 -3 26 19q7 29 0 39q-2 2 -6 1q-3 -2 -5 0t1 6q5 7 23 15t31 5z" />
    <glyph glyph-name="uhorn" unicode="&#x1b0;" horiz-adv-x="345" 
d="M252 200q-20 -31 -58 -97q-11 -19 -13.5 -35.5t2.5 -18.5q8 -4 26 9q15 10 36 27q91 75 121 105q5 4 9.5 2.5t5 -5.5t-2.5 -8l-87 -87l-64 -61q-34 -32 -46 -32q-27 0 -44.5 22.5t-13.5 44.5q0 1 2 8t4 11q-68 -84 -92 -85q-28 -1 -56.5 21.5t-28.5 43.5q0 39 32 99
q50 93 102 149q21 23 36 21q13 0 26 -12t14 -19q0 -9 -8 -5q-13 9 -72.5 -82t-71.5 -124q-14 -40 7 -48q18 -7 65.5 38.5t96.5 106.5l43 66q26 38 46 58q21 21 37 21q16 -1 29 -16q20 -2 26 19q7 29 0 39q-2 2 -6 1q-3 -2 -5 0t1 6q5 7 23 15t31 5q11 -3 1 -39
q-12 -49 -67 -73q-6 -1 -12 0q-33 -28 -74 -91z" />
    <glyph glyph-name="gravecomb" unicode="&#x300;" horiz-adv-x="0" 
d="M-119 627q14 0 32 -22q24 -28 33 -47q4 -9 -10 -18.5t-22 -0.5q-11 13 -26.5 27t-26 21.5t-12.5 6.5q-8 0 -7 6q0 6 13 17t26 10z" />
    <glyph glyph-name="acutecomb" unicode="&#x301;" horiz-adv-x="0" 
d="M-265 652q12 1 24 -10.5t12 -17.5q1 -6 -6 -6q-2 1 -11.5 -7t-24 -22t-25.5 -28q-7 -9 -20 1t-9 19q7 19 30 48q17 23 30 23z" />
    <glyph glyph-name="uni0302" unicode="&#x302;" horiz-adv-x="0" 
d="M-261 566q2 -8 -12.5 -17t-20.5 -1q-15 26 -29 42q-27 -22 -44 -42q-8 -9 -19.5 0.5t-5.5 17.5q10 17 40 43q20 20 34 20h12q14 0 25 -20q18 -27 20 -43z" />
    <glyph glyph-name="tildecomb" unicode="&#x303;" horiz-adv-x="0" 
d="M-198 595q11 0 3 -21q-15 -31 -48 -38q-23 -5 -66.5 13.5t-50.5 18.5q-14 1 -39 -12q0 -1 -1 -1t-1 1q-3 2 -2 6q4 9 10.5 18.5t22 18t33.5 4.5q21 -5 52.5 -17t42.5 -12t22 5t16 11z" />
    <glyph glyph-name="uni0306" unicode="&#x306;" horiz-adv-x="0" 
d="M-258 550q-22 -18 -56.5 -13.5t-51.5 34.5q-7 12 -5 26q6 30 30 29q10 -2 10 -6q-7 -8 -7 -24t10 -22q25 0 41.5 5.5t31 14.5t25.5 13q11 -9 8 -19.5t-11 -18t-25 -19.5z" />
    <glyph glyph-name="hookabovecomb" unicode="&#x309;" horiz-adv-x="0" 
d="M-89 630q-14 -30 -47 -42q-13 -5 -18 -14q-2 -8 -12 -8q-11 0 -6 16q7 20 32 31q11 5 23 26q6 12 3 21.5t-9 14.5t-9 4q-7 -2 -11 -13t-5 -20v-10l-2 -3q-20 -8 -23 12q-1 15 11 31q7 10 26 17t28 3q18 -7 23 -25.5t-4 -40.5z" />
    <glyph glyph-name="uni031B" unicode="&#x31b;" horiz-adv-x="0" 
d="M-73 484l3 23q36 -22 46 12q7 29 0 39q-2 2 -6 1q-3 -2 -5 0t1 6q5 7 23 15t31 5q11 -3 1 -39q-12 -49 -67 -73q-13 -3 -27 11z" />
    <glyph glyph-name="dotbelowcomb" unicode="&#x323;" horiz-adv-x="0" 
d="M-48 -69q1 -6 -6 -6q-2 1 -24 -19q-10 -10 -26.5 3t-9.5 23q2 4 4 5q16 22 31 24q11 1 20.5 -10.5t10.5 -19.5z" />
    <glyph glyph-name="uni1EA0" unicode="&#x1ea0;" horiz-adv-x="1886" 
d="M2102 866q74 64 107 73q32 8 42 -37q2 -9 -4.5 -15.5t-12.5 -4.5q-1 1 -6.5 -2.5t-20 -14.5t-39 -31t-63.5 -52q-9 -13 -62.5 -83.5t-94.5 -127t-103.5 -151.5t-113.5 -186q60 2 79 1h11t12 -0.5t10 -1.5t9 -3t6.5 -6t4.5 -10q1 -9 -2 -26q-4 -33 -18 -37q-7 -2 -10 9
q-1 1 -1 2q-1 4 -5.5 6.5t-12.5 4t-17 2t-23 0.5t-24.5 -0.5t-27.5 -1.5t-27 -1q-9 -7 -58.5 -115.5t-84.5 -220t-4 -117.5q12 -2 -3 -13q-27 -18 -49 -6q-15 8 -18 30q-9 63 39.5 190.5t114.5 249.5q-221 -15 -364 -35q-174 -116 -537 -336q-55 -34 -109.5 -64t-119.5 -62
t-125 -54t-118 -37t-109 -15t-88 17q-50 24 -53 87q-2 54 50 126.5t133.5 143t181 141.5t188.5 125t160 90q5 2 14 7q129 65 171 65q29 0 33 -39q1 -10 -2 -14.5t-7.5 -4t-7.5 3.5q-15 17 -158.5 -63t-307 -190.5t-289 -229t-107.5 -169.5q10 -27 43.5 -34.5t86.5 6
t112.5 35t136.5 60t143 72.5t147 82t132.5 78.5t116 71.5t82 52.5t44.5 28.5l-333 -35q-2 0 -8.5 -1t-11 -1.5t-10.5 0t-9.5 2.5t-4.5 7q-4 12 0 30.5t11 19.5q3 1 7 -4t10 -4q38 5 225 23.5t216 23.5q321 212 625 458q56 45 110 89t85 70.5t56.5 48.5t28.5 24zM1665 229
q112 193 290 437q-348 -286 -607 -468q201 26 317 31zM1162 -319q1 -6 -6 -6q-2 1 -24 -19q-10 -10 -26.5 3t-9.5 23q2 4 4 5q16 22 31 24q11 1 20.5 -10.5t10.5 -19.5z" />
    <glyph glyph-name="uni1EA1" unicode="&#x1ea1;" 
d="M367 190q5 4 9.5 2.5t5 -5.5t-2.5 -8l-87 -87l-64 -61q-33 -31 -46 -31q-27 0 -44.5 22t-13.5 44q0 1 2 8t4 11q-68 -84 -92 -85q-28 -1 -56.5 21.5t-28.5 43.5q0 42 29.5 97.5t77.5 103.5q70 72 125 66q20 -1 33.5 -18t17.5 -40q18 26 33 39q21 21 37 21q13 -1 26 -13.5
t13 -19.5q1 -5 -2.5 -5.5t-5.5 1.5q-3 2 -15 -9t-31 -35t-38 -53q-38 -58 -58 -97q-24 -45 -11 -54q8 -4 26 9q15 10 36 27q91 75 121 105zM18 44q18 -7 65.5 38.5t96.5 106.5l37 56q-1 6 -2.5 12t-8 14.5t-15 11.5t-25 -2t-37.5 -21q-24 -18 -49.5 -51t-37.5 -53t-18 -32
q-13 -26 -16 -44.5t0.5 -26t9.5 -9.5zM94 -69q1 -6 -6 -6q-2 1 -24 -19q-10 -10 -26.5 3t-9.5 23q2 4 4 5q16 22 31 24q11 1 20.5 -10.5t10.5 -19.5z" />
    <glyph glyph-name="uni1EA2" unicode="&#x1ea2;" horiz-adv-x="1886" 
d="M2387 1027q-14 -30 -47 -42q-13 -5 -18 -14q-2 -8 -12 -8q-11 0 -6 16q7 20 32 31q11 5 23 26q6 12 3 21.5t-9 14.5t-9 4q-7 -2 -11 -13t-5 -21v-9l-2 -3q-20 -8 -23 12q-1 15 11 31q7 10 26 17t28 3q18 -7 23 -25.5t-4 -40.5zM2102 866q74 64 107 73q32 8 42 -37
q2 -9 -4.5 -15.5t-12.5 -4.5q-1 1 -6.5 -2.5t-20 -14.5t-39 -31t-63.5 -52q-9 -13 -62.5 -83.5t-94.5 -127t-103.5 -151.5t-113.5 -186q60 2 79 1h11t12 -0.5t10 -1.5t9 -3t6.5 -6t4.5 -10q1 -9 -2 -26q-4 -33 -18 -37q-7 -2 -10 9q-1 1 -1 2q-1 4 -5.5 6.5t-12.5 4t-17 2
t-23 0.5t-24.5 -0.5t-27.5 -1.5t-27 -1q-9 -7 -58.5 -115.5t-84.5 -220t-4 -117.5q12 -2 -3 -13q-27 -18 -49 -6q-15 8 -18 30q-9 63 39.5 190.5t114.5 249.5q-221 -15 -364 -35q-174 -116 -537 -336q-55 -34 -109.5 -64t-119.5 -62t-125 -54t-118 -37t-109 -15t-88 17
q-50 24 -53 87q-2 54 50 126.5t133.5 143t181 141.5t188.5 125t160 90q5 2 14 7q129 65 171 65q29 0 33 -39q1 -10 -2 -14.5t-7.5 -4t-7.5 3.5q-15 17 -158.5 -63t-307 -190.5t-289 -229t-107.5 -169.5q10 -27 43.5 -34.5t86.5 6t112.5 35t136.5 60t143 72.5t147 82
t132.5 78.5t116 71.5t82 52.5t44.5 28.5l-333 -35q-2 0 -8.5 -1t-11 -1.5t-10.5 0t-9.5 2.5t-4.5 7q-4 12 0 30.5t11 19.5q3 1 7 -4t10 -4q38 5 225 23.5t216 23.5q321 212 625 458q56 45 110 89t85 70.5t56.5 48.5t28.5 24zM1665 229q112 193 290 437q-348 -286 -607 -468
q201 26 317 31z" />
    <glyph glyph-name="uni1EA3" unicode="&#x1ea3;" 
d="M352 447q-14 -30 -47 -42q-13 -5 -18 -14q-2 -8 -12 -8q-11 0 -6 16q8 20 32 31q11 5 23 26q6 12 3 21.5t-9 14.5t-9 4q-7 -2 -11 -13t-4 -21l-1 -9l-2 -3q-20 -8 -23 12q-1 15 11 31q7 10 26 17t28 3q18 -7 23 -25.5t-4 -40.5zM367 190q5 4 9.5 2.5t5 -5.5t-2.5 -8
l-87 -87l-64 -61q-33 -31 -46 -31q-27 0 -44.5 22t-13.5 44q0 1 2 8t4 11q-68 -84 -92 -85q-28 -1 -56.5 21.5t-28.5 43.5q0 42 29.5 97.5t77.5 103.5q70 72 125 66q20 -1 33.5 -18t17.5 -40q18 26 33 39q21 21 37 21q13 -1 26 -13.5t13 -19.5q1 -5 -2.5 -5.5t-5.5 1.5
q-3 2 -15 -9t-31 -35t-38 -53q-38 -58 -58 -97q-24 -45 -11 -54q8 -4 26 9q15 10 36 27q91 75 121 105zM18 44q18 -7 65.5 38.5t96.5 106.5l37 56q-1 6 -2.5 12t-8 14.5t-15 11.5t-25 -2t-37.5 -21q-24 -18 -49.5 -51t-37.5 -53t-18 -32q-13 -26 -16 -44.5t0.5 -26t9.5 -9.5
z" />
    <glyph glyph-name="uni1EA4" unicode="&#x1ea4;" horiz-adv-x="1886" 
d="M2432 1107q12 1 24 -10.5t12 -17.5q1 -6 -6 -6q-2 1 -11.5 -7t-24 -22t-25.5 -28q-7 -9 -20 1t-9 19q7 19 30 48q17 23 30 23zM2357 980q2 -8 -12.5 -17t-20.5 -1q-15 26 -29 42q-27 -22 -44 -42q-8 -9 -19.5 0.5t-5.5 17.5q10 17 40 43q20 20 34 20h12q14 0 25 -20
q18 -27 20 -43zM2102 866q74 64 107 73q32 8 42 -37q2 -9 -4.5 -15.5t-12.5 -4.5q-1 1 -6.5 -2.5t-20 -14.5t-39 -31t-63.5 -52q-9 -13 -62.5 -83.5t-94.5 -127t-103.5 -151.5t-113.5 -186q60 2 79 1h11t12 -0.5t10 -1.5t9 -3t6.5 -6t4.5 -10q1 -9 -2 -26q-4 -33 -18 -37
q-7 -2 -10 9q-1 1 -1 2q-1 4 -5.5 6.5t-12.5 4t-17 2t-23 0.5t-24.5 -0.5t-27.5 -1.5t-27 -1q-9 -7 -58.5 -115.5t-84.5 -220t-4 -117.5q12 -2 -3 -13q-27 -18 -49 -6q-15 8 -18 30q-9 63 39.5 190.5t114.5 249.5q-221 -15 -364 -35q-174 -116 -537 -336q-55 -34 -109.5 -64
t-119.5 -62t-125 -54t-118 -37t-109 -15t-88 17q-50 24 -53 87q-2 54 50 126.5t133.5 143t181 141.5t188.5 125t160 90q5 2 14 7q129 65 171 65q29 0 33 -39q1 -10 -2 -14.5t-7.5 -4t-7.5 3.5q-15 17 -158.5 -63t-307 -190.5t-289 -229t-107.5 -169.5q10 -27 43.5 -34.5
t86.5 6t112.5 35t136.5 60t143 72.5t147 82t132.5 78.5t116 71.5t82 52.5t44.5 28.5l-333 -35q-2 0 -8.5 -1t-11 -1.5t-10.5 0t-9.5 2.5t-4.5 7q-4 12 0 30.5t11 19.5q3 1 7 -4t10 -4q38 5 225 23.5t216 23.5q321 212 625 458q56 45 110 89t85 70.5t56.5 48.5t28.5 24z
M1665 229q112 193 290 437q-348 -286 -607 -468q201 26 317 31z" />
    <glyph glyph-name="uni1EA5" unicode="&#x1ea5;" 
d="M397 527q12 1 24 -10.5t12 -17.5q1 -6 -6 -6q-2 1 -11.5 -7t-24 -22t-25.5 -28q-7 -9 -20 1t-9 19q7 19 30 48q17 23 30 23zM322 400q2 -8 -12.5 -17t-20.5 -1q-15 26 -29 42q-27 -22 -44 -42q-8 -9 -19.5 0.5t-5.5 17.5q10 17 40 43q20 20 34 20h12q14 0 25 -20
q18 -27 20 -43zM367 190q5 4 9.5 2.5t5 -5.5t-2.5 -8l-87 -87l-64 -61q-33 -31 -46 -31q-27 0 -44.5 22t-13.5 44q0 1 2 8t4 11q-68 -84 -92 -85q-28 -1 -56.5 21.5t-28.5 43.5q0 42 29.5 97.5t77.5 103.5q70 72 125 66q20 -1 33.5 -18t17.5 -40q18 26 33 39q21 21 37 21
q13 -1 26 -13.5t13 -19.5q1 -5 -2.5 -5.5t-5.5 1.5q-3 2 -15 -9t-31 -35t-38 -53q-38 -58 -58 -97q-24 -45 -11 -54q8 -4 26 9q15 10 36 27q91 75 121 105zM18 44q18 -7 65.5 38.5t96.5 106.5l37 56q-1 6 -2.5 12t-8 14.5t-15 11.5t-25 -2t-37.5 -21q-24 -18 -49.5 -51
t-37.5 -53t-18 -32q-13 -26 -16 -44.5t0.5 -26t9.5 -9.5z" />
    <glyph glyph-name="uni1EA6" unicode="&#x1ea6;" horiz-adv-x="1886" 
d="M2342 1119q14 0 32 -22q24 -28 33 -47q4 -9 -10 -18.5t-22 -0.5q-11 13 -26.5 27t-26 21.5t-12.5 6.5q-8 0 -7 6q0 6 13 17t26 10zM2357 980q2 -8 -12.5 -17t-20.5 -1q-15 26 -29 42q-27 -22 -44 -42q-8 -9 -19.5 0.5t-5.5 17.5q10 17 40 43q20 20 34 20h12q14 0 25 -20
q18 -27 20 -43zM2102 866q74 64 107 73q32 8 42 -37q2 -9 -4.5 -15.5t-12.5 -4.5q-1 1 -6.5 -2.5t-20 -14.5t-39 -31t-63.5 -52q-9 -13 -62.5 -83.5t-94.5 -127t-103.5 -151.5t-113.5 -186q60 2 79 1h11t12 -0.5t10 -1.5t9 -3t6.5 -6t4.5 -10q1 -9 -2 -26q-4 -33 -18 -37
q-7 -2 -10 9q-1 1 -1 2q-1 4 -5.5 6.5t-12.5 4t-17 2t-23 0.5t-24.5 -0.5t-27.5 -1.5t-27 -1q-9 -7 -58.5 -115.5t-84.5 -220t-4 -117.5q12 -2 -3 -13q-27 -18 -49 -6q-15 8 -18 30q-9 63 39.5 190.5t114.5 249.5q-221 -15 -364 -35q-174 -116 -537 -336q-55 -34 -109.5 -64
t-119.5 -62t-125 -54t-118 -37t-109 -15t-88 17q-50 24 -53 87q-2 54 50 126.5t133.5 143t181 141.5t188.5 125t160 90q5 2 14 7q129 65 171 65q29 0 33 -39q1 -10 -2 -14.5t-7.5 -4t-7.5 3.5q-15 17 -158.5 -63t-307 -190.5t-289 -229t-107.5 -169.5q10 -27 43.5 -34.5
t86.5 6t112.5 35t136.5 60t143 72.5t147 82t132.5 78.5t116 71.5t82 52.5t44.5 28.5l-333 -35q-2 0 -8.5 -1t-11 -1.5t-10.5 0t-9.5 2.5t-4.5 7q-4 12 0 30.5t11 19.5q3 1 7 -4t10 -4q38 5 225 23.5t216 23.5q321 212 625 458q56 45 110 89t85 70.5t56.5 48.5t28.5 24z
M1665 229q112 193 290 437q-348 -286 -607 -468q201 26 317 31z" />
    <glyph glyph-name="uni1EA7" unicode="&#x1ea7;" 
d="M307 539q14 0 32 -22q24 -28 33 -47q4 -9 -10 -18.5t-22 -0.5q-11 13 -26.5 27t-26 21.5t-12.5 6.5q-8 0 -7 6q0 6 13 17t26 10zM322 400q2 -8 -12.5 -17t-20.5 -1q-15 26 -29 42q-27 -22 -44 -42q-8 -9 -19.5 0.5t-5.5 17.5q10 17 40 43q20 20 34 20h12q14 0 25 -20
q18 -27 20 -43zM367 190q5 4 9.5 2.5t5 -5.5t-2.5 -8l-87 -87l-64 -61q-33 -31 -46 -31q-27 0 -44.5 22t-13.5 44q0 1 2 8t4 11q-68 -84 -92 -85q-28 -1 -56.5 21.5t-28.5 43.5q0 42 29.5 97.5t77.5 103.5q70 72 125 66q20 -1 33.5 -18t17.5 -40q18 26 33 39q21 21 37 21
q13 -1 26 -13.5t13 -19.5q1 -5 -2.5 -5.5t-5.5 1.5q-3 2 -15 -9t-31 -35t-38 -53q-38 -58 -58 -97q-24 -45 -11 -54q8 -4 26 9q15 10 36 27q91 75 121 105zM18 44q18 -7 65.5 38.5t96.5 106.5l37 56q-1 6 -2.5 12t-8 14.5t-15 11.5t-25 -2t-37.5 -21q-24 -18 -49.5 -51
t-37.5 -53t-18 -32q-13 -26 -16 -44.5t0.5 -26t9.5 -9.5z" />
    <glyph glyph-name="uni1EA8" unicode="&#x1ea8;" horiz-adv-x="1886" 
d="M2460 1067q-14 -30 -47 -42q-13 -5 -18 -14q-2 -8 -12 -8q-11 0 -6 16q7 20 32 31q11 5 23 26q6 12 3 21.5t-9 14.5t-9 4q-7 -2 -11 -13t-4 -21l-1 -9l-2 -3q-20 -8 -23 12q-1 15 11 31q7 10 26 17t28 3q18 -7 23 -25.5t-4 -40.5zM2357 980q2 -8 -12.5 -17t-20.5 -1
q-15 26 -29 42q-27 -22 -44 -42q-8 -9 -19.5 0.5t-5.5 17.5q10 17 40 43q20 20 34 20h12q14 0 25 -20q18 -27 20 -43zM2102 866q74 64 107 73q32 8 42 -37q2 -9 -4.5 -15.5t-12.5 -4.5q-1 1 -6.5 -2.5t-20 -14.5t-39 -31t-63.5 -52q-9 -13 -62.5 -83.5t-94.5 -127
t-103.5 -151.5t-113.5 -186q60 2 79 1h11t12 -0.5t10 -1.5t9 -3t6.5 -6t4.5 -10q1 -9 -2 -26q-4 -33 -18 -37q-7 -2 -10 9q-1 1 -1 2q-1 4 -5.5 6.5t-12.5 4t-17 2t-23 0.5t-24.5 -0.5t-27.5 -1.5t-27 -1q-9 -7 -58.5 -115.5t-84.5 -220t-4 -117.5q12 -2 -3 -13
q-27 -18 -49 -6q-15 8 -18 30q-9 63 39.5 190.5t114.5 249.5q-221 -15 -364 -35q-174 -116 -537 -336q-55 -34 -109.5 -64t-119.5 -62t-125 -54t-118 -37t-109 -15t-88 17q-50 24 -53 87q-2 54 50 126.5t133.5 143t181 141.5t188.5 125t160 90q5 2 14 7q129 65 171 65
q29 0 33 -39q1 -10 -2 -14.5t-7.5 -4t-7.5 3.5q-15 17 -158.5 -63t-307 -190.5t-289 -229t-107.5 -169.5q10 -27 43.5 -34.5t86.5 6t112.5 35t136.5 60t143 72.5t147 82t132.5 78.5t116 71.5t82 52.5t44.5 28.5l-333 -35q-2 0 -8.5 -1t-11 -1.5t-10.5 0t-9.5 2.5t-4.5 7
q-4 12 0 30.5t11 19.5q3 1 7 -4t10 -4q38 5 225 23.5t216 23.5q321 212 625 458q56 45 110 89t85 70.5t56.5 48.5t28.5 24zM1665 229q112 193 290 437q-348 -286 -607 -468q201 26 317 31z" />
    <glyph glyph-name="uni1EA9" unicode="&#x1ea9;" 
d="M425 487q-14 -30 -47 -42q-13 -5 -18 -14q-2 -8 -12 -8q-11 0 -6 16q8 20 32 31q11 5 23 26q6 12 3 21.5t-9 14.5t-9 4q-7 -2 -11 -13t-5 -21v-9l-2 -3q-20 -8 -23 12q-1 15 11 31q7 10 26 17t28 3q18 -7 23 -25.5t-4 -40.5zM322 400q2 -8 -12.5 -17t-20.5 -1
q-15 26 -29 42q-27 -22 -44 -42q-8 -9 -19.5 0.5t-5.5 17.5q10 17 40 43q20 20 34 20h12q14 0 25 -20q18 -27 20 -43zM367 190q5 4 9.5 2.5t5 -5.5t-2.5 -8l-87 -87l-64 -61q-33 -31 -46 -31q-27 0 -44.5 22t-13.5 44q0 1 2 8t4 11q-68 -84 -92 -85q-28 -1 -56.5 21.5
t-28.5 43.5q0 42 29.5 97.5t77.5 103.5q70 72 125 66q20 -1 33.5 -18t17.5 -40q18 26 33 39q21 21 37 21q13 -1 26 -13.5t13 -19.5q1 -5 -2.5 -5.5t-5.5 1.5q-3 2 -15 -9t-31 -35t-38 -53q-38 -58 -58 -97q-24 -45 -11 -54q8 -4 26 9q15 10 36 27q91 75 121 105zM18 44
q18 -7 65.5 38.5t96.5 106.5l37 56q-1 6 -2.5 12t-8 14.5t-15 11.5t-25 -2t-37.5 -21q-24 -18 -49.5 -51t-37.5 -53t-18 -32q-13 -26 -16 -44.5t0.5 -26t9.5 -9.5z" />
    <glyph glyph-name="uni1EAA" unicode="&#x1eaa;" horiz-adv-x="1886" 
d="M2450 1109q11 0 3 -21q-15 -31 -48 -38q-23 -5 -66.5 13.5t-50.5 18.5q-14 1 -39 -12q0 -1 -1 -1t-1 1q-3 2 -2 6q4 9 10.5 18.5t22 18t33.5 4.5q21 -5 52.5 -17t42.5 -12t22 5t16 11zM2357 980q2 -8 -12.5 -17t-20.5 -1q-15 26 -29 42q-27 -22 -44 -42q-8 -9 -19.5 0.5
t-5.5 17.5q10 17 40 43q20 20 34 20h12q14 0 25 -20q18 -27 20 -43zM2102 866q74 64 107 73q32 8 42 -37q2 -9 -4.5 -15.5t-12.5 -4.5q-1 1 -6.5 -2.5t-20 -14.5t-39 -31t-63.5 -52q-9 -13 -62.5 -83.5t-94.5 -127t-103.5 -151.5t-113.5 -186q60 2 79 1h11t12 -0.5t10 -1.5
t9 -3t6.5 -6t4.5 -10q1 -9 -2 -26q-4 -33 -18 -37q-7 -2 -10 9q-1 1 -1 2q-1 4 -5.5 6.5t-12.5 4t-17 2t-23 0.5t-24.5 -0.5t-27.5 -1.5t-27 -1q-9 -7 -58.5 -115.5t-84.5 -220t-4 -117.5q12 -2 -3 -13q-27 -18 -49 -6q-15 8 -18 30q-9 63 39.5 190.5t114.5 249.5
q-221 -15 -364 -35q-174 -116 -537 -336q-55 -34 -109.5 -64t-119.5 -62t-125 -54t-118 -37t-109 -15t-88 17q-50 24 -53 87q-2 54 50 126.5t133.5 143t181 141.5t188.5 125t160 90q5 2 14 7q129 65 171 65q29 0 33 -39q1 -10 -2 -14.5t-7.5 -4t-7.5 3.5q-15 17 -158.5 -63
t-307 -190.5t-289 -229t-107.5 -169.5q10 -27 43.5 -34.5t86.5 6t112.5 35t136.5 60t143 72.5t147 82t132.5 78.5t116 71.5t82 52.5t44.5 28.5l-333 -35q-2 0 -8.5 -1t-11 -1.5t-10.5 0t-9.5 2.5t-4.5 7q-4 12 0 30.5t11 19.5q3 1 7 -4t10 -4q38 5 225 23.5t216 23.5
q321 212 625 458q56 45 110 89t85 70.5t56.5 48.5t28.5 24zM1665 229q112 193 290 437q-348 -286 -607 -468q201 26 317 31z" />
    <glyph glyph-name="uni1EAB" unicode="&#x1eab;" 
d="M415 529q11 0 3 -21q-15 -31 -48 -38q-23 -5 -66.5 13.5t-50.5 18.5q-14 1 -39 -12q0 -1 -1 -1t-1 1q-3 2 -2 6q4 9 10.5 18.5t22 18t33.5 4.5q21 -5 52.5 -17t42.5 -12t22 5t17 11zM322 400q2 -8 -12.5 -17t-20.5 -1q-15 26 -29 42q-27 -22 -44 -42q-8 -9 -19.5 0.5
t-5.5 17.5q10 17 40 43q20 20 34 20h12q14 0 25 -20q18 -27 20 -43zM367 190q5 4 9.5 2.5t5 -5.5t-2.5 -8l-87 -87l-64 -61q-33 -31 -46 -31q-27 0 -44.5 22t-13.5 44q0 1 2 8t4 11q-68 -84 -92 -85q-28 -1 -56.5 21.5t-28.5 43.5q0 42 29.5 97.5t77.5 103.5q70 72 125 66
q20 -1 33.5 -18t17.5 -40q18 26 33 39q21 21 37 21q13 -1 26 -13.5t13 -19.5q1 -5 -2.5 -5.5t-5.5 1.5q-3 2 -15 -9t-31 -35t-38 -53q-38 -58 -58 -97q-24 -45 -11 -54q8 -4 26 9q15 10 36 27q91 75 121 105zM18 44q18 -7 65.5 38.5t96.5 106.5l37 56q-1 6 -2.5 12t-8 14.5
t-15 11.5t-25 -2t-37.5 -21q-24 -18 -49.5 -51t-37.5 -53t-18 -32q-13 -26 -16 -44.5t0.5 -26t9.5 -9.5z" />
    <glyph glyph-name="uni1EAC" unicode="&#x1eac;" horiz-adv-x="1886" 
d="M2357 980q2 -8 -12.5 -17t-20.5 -1q-15 26 -29 42q-27 -22 -44 -42q-8 -9 -19.5 0.5t-5.5 17.5q10 17 40 43q20 20 34 20h12q14 0 25 -20q18 -27 20 -43zM2102 866q74 64 107 73q32 8 42 -37q2 -9 -4.5 -15.5t-12.5 -4.5q-1 1 -6.5 -2.5t-20 -14.5t-39 -31t-63.5 -52
q-9 -13 -62.5 -83.5t-94.5 -127t-103.5 -151.5t-113.5 -186q60 2 79 1h11t12 -0.5t10 -1.5t9 -3t6.5 -6t4.5 -10q1 -9 -2 -26q-4 -33 -18 -37q-7 -2 -10 9q-1 1 -1 2q-1 4 -5.5 6.5t-12.5 4t-17 2t-23 0.5t-24.5 -0.5t-27.5 -1.5t-27 -1q-9 -7 -58.5 -115.5t-84.5 -220
t-4 -117.5q12 -2 -3 -13q-27 -18 -49 -6q-15 8 -18 30q-9 63 39.5 190.5t114.5 249.5q-221 -15 -364 -35q-174 -116 -537 -336q-55 -34 -109.5 -64t-119.5 -62t-125 -54t-118 -37t-109 -15t-88 17q-50 24 -53 87q-2 54 50 126.5t133.5 143t181 141.5t188.5 125t160 90
q5 2 14 7q129 65 171 65q29 0 33 -39q1 -10 -2 -14.5t-7.5 -4t-7.5 3.5q-15 17 -158.5 -63t-307 -190.5t-289 -229t-107.5 -169.5q10 -27 43.5 -34.5t86.5 6t112.5 35t136.5 60t143 72.5t147 82t132.5 78.5t116 71.5t82 52.5t44.5 28.5l-333 -35q-2 0 -8.5 -1t-11 -1.5
t-10.5 0t-9.5 2.5t-4.5 7q-4 12 0 30.5t11 19.5q3 1 7 -4t10 -4q38 5 225 23.5t216 23.5q321 212 625 458q56 45 110 89t85 70.5t56.5 48.5t28.5 24zM1665 229q112 193 290 437q-348 -286 -607 -468q201 26 317 31zM1162 -319q1 -6 -6 -6q-2 1 -24 -19q-10 -10 -26.5 3
t-9.5 23q2 4 4 5q16 22 31 24q11 1 20.5 -10.5t10.5 -19.5z" />
    <glyph glyph-name="uni1EAD" unicode="&#x1ead;" 
d="M322 400q2 -8 -12.5 -17t-20.5 -1q-15 26 -29 42q-27 -22 -44 -42q-8 -9 -19.5 0.5t-5.5 17.5q10 17 40 43q20 20 34 20h12q14 0 25 -20q18 -27 20 -43zM367 190q5 4 9.5 2.5t5 -5.5t-2.5 -8l-87 -87l-64 -61q-33 -31 -46 -31q-27 0 -44.5 22t-13.5 44q0 1 2 8t4 11
q-68 -84 -92 -85q-28 -1 -56.5 21.5t-28.5 43.5q0 42 29.5 97.5t77.5 103.5q70 72 125 66q20 -1 33.5 -18t17.5 -40q18 26 33 39q21 21 37 21q13 -1 26 -13.5t13 -19.5q1 -5 -2.5 -5.5t-5.5 1.5q-3 2 -15 -9t-31 -35t-38 -53q-38 -58 -58 -97q-24 -45 -11 -54q8 -4 26 9
q15 10 36 27q91 75 121 105zM18 44q18 -7 65.5 38.5t96.5 106.5l37 56q-1 6 -2.5 12t-8 14.5t-15 11.5t-25 -2t-37.5 -21q-24 -18 -49.5 -51t-37.5 -53t-18 -32q-13 -26 -16 -44.5t0.5 -26t9.5 -9.5zM94 -69q1 -6 -6 -6q-2 1 -24 -19q-10 -10 -26.5 3t-9.5 23q2 4 4 5
q16 22 31 24q11 1 20.5 -10.5t10.5 -19.5z" />
    <glyph glyph-name="uni1EAE" unicode="&#x1eae;" horiz-adv-x="1886" 
d="M2348 1142q12 1 24 -10.5t12 -17.5q1 -6 -6 -6q-2 1 -11.5 -7t-24 -22t-25.5 -28q-7 -9 -20 1t-9 19q7 19 30 48q17 23 30 23zM2330 964q-22 -18 -56.5 -13.5t-51.5 34.5q-7 12 -5 26q6 30 30 29q10 -2 10 -6q-7 -8 -7 -24t10 -22q25 0 41.5 5.5t31 14.5t25.5 13
q11 -9 8 -19.5t-11 -18t-25 -19.5zM2102 866q74 64 107 73q32 8 42 -37q2 -9 -4.5 -15.5t-12.5 -4.5q-1 1 -6.5 -2.5t-20 -14.5t-39 -31t-63.5 -52q-9 -13 -62.5 -83.5t-94.5 -127t-103.5 -151.5t-113.5 -186q60 2 79 1h11t12 -0.5t10 -1.5t9 -3t6.5 -6t4.5 -10q1 -9 -2 -26
q-4 -33 -18 -37q-7 -2 -10 9q-1 1 -1 2q-1 4 -5.5 6.5t-12.5 4t-17 2t-23 0.5t-24.5 -0.5t-27.5 -1.5t-27 -1q-9 -7 -58.5 -115.5t-84.5 -220t-4 -117.5q12 -2 -3 -13q-27 -18 -49 -6q-15 8 -18 30q-9 63 39.5 190.5t114.5 249.5q-221 -15 -364 -35q-174 -116 -537 -336
q-55 -34 -109.5 -64t-119.5 -62t-125 -54t-118 -37t-109 -15t-88 17q-50 24 -53 87q-2 54 50 126.5t133.5 143t181 141.5t188.5 125t160 90q5 2 14 7q129 65 171 65q29 0 33 -39q1 -10 -2 -14.5t-7.5 -4t-7.5 3.5q-15 17 -158.5 -63t-307 -190.5t-289 -229t-107.5 -169.5
q10 -27 43.5 -34.5t86.5 6t112.5 35t136.5 60t143 72.5t147 82t132.5 78.5t116 71.5t82 52.5t44.5 28.5l-333 -35q-2 0 -8.5 -1t-11 -1.5t-10.5 0t-9.5 2.5t-4.5 7q-4 12 0 30.5t11 19.5q3 1 7 -4t10 -4q38 5 225 23.5t216 23.5q321 212 625 458q56 45 110 89t85 70.5
t56.5 48.5t28.5 24zM1665 229q112 193 290 437q-348 -286 -607 -468q201 26 317 31z" />
    <glyph glyph-name="uni1EAF" unicode="&#x1eaf;" 
d="M313 562q12 1 24 -10.5t12 -17.5q1 -6 -6 -6q-2 1 -11.5 -7t-24 -22t-25.5 -28q-7 -9 -20 1t-9 19q7 19 30 48q17 23 30 23zM295 384q-22 -18 -56.5 -13.5t-51.5 34.5q-7 12 -5 26q6 30 30 29q10 -2 10 -6q-7 -8 -7 -24t10 -22q25 0 41.5 5.5t31 14.5t25.5 13
q11 -9 8 -19.5t-11 -18t-25 -19.5zM367 190q5 4 9.5 2.5t5 -5.5t-2.5 -8l-87 -87l-64 -61q-33 -31 -46 -31q-27 0 -44.5 22t-13.5 44q0 1 2 8t4 11q-68 -84 -92 -85q-28 -1 -56.5 21.5t-28.5 43.5q0 42 29.5 97.5t77.5 103.5q70 72 125 66q20 -1 33.5 -18t17.5 -40
q18 26 33 39q21 21 37 21q13 -1 26 -13.5t13 -19.5q1 -5 -2.5 -5.5t-5.5 1.5q-3 2 -15 -9t-31 -35t-38 -53q-38 -58 -58 -97q-24 -45 -11 -54q8 -4 26 9q15 10 36 27q91 75 121 105zM18 44q18 -7 65.5 38.5t96.5 106.5l37 56q-1 6 -2.5 12t-8 14.5t-15 11.5t-25 -2
t-37.5 -21q-24 -18 -49.5 -51t-37.5 -53t-18 -32q-13 -26 -16 -44.5t0.5 -26t9.5 -9.5z" />
    <glyph glyph-name="uni1EB0" unicode="&#x1eb0;" horiz-adv-x="1886" 
d="M2264 1128q14 0 32 -22q24 -28 33 -47q4 -9 -10 -18.5t-22 -0.5q-11 13 -26.5 27t-26 21.5t-12.5 6.5q-8 0 -7 6q0 6 13 17t26 10zM2330 964q-22 -18 -56.5 -13.5t-51.5 34.5q-7 12 -5 26q6 30 30 29q10 -2 10 -6q-7 -8 -7 -24t10 -22q25 0 41.5 5.5t31 14.5t25.5 13
q11 -9 8 -19.5t-11 -18t-25 -19.5zM2102 866q74 64 107 73q32 8 42 -37q2 -9 -4.5 -15.5t-12.5 -4.5q-1 1 -6.5 -2.5t-20 -14.5t-39 -31t-63.5 -52q-9 -13 -62.5 -83.5t-94.5 -127t-103.5 -151.5t-113.5 -186q60 2 79 1h11t12 -0.5t10 -1.5t9 -3t6.5 -6t4.5 -10q1 -9 -2 -26
q-4 -33 -18 -37q-7 -2 -10 9q-1 1 -1 2q-1 4 -5.5 6.5t-12.5 4t-17 2t-23 0.5t-24.5 -0.5t-27.5 -1.5t-27 -1q-9 -7 -58.5 -115.5t-84.5 -220t-4 -117.5q12 -2 -3 -13q-27 -18 -49 -6q-15 8 -18 30q-9 63 39.5 190.5t114.5 249.5q-221 -15 -364 -35q-174 -116 -537 -336
q-55 -34 -109.5 -64t-119.5 -62t-125 -54t-118 -37t-109 -15t-88 17q-50 24 -53 87q-2 54 50 126.5t133.5 143t181 141.5t188.5 125t160 90q5 2 14 7q129 65 171 65q29 0 33 -39q1 -10 -2 -14.5t-7.5 -4t-7.5 3.5q-15 17 -158.5 -63t-307 -190.5t-289 -229t-107.5 -169.5
q10 -27 43.5 -34.5t86.5 6t112.5 35t136.5 60t143 72.5t147 82t132.5 78.5t116 71.5t82 52.5t44.5 28.5l-333 -35q-2 0 -8.5 -1t-11 -1.5t-10.5 0t-9.5 2.5t-4.5 7q-4 12 0 30.5t11 19.5q3 1 7 -4t10 -4q38 5 225 23.5t216 23.5q321 212 625 458q56 45 110 89t85 70.5
t56.5 48.5t28.5 24zM1665 229q112 193 290 437q-348 -286 -607 -468q201 26 317 31z" />
    <glyph glyph-name="uni1EB1" unicode="&#x1eb1;" 
d="M229 548q14 0 32 -22q24 -28 33 -47q4 -9 -10 -18.5t-22 -0.5q-11 13 -26.5 27t-26 21.5t-12.5 6.5q-8 0 -7 6q0 6 13 17t26 10zM295 384q-22 -18 -56.5 -13.5t-51.5 34.5q-7 12 -5 26q6 30 30 29q10 -2 10 -6q-7 -8 -7 -24t10 -22q25 0 41.5 5.5t31 14.5t25.5 13
q11 -9 8 -19.5t-11 -18t-25 -19.5zM367 190q5 4 9.5 2.5t5 -5.5t-2.5 -8l-87 -87l-64 -61q-33 -31 -46 -31q-27 0 -44.5 22t-13.5 44q0 1 2 8t4 11q-68 -84 -92 -85q-28 -1 -56.5 21.5t-28.5 43.5q0 42 29.5 97.5t77.5 103.5q70 72 125 66q20 -1 33.5 -18t17.5 -40
q18 26 33 39q21 21 37 21q13 -1 26 -13.5t13 -19.5q1 -5 -2.5 -5.5t-5.5 1.5q-3 2 -15 -9t-31 -35t-38 -53q-38 -58 -58 -97q-24 -45 -11 -54q8 -4 26 9q15 10 36 27q91 75 121 105zM18 44q18 -7 65.5 38.5t96.5 106.5l37 56q-1 6 -2.5 12t-8 14.5t-15 11.5t-25 -2
t-37.5 -21q-24 -18 -49.5 -51t-37.5 -53t-18 -32q-13 -26 -16 -44.5t0.5 -26t9.5 -9.5z" />
    <glyph glyph-name="uni1EB2" unicode="&#x1eb2;" horiz-adv-x="1886" 
d="M2373 1094q-14 -30 -47 -42q-13 -5 -18 -14q-2 -8 -12 -8q-11 0 -6 16q7 20 32 31q11 5 23 26q6 12 3 21.5t-9 14.5t-9 4q-7 -2 -11 -13t-5 -20v-10l-2 -3q-20 -8 -23 12q-1 15 11 31q7 10 26 17t28 3q18 -7 23 -25.5t-4 -40.5zM2330 964q-22 -18 -56.5 -13.5t-51.5 34.5
q-7 12 -5 26q6 30 30 29q10 -2 10 -6q-7 -8 -7 -24t10 -22q25 0 41.5 5.5t31 14.5t25.5 13q11 -9 8 -19.5t-11 -18t-25 -19.5zM2102 866q74 64 107 73q32 8 42 -37q2 -9 -4.5 -15.5t-12.5 -4.5q-1 1 -6.5 -2.5t-20 -14.5t-39 -31t-63.5 -52q-9 -13 -62.5 -83.5t-94.5 -127
t-103.5 -151.5t-113.5 -186q60 2 79 1h11t12 -0.5t10 -1.5t9 -3t6.5 -6t4.5 -10q1 -9 -2 -26q-4 -33 -18 -37q-7 -2 -10 9q-1 1 -1 2q-1 4 -5.5 6.5t-12.5 4t-17 2t-23 0.5t-24.5 -0.5t-27.5 -1.5t-27 -1q-9 -7 -58.5 -115.5t-84.5 -220t-4 -117.5q12 -2 -3 -13
q-27 -18 -49 -6q-15 8 -18 30q-9 63 39.5 190.5t114.5 249.5q-221 -15 -364 -35q-174 -116 -537 -336q-55 -34 -109.5 -64t-119.5 -62t-125 -54t-118 -37t-109 -15t-88 17q-50 24 -53 87q-2 54 50 126.5t133.5 143t181 141.5t188.5 125t160 90q5 2 14 7q129 65 171 65
q29 0 33 -39q1 -10 -2 -14.5t-7.5 -4t-7.5 3.5q-15 17 -158.5 -63t-307 -190.5t-289 -229t-107.5 -169.5q10 -27 43.5 -34.5t86.5 6t112.5 35t136.5 60t143 72.5t147 82t132.5 78.5t116 71.5t82 52.5t44.5 28.5l-333 -35q-2 0 -8.5 -1t-11 -1.5t-10.5 0t-9.5 2.5t-4.5 7
q-4 12 0 30.5t11 19.5q3 1 7 -4t10 -4q38 5 225 23.5t216 23.5q321 212 625 458q56 45 110 89t85 70.5t56.5 48.5t28.5 24zM1665 229q112 193 290 437q-348 -286 -607 -468q201 26 317 31z" />
    <glyph glyph-name="uni1EB3" unicode="&#x1eb3;" 
d="M338 514q-14 -30 -47 -42q-13 -5 -18 -14q-2 -8 -12 -8q-11 0 -6 16q7 20 32 31q11 5 23 26q6 12 3 21.5t-9 14.5t-9 4q-7 -2 -11 -13t-4 -20l-1 -10l-2 -3q-20 -8 -23 12q-1 15 11 31q7 10 26 17t28 3q18 -7 23 -25.5t-4 -40.5zM295 384q-22 -18 -56.5 -13.5t-51.5 34.5
q-7 12 -5 26q6 30 30 29q10 -2 10 -6q-7 -8 -7 -24t10 -22q25 0 41.5 5.5t31 14.5t25.5 13q11 -9 8 -19.5t-11 -18t-25 -19.5zM367 190q5 4 9.5 2.5t5 -5.5t-2.5 -8l-87 -87l-64 -61q-33 -31 -46 -31q-27 0 -44.5 22t-13.5 44q0 1 2 8t4 11q-68 -84 -92 -85
q-28 -1 -56.5 21.5t-28.5 43.5q0 42 29.5 97.5t77.5 103.5q70 72 125 66q20 -1 33.5 -18t17.5 -40q18 26 33 39q21 21 37 21q13 -1 26 -13.5t13 -19.5q1 -5 -2.5 -5.5t-5.5 1.5q-3 2 -15 -9t-31 -35t-38 -53q-38 -58 -58 -97q-24 -45 -11 -54q8 -4 26 9q15 10 36 27
q91 75 121 105zM18 44q18 -7 65.5 38.5t96.5 106.5l37 56q-1 6 -2.5 12t-8 14.5t-15 11.5t-25 -2t-37.5 -21q-24 -18 -49.5 -51t-37.5 -53t-18 -32q-13 -26 -16 -44.5t0.5 -26t9.5 -9.5z" />
    <glyph glyph-name="uni1EB4" unicode="&#x1eb4;" horiz-adv-x="1886" 
d="M2424 1102q11 0 3 -21q-15 -31 -48 -38q-23 -5 -66.5 13.5t-50.5 18.5q-14 1 -39 -12q0 -1 -1 -1t-1 1q-3 2 -2 6q4 9 10.5 18.5t22 18t33.5 4.5q21 -5 52.5 -17t42.5 -12t22 5t16 10zM2330 964q-22 -18 -56.5 -13.5t-51.5 34.5q-7 12 -5 26q6 30 30 29q10 -2 10 -6
q-7 -8 -7 -24t10 -22q25 0 41.5 5.5t31 14.5t25.5 13q11 -9 8 -19.5t-11 -18t-25 -19.5zM2102 866q74 64 107 73q32 8 42 -37q2 -9 -4.5 -15.5t-12.5 -4.5q-1 1 -6.5 -2.5t-20 -14.5t-39 -31t-63.5 -52q-9 -13 -62.5 -83.5t-94.5 -127t-103.5 -151.5t-113.5 -186q60 2 79 1
h11t12 -0.5t10 -1.5t9 -3t6.5 -6t4.5 -10q1 -9 -2 -26q-4 -33 -18 -37q-7 -2 -10 9q-1 1 -1 2q-1 4 -5.5 6.5t-12.5 4t-17 2t-23 0.5t-24.5 -0.5t-27.5 -1.5t-27 -1q-9 -7 -58.5 -115.5t-84.5 -220t-4 -117.5q12 -2 -3 -13q-27 -18 -49 -6q-15 8 -18 30q-9 63 39.5 190.5
t114.5 249.5q-221 -15 -364 -35q-174 -116 -537 -336q-55 -34 -109.5 -64t-119.5 -62t-125 -54t-118 -37t-109 -15t-88 17q-50 24 -53 87q-2 54 50 126.5t133.5 143t181 141.5t188.5 125t160 90q5 2 14 7q129 65 171 65q29 0 33 -39q1 -10 -2 -14.5t-7.5 -4t-7.5 3.5
q-15 17 -158.5 -63t-307 -190.5t-289 -229t-107.5 -169.5q10 -27 43.5 -34.5t86.5 6t112.5 35t136.5 60t143 72.5t147 82t132.5 78.5t116 71.5t82 52.5t44.5 28.5l-333 -35q-2 0 -8.5 -1t-11 -1.5t-10.5 0t-9.5 2.5t-4.5 7q-4 12 0 30.5t11 19.5q3 1 7 -4t10 -4
q38 5 225 23.5t216 23.5q321 212 625 458q56 45 110 89t85 70.5t56.5 48.5t28.5 24zM1665 229q112 193 290 437q-348 -286 -607 -468q201 26 317 31z" />
    <glyph glyph-name="uni1EB5" unicode="&#x1eb5;" 
d="M389 522q11 0 3 -21q-15 -31 -48 -38q-23 -5 -66.5 13.5t-50.5 18.5q-14 1 -39 -12q0 -1 -1 -1t-1 1q-3 2 -2 6q4 9 10.5 18.5t22 18t33.5 4.5q21 -5 52.5 -17t42.5 -12t22 5t17 10zM295 384q-22 -18 -56.5 -13.5t-51.5 34.5q-7 12 -5 26q6 30 30 29q10 -2 10 -6
q-7 -8 -7 -24t10 -22q25 0 41.5 5.5t31 14.5t25.5 13q11 -9 8 -19.5t-11 -18t-25 -19.5zM367 190q5 4 9.5 2.5t5 -5.5t-2.5 -8l-87 -87l-64 -61q-33 -31 -46 -31q-27 0 -44.5 22t-13.5 44q0 1 2 8t4 11q-68 -84 -92 -85q-28 -1 -56.5 21.5t-28.5 43.5q0 42 29.5 97.5
t77.5 103.5q70 72 125 66q20 -1 33.5 -18t17.5 -40q18 26 33 39q21 21 37 21q13 -1 26 -13.5t13 -19.5q1 -5 -2.5 -5.5t-5.5 1.5q-3 2 -15 -9t-31 -35t-38 -53q-38 -58 -58 -97q-24 -45 -11 -54q8 -4 26 9q15 10 36 27q91 75 121 105zM18 44q18 -7 65.5 38.5t96.5 106.5
l37 56q-1 6 -2.5 12t-8 14.5t-15 11.5t-25 -2t-37.5 -21q-24 -18 -49.5 -51t-37.5 -53t-18 -32q-13 -26 -16 -44.5t0.5 -26t9.5 -9.5z" />
    <glyph glyph-name="uni1EB6" unicode="&#x1eb6;" horiz-adv-x="1886" 
d="M2330 964q-22 -18 -56.5 -13.5t-51.5 34.5q-7 12 -5 26q6 30 30 29q10 -2 10 -6q-7 -8 -7 -24t10 -22q25 0 41.5 5.5t31 14.5t25.5 13q11 -9 8 -19.5t-11 -18t-25 -19.5zM2102 866q74 64 107 73q32 8 42 -37q2 -9 -4.5 -15.5t-12.5 -4.5q-1 1 -6.5 -2.5t-20 -14.5
t-39 -31t-63.5 -52q-9 -13 -62.5 -83.5t-94.5 -127t-103.5 -151.5t-113.5 -186q60 2 79 1h11t12 -0.5t10 -1.5t9 -3t6.5 -6t4.5 -10q1 -9 -2 -26q-4 -33 -18 -37q-7 -2 -10 9q-1 1 -1 2q-1 4 -5.5 6.5t-12.5 4t-17 2t-23 0.5t-24.5 -0.5t-27.5 -1.5t-27 -1
q-9 -7 -58.5 -115.5t-84.5 -220t-4 -117.5q12 -2 -3 -13q-27 -18 -49 -6q-15 8 -18 30q-9 63 39.5 190.5t114.5 249.5q-221 -15 -364 -35q-174 -116 -537 -336q-55 -34 -109.5 -64t-119.5 -62t-125 -54t-118 -37t-109 -15t-88 17q-50 24 -53 87q-2 54 50 126.5t133.5 143
t181 141.5t188.5 125t160 90q5 2 14 7q129 65 171 65q29 0 33 -39q1 -10 -2 -14.5t-7.5 -4t-7.5 3.5q-15 17 -158.5 -63t-307 -190.5t-289 -229t-107.5 -169.5q10 -27 43.5 -34.5t86.5 6t112.5 35t136.5 60t143 72.5t147 82t132.5 78.5t116 71.5t82 52.5t44.5 28.5l-333 -35
q-2 0 -8.5 -1t-11 -1.5t-10.5 0t-9.5 2.5t-4.5 7q-4 12 0 30.5t11 19.5q3 1 7 -4t10 -4q38 5 225 23.5t216 23.5q321 212 625 458q56 45 110 89t85 70.5t56.5 48.5t28.5 24zM1665 229q112 193 290 437q-348 -286 -607 -468q201 26 317 31zM1162 -319q1 -6 -6 -6
q-2 1 -24 -19q-10 -10 -26.5 3t-9.5 23q2 4 4 5q16 22 31 24q11 1 20.5 -10.5t10.5 -19.5z" />
    <glyph glyph-name="uni1EB7" unicode="&#x1eb7;" 
d="M295 384q-22 -18 -56.5 -13.5t-51.5 34.5q-7 12 -5 26q6 30 30 29q10 -2 10 -6q-7 -8 -7 -24t10 -22q25 0 41.5 5.5t31 14.5t25.5 13q11 -9 8 -19.5t-11 -18t-25 -19.5zM367 190q5 4 9.5 2.5t5 -5.5t-2.5 -8l-87 -87l-64 -61q-33 -31 -46 -31q-27 0 -44.5 22t-13.5 44
q0 1 2 8t4 11q-68 -84 -92 -85q-28 -1 -56.5 21.5t-28.5 43.5q0 42 29.5 97.5t77.5 103.5q70 72 125 66q20 -1 33.5 -18t17.5 -40q18 26 33 39q21 21 37 21q13 -1 26 -13.5t13 -19.5q1 -5 -2.5 -5.5t-5.5 1.5q-3 2 -15 -9t-31 -35t-38 -53q-38 -58 -58 -97q-24 -45 -11 -54
q8 -4 26 9q15 10 36 27q91 75 121 105zM18 44q18 -7 65.5 38.5t96.5 106.5l37 56q-1 6 -2.5 12t-8 14.5t-15 11.5t-25 -2t-37.5 -21q-24 -18 -49.5 -51t-37.5 -53t-18 -32q-13 -26 -16 -44.5t0.5 -26t9.5 -9.5zM94 -69q1 -6 -6 -6q-2 1 -24 -19q-10 -10 -26.5 3t-9.5 23
q2 4 4 5q16 22 31 24q11 1 20.5 -10.5t10.5 -19.5z" />
    <glyph glyph-name="uni1EB8" unicode="&#x1eb8;" horiz-adv-x="1531" 
d="M1380 497q-9 13 -1 16q70 54 102 109.5t25 99.5t-37 78.5t-83 50.5t-115 11q-158 -13 -416 -132q-204 -94 -300 -186t6 -161q70 -47 263 -93q32 5 47 0q28 -6 28 -51q0 -12 -4 -16t-8.5 -2.5t-7.5 6.5q-68 9 -178 -19t-221.5 -79.5t-211 -111t-158.5 -121t-51 -102.5
q7 -33 63 -53t136 -20q351 0 1031 356l9 4.5t7.5 3.5t7.5 4q148 77 195 109q9 6 11 12t3 7q3 2 10 -4t11 -16q14 -30 -51 -70q-192 -114 -307 -173q-431 -220 -767 -278q-54 -9 -104.5 -12.5t-112.5 -0.5t-110 26t-70 65q-18 34 -19 74q2 70 87.5 146.5t206 135t235 100
t191.5 56.5q-2 1 -42.5 9t-88.5 24t-82 39q-20 14 -31.5 38.5t-14 41t-3.5 43.5q-4 87 51 140q72 70 207.5 139t235 105t156.5 50q135 33 243.5 21t154.5 -67q68 -81 29 -183l-3 -9q3 4 66.5 85.5t101.5 128.5q6 21 30 13q22 -8 24 -28q0 -7 -3 -14q-24 -35 -77.5 -104.5
t-97 -124t-43.5 -55.5q-4 -5 -17.5 -21.5t-20.5 -25t-18.5 -20.5t-22 -18.5t-20.5 -8.5q-15 -5 -31.5 7t-24.5 26zM191 -411q1 -6 -6 -6q-2 1 -24 -19q-10 -10 -26.5 3t-9.5 23q2 4 4 5q16 22 31 24q11 1 20.5 -10.5t10.5 -19.5z" />
    <glyph glyph-name="uni1EB9" unicode="&#x1eb9;" horiz-adv-x="272" 
d="M303 191q7 7 12 1t-1 -12q-51 -47 -86.5 -77.5t-93.5 -65.5t-98 -37q-28 -1 -56.5 21.5t-28.5 43.5q0 40 35 105q28 52 89 110t108 53q17 -3 30 -14q46 -50 -2 -115q-21 -28 -52.5 -49t-54.5 -23q-24 -3 -40 20q-6 9 -11 23q-14 -21 -15 -23q-54 -90 -22 -108
q6 -6 36.5 -2t57.5 18q33 17 61 35t43 28.5t45 33.5t44 34zM194 298q-24 0 -62.5 -35.5t-71.5 -78.5q3 -2 3 -5q1 -2 6 -3t15.5 0t22.5 5.5t30 16t36 28.5q21 19 28 36.5t3.5 26.5t-10.5 9zM39 -69q1 -6 -6 -6q-2 1 -24 -19q-10 -10 -26.5 3t-9.5 23q2 4 4 5q16 22 31 24
q11 1 20.5 -10.5t10.5 -19.5z" />
    <glyph glyph-name="uni1EBA" unicode="&#x1eba;" horiz-adv-x="1531" 
d="M1455 1052q-14 -30 -47 -42q-13 -5 -18 -14q-2 -8 -12 -8q-11 0 -6 16q7 20 32 31q11 5 23 26q6 12 3 21.5t-9 14.5t-9 4q-7 -2 -11 -13t-5 -20v-10l-2 -3q-20 -8 -23 12q-1 15 11 31q7 10 26 17t28 3q18 -7 23 -25.5t-4 -40.5zM1380 497q-9 13 -1 16q70 54 102 109.5
t25 99.5t-37 78.5t-83 50.5t-115 11q-158 -13 -416 -132q-204 -94 -300 -186t6 -161q70 -47 263 -93q32 5 47 0q28 -6 28 -51q0 -12 -4 -16t-8.5 -2.5t-7.5 6.5q-68 9 -178 -19t-221.5 -79.5t-211 -111t-158.5 -121t-51 -102.5q7 -33 63 -53t136 -20q351 0 1031 356l9 4.5
t7.5 3.5t7.5 4q148 77 195 109q9 6 11 12t3 7q3 2 10 -4t11 -16q14 -30 -51 -70q-192 -114 -307 -173q-431 -220 -767 -278q-54 -9 -104.5 -12.5t-112.5 -0.5t-110 26t-70 65q-18 34 -19 74q2 70 87.5 146.5t206 135t235 100t191.5 56.5q-2 1 -42.5 9t-88.5 24t-82 39
q-20 14 -31.5 38.5t-14 41t-3.5 43.5q-4 87 51 140q72 70 207.5 139t235 105t156.5 50q135 33 243.5 21t154.5 -67q68 -81 29 -183l-3 -9q3 4 66.5 85.5t101.5 128.5q6 21 30 13q22 -8 24 -28q0 -7 -3 -14q-24 -35 -77.5 -104.5t-97 -124t-43.5 -55.5q-4 -5 -17.5 -21.5
t-20.5 -25t-18.5 -20.5t-22 -18.5t-20.5 -8.5q-15 -5 -31.5 7t-24.5 26z" />
    <glyph glyph-name="uni1EBB" unicode="&#x1ebb;" horiz-adv-x="272" 
d="M292 444q-14 -30 -47 -42q-13 -5 -18 -14q-2 -8 -12 -8q-11 0 -6 16q7 20 32 31q11 5 23 26q6 12 3 21.5t-9 14.5t-9 4q-7 -2 -11 -13t-4 -20l-1 -10l-2 -3q-20 -8 -23 12q-1 15 11 31q7 10 26 17t28 3q18 -7 23 -25.5t-4 -40.5zM303 191q7 7 12 1t-1 -12
q-51 -47 -86.5 -77.5t-93.5 -65.5t-98 -37q-28 -1 -56.5 21.5t-28.5 43.5q0 40 35 105q28 52 89 110t108 53q17 -3 30 -14q46 -50 -2 -115q-21 -28 -52.5 -49t-54.5 -23q-24 -3 -40 20q-6 9 -11 23q-14 -21 -15 -23q-54 -90 -22 -108q6 -6 36.5 -2t57.5 18q33 17 61 35
t43 28.5t45 33.5t44 34zM194 298q-24 0 -62.5 -35.5t-71.5 -78.5q3 -2 3 -5q1 -2 6 -3t15.5 0t22.5 5.5t30 16t36 28.5q21 19 28 36.5t3.5 26.5t-10.5 9z" />
    <glyph glyph-name="uni1EBC" unicode="&#x1ebc;" horiz-adv-x="1531" 
d="M1459 1034q11 0 3 -21q-15 -31 -48 -38q-23 -5 -66.5 13.5t-50.5 18.5q-13 1 -39 -12q0 -1 -1 -1t-1 1q-3 2 -2 6q4 9 10.5 18.5t22 18t33.5 4.5q21 -5 52.5 -17t42.5 -12t22 5t17 10zM1380 497q-9 13 -1 16q70 54 102 109.5t25 99.5t-37 78.5t-83 50.5t-115 11
q-158 -13 -416 -132q-204 -94 -300 -186t6 -161q70 -47 263 -93q32 5 47 0q28 -6 28 -51q0 -12 -4 -16t-8.5 -2.5t-7.5 6.5q-68 9 -178 -19t-221.5 -79.5t-211 -111t-158.5 -121t-51 -102.5q7 -33 63 -53t136 -20q351 0 1031 356l9 4.5t7.5 3.5t7.5 4q148 77 195 109
q9 6 11 12t3 7q3 2 10 -4t11 -16q14 -30 -51 -70q-192 -114 -307 -173q-431 -220 -767 -278q-54 -9 -104.5 -12.5t-112.5 -0.5t-110 26t-70 65q-18 34 -19 74q2 70 87.5 146.5t206 135t235 100t191.5 56.5q-2 1 -42.5 9t-88.5 24t-82 39q-20 14 -31.5 38.5t-14 41t-3.5 43.5
q-4 87 51 140q72 70 207.5 139t235 105t156.5 50q135 33 243.5 21t154.5 -67q68 -81 29 -183l-3 -9q3 4 66.5 85.5t101.5 128.5q6 21 30 13q22 -8 24 -28q0 -7 -3 -14q-24 -35 -77.5 -104.5t-97 -124t-43.5 -55.5q-4 -5 -17.5 -21.5t-20.5 -25t-18.5 -20.5t-22 -18.5
t-20.5 -8.5q-15 -5 -31.5 7t-24.5 26z" />
    <glyph glyph-name="uni1EBD" unicode="&#x1ebd;" horiz-adv-x="272" 
d="M296 426q11 0 3 -21q-15 -31 -48 -38q-23 -5 -66.5 13.5t-50.5 18.5q-13 1 -39 -12q0 -1 -1 -1t-1 1q-3 2 -2 6q4 9 10.5 18.5t22 18t33.5 4.5q21 -5 52.5 -17t42.5 -12t22 5t16 10zM303 191q7 7 12 1t-1 -12q-51 -47 -86.5 -77.5t-93.5 -65.5t-98 -37q-28 -1 -56.5 21.5
t-28.5 43.5q0 40 35 105q28 52 89 110t108 53q17 -3 30 -14q46 -50 -2 -115q-21 -28 -52.5 -49t-54.5 -23q-24 -3 -40 20q-6 9 -11 23q-14 -21 -15 -23q-54 -90 -22 -108q6 -6 36.5 -2t57.5 18q33 17 61 35t43 28.5t45 33.5t44 34zM194 298q-24 0 -62.5 -35.5t-71.5 -78.5
q3 -2 3 -5q1 -2 6 -3t15.5 0t22.5 5.5t30 16t36 28.5q21 19 28 36.5t3.5 26.5t-10.5 9z" />
    <glyph glyph-name="uni1EBE" unicode="&#x1ebe;" horiz-adv-x="1531" 
d="M1500 1132q12 1 24 -10.5t12 -17.5q1 -6 -6 -6q-2 1 -11.5 -7t-24 -22t-25.5 -28q-7 -9 -20 1t-9 19q7 19 30 48q17 23 30 23zM1425 1005q2 -8 -12.5 -17t-20.5 -1q-15 26 -29 42q-27 -22 -44 -42q-8 -9 -19.5 0.5t-5.5 17.5q10 17 40 43q20 20 34 20h12q14 0 25 -20
q18 -27 20 -43zM1380 497q-9 13 -1 16q70 54 102 109.5t25 99.5t-37 78.5t-83 50.5t-115 11q-158 -13 -416 -132q-204 -94 -300 -186t6 -161q70 -47 263 -93q32 5 47 0q28 -6 28 -51q0 -12 -4 -16t-8.5 -2.5t-7.5 6.5q-68 9 -178 -19t-221.5 -79.5t-211 -111t-158.5 -121
t-51 -102.5q7 -33 63 -53t136 -20q351 0 1031 356l9 4.5t7.5 3.5t7.5 4q148 77 195 109q9 6 11 12t3 7q3 2 10 -4t11 -16q14 -30 -51 -70q-192 -114 -307 -173q-431 -220 -767 -278q-54 -9 -104.5 -12.5t-112.5 -0.5t-110 26t-70 65q-18 34 -19 74q2 70 87.5 146.5t206 135
t235 100t191.5 56.5q-2 1 -42.5 9t-88.5 24t-82 39q-20 14 -31.5 38.5t-14 41t-3.5 43.5q-4 87 51 140q72 70 207.5 139t235 105t156.5 50q135 33 243.5 21t154.5 -67q68 -81 29 -183l-3 -9q3 4 66.5 85.5t101.5 128.5q6 21 30 13q22 -8 24 -28q0 -7 -3 -14
q-24 -35 -77.5 -104.5t-97 -124t-43.5 -55.5q-4 -5 -17.5 -21.5t-20.5 -25t-18.5 -20.5t-22 -18.5t-20.5 -8.5q-15 -5 -31.5 7t-24.5 26z" />
    <glyph glyph-name="uni1EBF" unicode="&#x1ebf;" horiz-adv-x="272" 
d="M337 524q12 1 24 -10.5t12 -17.5q1 -6 -6 -6q-2 1 -11.5 -7t-24 -22t-25.5 -28q-7 -9 -20 1t-9 19q7 19 30 48q17 23 30 23zM262 397q2 -8 -12.5 -17t-20.5 -1q-15 26 -29 42q-27 -22 -44 -42q-8 -9 -19.5 0.5t-5.5 17.5q10 17 40 43q20 20 34 20h12q14 0 25 -20
q18 -27 20 -43zM303 191q7 7 12 1t-1 -12q-51 -47 -86.5 -77.5t-93.5 -65.5t-98 -37q-28 -1 -56.5 21.5t-28.5 43.5q0 40 35 105q28 52 89 110t108 53q17 -3 30 -14q46 -50 -2 -115q-21 -28 -52.5 -49t-54.5 -23q-24 -3 -40 20q-6 9 -11 23q-14 -21 -15 -23
q-54 -90 -22 -108q6 -6 36.5 -2t57.5 18q33 17 61 35t43 28.5t45 33.5t44 34zM194 298q-24 0 -62.5 -35.5t-71.5 -78.5q3 -2 3 -5q1 -2 6 -3t15.5 0t22.5 5.5t30 16t36 28.5q21 19 28 36.5t3.5 26.5t-10.5 9z" />
    <glyph glyph-name="uni1EC0" unicode="&#x1ec0;" horiz-adv-x="1531" 
d="M1410 1144q14 0 32 -22q24 -28 33 -47q4 -9 -10 -18.5t-22 -0.5q-11 13 -26.5 27t-26 21.5t-12.5 6.5q-8 0 -7 6q0 6 13 17t26 10zM1425 1005q2 -8 -12.5 -17t-20.5 -1q-15 26 -29 42q-27 -22 -44 -42q-8 -9 -19.5 0.5t-5.5 17.5q10 17 40 43q20 20 34 20h12q14 0 25 -20
q18 -27 20 -43zM1380 497q-9 13 -1 16q70 54 102 109.5t25 99.5t-37 78.5t-83 50.5t-115 11q-158 -13 -416 -132q-204 -94 -300 -186t6 -161q70 -47 263 -93q32 5 47 0q28 -6 28 -51q0 -12 -4 -16t-8.5 -2.5t-7.5 6.5q-68 9 -178 -19t-221.5 -79.5t-211 -111t-158.5 -121
t-51 -102.5q7 -33 63 -53t136 -20q351 0 1031 356l9 4.5t7.5 3.5t7.5 4q148 77 195 109q9 6 11 12t3 7q3 2 10 -4t11 -16q14 -30 -51 -70q-192 -114 -307 -173q-431 -220 -767 -278q-54 -9 -104.5 -12.5t-112.5 -0.5t-110 26t-70 65q-18 34 -19 74q2 70 87.5 146.5t206 135
t235 100t191.5 56.5q-2 1 -42.5 9t-88.5 24t-82 39q-20 14 -31.5 38.5t-14 41t-3.5 43.5q-4 87 51 140q72 70 207.5 139t235 105t156.5 50q135 33 243.5 21t154.5 -67q68 -81 29 -183l-3 -9q3 4 66.5 85.5t101.5 128.5q6 21 30 13q22 -8 24 -28q0 -7 -3 -14
q-24 -35 -77.5 -104.5t-97 -124t-43.5 -55.5q-4 -5 -17.5 -21.5t-20.5 -25t-18.5 -20.5t-22 -18.5t-20.5 -8.5q-15 -5 -31.5 7t-24.5 26z" />
    <glyph glyph-name="uni1EC1" unicode="&#x1ec1;" horiz-adv-x="272" 
d="M247 536q14 0 32 -22q24 -28 33 -47q4 -9 -10 -18.5t-22 -0.5q-11 13 -26.5 27t-26 21.5t-12.5 6.5q-8 0 -7 6q0 6 13 17t26 10zM262 397q2 -8 -12.5 -17t-20.5 -1q-15 26 -29 42q-27 -22 -44 -42q-8 -9 -19.5 0.5t-5.5 17.5q10 17 40 43q20 20 34 20h12q14 0 25 -20
q18 -27 20 -43zM303 191q7 7 12 1t-1 -12q-51 -47 -86.5 -77.5t-93.5 -65.5t-98 -37q-28 -1 -56.5 21.5t-28.5 43.5q0 40 35 105q28 52 89 110t108 53q17 -3 30 -14q46 -50 -2 -115q-21 -28 -52.5 -49t-54.5 -23q-24 -3 -40 20q-6 9 -11 23q-14 -21 -15 -23
q-54 -90 -22 -108q6 -6 36.5 -2t57.5 18q33 17 61 35t43 28.5t45 33.5t44 34zM194 298q-24 0 -62.5 -35.5t-71.5 -78.5q3 -2 3 -5q1 -2 6 -3t15.5 0t22.5 5.5t30 16t36 28.5q21 19 28 36.5t3.5 26.5t-10.5 9z" />
    <glyph glyph-name="uni1EC2" unicode="&#x1ec2;" horiz-adv-x="1531" 
d="M1528 1092q-14 -30 -47 -42q-13 -5 -18 -14q-2 -8 -12 -8q-11 0 -6 16q7 20 32 31q11 5 23 26q6 12 3 21.5t-9 14.5t-9 4q-7 -2 -11 -13t-4 -20l-1 -10l-2 -3q-20 -8 -23 12q-1 15 11 31q7 10 26 17t28 3q18 -7 23 -25.5t-4 -40.5zM1425 1005q2 -8 -12.5 -17t-20.5 -1
q-15 26 -29 42q-27 -22 -44 -42q-8 -9 -19.5 0.5t-5.5 17.5q10 17 40 43q20 20 34 20h12q14 0 25 -20q18 -27 20 -43zM1380 497q-9 13 -1 16q70 54 102 109.5t25 99.5t-37 78.5t-83 50.5t-115 11q-158 -13 -416 -132q-204 -94 -300 -186t6 -161q70 -47 263 -93q32 5 47 0
q28 -6 28 -51q0 -12 -4 -16t-8.5 -2.5t-7.5 6.5q-68 9 -178 -19t-221.5 -79.5t-211 -111t-158.5 -121t-51 -102.5q7 -33 63 -53t136 -20q351 0 1031 356l9 4.5t7.5 3.5t7.5 4q148 77 195 109q9 6 11 12t3 7q3 2 10 -4t11 -16q14 -30 -51 -70q-192 -114 -307 -173
q-431 -220 -767 -278q-54 -9 -104.5 -12.5t-112.5 -0.5t-110 26t-70 65q-18 34 -19 74q2 70 87.5 146.5t206 135t235 100t191.5 56.5q-2 1 -42.5 9t-88.5 24t-82 39q-20 14 -31.5 38.5t-14 41t-3.5 43.5q-4 87 51 140q72 70 207.5 139t235 105t156.5 50q135 33 243.5 21
t154.5 -67q68 -81 29 -183l-3 -9q3 4 66.5 85.5t101.5 128.5q6 21 30 13q22 -8 24 -28q0 -7 -3 -14q-24 -35 -77.5 -104.5t-97 -124t-43.5 -55.5q-4 -5 -17.5 -21.5t-20.5 -25t-18.5 -20.5t-22 -18.5t-20.5 -8.5q-15 -5 -31.5 7t-24.5 26z" />
    <glyph glyph-name="uni1EC3" unicode="&#x1ec3;" horiz-adv-x="272" 
d="M365 484q-14 -30 -47 -42q-13 -5 -18 -14q-2 -8 -12 -8q-11 0 -6 16q8 20 32 31q11 5 23 26q6 12 3 21.5t-9 14.5t-9 4q-7 -2 -11 -13t-5 -20v-10l-2 -3q-20 -8 -23 12q-1 15 11 31q7 10 26 17t28 3q18 -7 23 -25.5t-4 -40.5zM262 397q2 -8 -12.5 -17t-20.5 -1
q-15 26 -29 42q-27 -22 -44 -42q-8 -9 -19.5 0.5t-5.5 17.5q10 17 40 43q20 20 34 20h12q14 0 25 -20q18 -27 20 -43zM303 191q7 7 12 1t-1 -12q-51 -47 -86.5 -77.5t-93.5 -65.5t-98 -37q-28 -1 -56.5 21.5t-28.5 43.5q0 40 35 105q28 52 89 110t108 53q17 -3 30 -14
q46 -50 -2 -115q-21 -28 -52.5 -49t-54.5 -23q-24 -3 -40 20q-6 9 -11 23q-14 -21 -15 -23q-54 -90 -22 -108q6 -6 36.5 -2t57.5 18q33 17 61 35t43 28.5t45 33.5t44 34zM194 298q-24 0 -62.5 -35.5t-71.5 -78.5q3 -2 3 -5q1 -2 6 -3t15.5 0t22.5 5.5t30 16t36 28.5
q21 19 28 36.5t3.5 26.5t-10.5 9z" />
    <glyph glyph-name="uni1EC4" unicode="&#x1ec4;" horiz-adv-x="1531" 
d="M1518 1134q11 0 3 -21q-15 -31 -48 -38q-23 -5 -66.5 13.5t-50.5 18.5q-14 1 -39 -12q0 -1 -1 -1t-1 1q-3 2 -2 6q4 9 10.5 18.5t22 18t33.5 4.5q21 -5 52.5 -17t42.5 -12t22 5t16 10zM1425 1005q2 -8 -12.5 -17t-20.5 -1q-15 26 -29 42q-27 -22 -44 -42q-8 -9 -19.5 0.5
t-5.5 17.5q10 17 40 43q20 20 34 20h12q14 0 25 -20q18 -27 20 -43zM1380 497q-9 13 -1 16q70 54 102 109.5t25 99.5t-37 78.5t-83 50.5t-115 11q-158 -13 -416 -132q-204 -94 -300 -186t6 -161q70 -47 263 -93q32 5 47 0q28 -6 28 -51q0 -12 -4 -16t-8.5 -2.5t-7.5 6.5
q-68 9 -178 -19t-221.5 -79.5t-211 -111t-158.5 -121t-51 -102.5q7 -33 63 -53t136 -20q351 0 1031 356l9 4.5t7.5 3.5t7.5 4q148 77 195 109q9 6 11 12t3 7q3 2 10 -4t11 -16q14 -30 -51 -70q-192 -114 -307 -173q-431 -220 -767 -278q-54 -9 -104.5 -12.5t-112.5 -0.5
t-110 26t-70 65q-18 34 -19 74q2 70 87.5 146.5t206 135t235 100t191.5 56.5q-2 1 -42.5 9t-88.5 24t-82 39q-20 14 -31.5 38.5t-14 41t-3.5 43.5q-4 87 51 140q72 70 207.5 139t235 105t156.5 50q135 33 243.5 21t154.5 -67q68 -81 29 -183l-3 -9q3 4 66.5 85.5
t101.5 128.5q6 21 30 13q22 -8 24 -28q0 -7 -3 -14q-24 -35 -77.5 -104.5t-97 -124t-43.5 -55.5q-4 -5 -17.5 -21.5t-20.5 -25t-18.5 -20.5t-22 -18.5t-20.5 -8.5q-15 -5 -31.5 7t-24.5 26z" />
    <glyph glyph-name="uni1EC5" unicode="&#x1ec5;" horiz-adv-x="272" 
d="M355 526q11 0 3 -21q-15 -31 -48 -38q-23 -5 -66.5 13.5t-50.5 18.5q-13 1 -39 -12q0 -1 -1 -1t-1 1q-3 2 -2 6q4 9 10.5 18.5t22 18t33.5 4.5q21 -5 52.5 -17t42.5 -12t22 5t17 10zM262 397q2 -8 -12.5 -17t-20.5 -1q-15 26 -29 42q-27 -22 -44 -42q-8 -9 -19.5 0.5
t-5.5 17.5q10 17 40 43q20 20 34 20h12q14 0 25 -20q18 -27 20 -43zM303 191q7 7 12 1t-1 -12q-51 -47 -86.5 -77.5t-93.5 -65.5t-98 -37q-28 -1 -56.5 21.5t-28.5 43.5q0 40 35 105q28 52 89 110t108 53q17 -3 30 -14q46 -50 -2 -115q-21 -28 -52.5 -49t-54.5 -23
q-24 -3 -40 20q-6 9 -11 23q-14 -21 -15 -23q-54 -90 -22 -108q6 -6 36.5 -2t57.5 18q33 17 61 35t43 28.5t45 33.5t44 34zM194 298q-24 0 -62.5 -35.5t-71.5 -78.5q3 -2 3 -5q1 -2 6 -3t15.5 0t22.5 5.5t30 16t36 28.5q21 19 28 36.5t3.5 26.5t-10.5 9z" />
    <glyph glyph-name="uni1EC6" unicode="&#x1ec6;" horiz-adv-x="1531" 
d="M1425 1005q2 -8 -12.5 -17t-20.5 -1q-15 26 -29 42q-27 -22 -44 -42q-8 -9 -19.5 0.5t-5.5 17.5q10 17 40 43q20 20 34 20h12q14 0 25 -20q18 -27 20 -43zM1380 497q-9 13 -1 16q70 54 102 109.5t25 99.5t-37 78.5t-83 50.5t-115 11q-158 -13 -416 -132
q-204 -94 -300 -186t6 -161q70 -47 263 -93q32 5 47 0q28 -6 28 -51q0 -12 -4 -16t-8.5 -2.5t-7.5 6.5q-68 9 -178 -19t-221.5 -79.5t-211 -111t-158.5 -121t-51 -102.5q7 -33 63 -53t136 -20q351 0 1031 356l9 4.5t7.5 3.5t7.5 4q148 77 195 109q9 6 11 12t3 7q3 2 10 -4
t11 -16q14 -30 -51 -70q-192 -114 -307 -173q-431 -220 -767 -278q-54 -9 -104.5 -12.5t-112.5 -0.5t-110 26t-70 65q-18 34 -19 74q2 70 87.5 146.5t206 135t235 100t191.5 56.5q-2 1 -42.5 9t-88.5 24t-82 39q-20 14 -31.5 38.5t-14 41t-3.5 43.5q-4 87 51 140
q72 70 207.5 139t235 105t156.5 50q135 33 243.5 21t154.5 -67q68 -81 29 -183l-3 -9q3 4 66.5 85.5t101.5 128.5q6 21 30 13q22 -8 24 -28q0 -7 -3 -14q-24 -35 -77.5 -104.5t-97 -124t-43.5 -55.5q-4 -5 -17.5 -21.5t-20.5 -25t-18.5 -20.5t-22 -18.5t-20.5 -8.5
q-15 -5 -31.5 7t-24.5 26zM191 -411q1 -6 -6 -6q-2 1 -24 -19q-10 -10 -26.5 3t-9.5 23q2 4 4 5q16 22 31 24q11 1 20.5 -10.5t10.5 -19.5z" />
    <glyph glyph-name="uni1EC7" unicode="&#x1ec7;" horiz-adv-x="272" 
d="M262 397q2 -8 -12.5 -17t-20.5 -1q-15 26 -29 42q-27 -22 -44 -42q-8 -9 -19.5 0.5t-5.5 17.5q10 17 40 43q20 20 34 20h12q14 0 25 -20q18 -27 20 -43zM303 191q7 7 12 1t-1 -12q-51 -47 -86.5 -77.5t-93.5 -65.5t-98 -37q-28 -1 -56.5 21.5t-28.5 43.5q0 40 35 105
q28 52 89 110t108 53q17 -3 30 -14q46 -50 -2 -115q-21 -28 -52.5 -49t-54.5 -23q-24 -3 -40 20q-6 9 -11 23q-14 -21 -15 -23q-54 -90 -22 -108q6 -6 36.5 -2t57.5 18q33 17 61 35t43 28.5t45 33.5t44 34zM194 298q-24 0 -62.5 -35.5t-71.5 -78.5q3 -2 3 -5q1 -2 6 -3
t15.5 0t22.5 5.5t30 16t36 28.5q21 19 28 36.5t3.5 26.5t-10.5 9zM39 -69q1 -6 -6 -6q-2 1 -24 -19q-10 -10 -26.5 3t-9.5 23q2 4 4 5q16 22 31 24q11 1 20.5 -10.5t10.5 -19.5z" />
    <glyph glyph-name="uni1EC8" unicode="&#x1ec8;" horiz-adv-x="1935" 
d="M2293 1052q-14 -30 -47 -42q-13 -5 -18 -14q-2 -8 -12 -8q-11 0 -6 16q7 20 32 31q11 5 23 26q6 12 3 21.5t-9 14.5t-9 4q-7 -2 -11 -13t-5 -20v-10l-2 -3q-20 -8 -23 12q-1 15 11 31q7 10 26 17t28 3q18 -7 23 -25.5t-4 -40.5zM2018 923q44 -5 75 -29.5t42 -55.5
t15.5 -63.5t-4.5 -55.5q-9 -35 -41.5 -95.5t-80.5 -132.5t-86.5 -127t-84.5 -119t-50 -69q-50 -70 -129.5 -179t-133.5 -184.5t-83 -120.5q-31 -53 -48 -65q-5 -4 -23 1t-20 5q-9 4 -2 26q4 13 12 37t10.5 32.5t6.5 27t0 20.5q-9 20 14 22q23 0 35 -5q8 11 107 144
t215 293.5t197 281.5q77 117 113.5 186t32.5 102q-22 117 -369 71t-746.5 -152.5t-655.5 -206.5q-53 -20 -102 -46.5t-75.5 -48.5t-19.5 -31q-3 -11 -11 -14t-22 10q-57 71 18 109q128 66 312.5 132.5t348.5 113.5q516 153 1046 190q91 8 187 -4z" />
    <glyph glyph-name="uni1EC9" unicode="&#x1ec9;" horiz-adv-x="170" 
d="M243 447q-14 -30 -47 -42q-13 -5 -18 -14q-2 -8 -12 -8q-11 0 -6 16q7 20 32 31q11 5 23 26q6 12 3 21.5t-9 14.5t-9 4q-7 -2 -11 -13t-5 -21v-9l-2 -3q-20 -8 -23 12q-1 15 11 31q7 10 26 17t28 3q18 -7 23 -25.5t-4 -40.5zM185 192q5 4 9.5 2.5t5 -5.5t-2.5 -8l-87 -87
l-64 -61q-34 -32 -46 -32q-27 0 -44.5 22.5t-13.5 44.5q12 59 99 189q26 38 46 58q21 21 37 21q13 -1 26 -13.5t13 -19.5q0 -5 -3.5 -5.5t-4.5 1.5q-3 2 -15.5 -10t-31.5 -36t-37 -51q-20 -31 -58 -97q-11 -19 -13.5 -35.5t2.5 -18.5q8 -4 26 9q15 10 36 27q91 75 121 105z
" />
    <glyph glyph-name="uni1ECA" unicode="&#x1eca;" horiz-adv-x="1935" 
d="M2018 923q44 -5 75 -29.5t42 -55.5t15.5 -63.5t-4.5 -55.5q-9 -35 -41.5 -95.5t-80.5 -132.5t-86.5 -127t-84.5 -119t-50 -69q-50 -70 -129.5 -179t-133.5 -184.5t-83 -120.5q-31 -53 -48 -65q-5 -4 -23 1t-20 5q-9 4 -2 26q4 13 12 37t10.5 32.5t6.5 27t0 20.5
q-9 20 14 22q23 0 35 -5q8 11 107 144t215 293.5t197 281.5q77 117 113.5 186t32.5 102q-22 117 -369 71t-746.5 -152.5t-655.5 -206.5q-53 -20 -102 -46.5t-75.5 -48.5t-19.5 -31q-3 -11 -11 -14t-22 10q-57 71 18 109q128 66 312.5 132.5t348.5 113.5q516 153 1046 190
q91 8 187 -4zM1354 -452q1 -6 -6 -6q-2 1 -24 -19q-10 -10 -26.5 3t-9.5 23q2 4 4 5q16 22 31 24q11 1 20.5 -10.5t10.5 -19.5z" />
    <glyph glyph-name="uni1ECB" unicode="&#x1ecb;" horiz-adv-x="170" 
d="M245 471q13 -1 24.5 -16t11.5 -22q0 -4 -3 -5.5t-5 -0.5t-12.5 -5.5t-27.5 -20t-32 -29.5q-9 -9 -25.5 4t-10.5 22q15 29 42 52q25 22 38 21zM185 192q5 4 9.5 2.5t5 -5.5t-2.5 -8l-87 -87l-64 -61q-34 -32 -46 -32q-27 0 -44.5 22.5t-13.5 44.5q12 59 99 189
q26 38 46 58q21 21 37 21q13 -1 26 -13.5t13 -19.5q0 -5 -3.5 -5.5t-4.5 1.5q-3 2 -15.5 -10t-31.5 -36t-37 -51q-20 -31 -58 -97q-11 -19 -13.5 -35.5t2.5 -18.5q8 -4 26 9q15 10 36 27q91 75 121 105zM-24 -69q1 -6 -6 -6q-2 1 -24 -19q-10 -10 -26.5 3t-9.5 23q2 4 4 5
q16 22 31 24q11 1 20.5 -10.5t10.5 -19.5z" />
    <glyph glyph-name="uni1ECC" unicode="&#x1ecc;" horiz-adv-x="1861" 
d="M1876 712q74 -136 -16 -312.5t-303 -333.5q-219 -163 -545 -282.5t-560 -118.5q-143 1 -252 53.5t-143 144.5q-16 40 -20 85.5t12.5 112t58.5 133.5q99 154 296 298t415 249q8 3 38 16.5t44 19t37.5 14t40.5 11.5t31 3q30 -1 40 -38q4 -13 -3 -16t-13 2q-28 23 -271 -112
q-220 -118 -387 -255q-67 -54 -137 -131q-131 -149 -148 -268t86.5 -184t313.5 -55q147 6 325.5 56.5t325.5 115.5q148 62 276 140t218.5 160t149.5 168t69.5 163t-22.5 146q-45 83 -170 126t-297 47q-196 4 -468 -68.5t-529 -196.5q-50 -24 -93 -53.5t-65 -53t-13 -31.5
q0 -11 -7 -14.5t-23 7.5q-73 65 -6 109q135 87 237 129q302 125 488.5 167.5t406.5 59.5q227 15 373.5 -40.5t208.5 -172.5zM175 -373q1 -6 -6 -6q-2 1 -24 -19q-10 -10 -26.5 3t-9.5 23q2 4 4 5q16 22 31 24q11 1 20.5 -10.5t10.5 -19.5z" />
    <glyph glyph-name="uni1ECD" unicode="&#x1ecd;" horiz-adv-x="298" 
d="M380 272q5 6 10 2t2 -10q-44 -84 -122 -101q-23 -5 -51 -3q4 -20 -11.5 -60.5t-58.5 -74.5q-30 -23 -69.5 -26.5t-71 19t-33.5 66.5t20.5 95t60.5 91q64 69 133 65q58 -3 78 -62q5 -12 3 -23q-3 -13 -17.5 -23t-21.5 -9q-3 0 -4 2t-0.5 4t1.5 3q1 2 1 6t-2 12t-6 15
q-37 53 -97.5 5t-88.5 -127q-20 -59 5 -87q25 -22 59 -12t56 39q33 44 29 87q-8 4 -11 9q-10 18 -1 35q5 9 14 5q42 -25 82 -21q61 6 112 79zM54 -69q1 -6 -6 -6q-2 1 -24 -19q-10 -10 -26.5 3t-9.5 23q2 4 4 5q16 22 31 24q11 1 20.5 -10.5t10.5 -19.5z" />
    <glyph glyph-name="uni1ECE" unicode="&#x1ece;" horiz-adv-x="1861" 
d="M1766 1052q-14 -30 -47 -42q-13 -5 -18 -14q-2 -8 -12 -8q-11 0 -6 16q7 20 32 31q11 5 23 26q6 12 3 21.5t-9 14.5t-9 4q-7 -2 -11 -13t-4 -20l-1 -10l-2 -3q-20 -8 -23 12q-1 15 11 31q7 10 26 17t28 3q18 -7 23 -25.5t-4 -40.5zM1876 712q74 -136 -16 -312.5
t-303 -333.5q-219 -163 -545 -282.5t-560 -118.5q-143 1 -252 53.5t-143 144.5q-16 40 -20 85.5t12.5 112t58.5 133.5q99 154 296 298t415 249q8 3 38 16.5t44 19t37.5 14t40.5 11.5t31 3q30 -1 40 -38q4 -13 -3 -16t-13 2q-28 23 -271 -112q-220 -118 -387 -255
q-67 -54 -137 -131q-131 -149 -148 -268t86.5 -184t313.5 -55q147 6 325.5 56.5t325.5 115.5q148 62 276 140t218.5 160t149.5 168t69.5 163t-22.5 146q-45 83 -170 126t-297 47q-196 4 -468 -68.5t-529 -196.5q-50 -24 -93 -53.5t-65 -53t-13 -31.5q0 -11 -7 -14.5t-23 7.5
q-73 65 -6 109q135 87 237 129q302 125 488.5 167.5t406.5 59.5q227 15 373.5 -40.5t208.5 -172.5z" />
    <glyph glyph-name="uni1ECF" unicode="&#x1ecf;" horiz-adv-x="298" 
d="M312 447q-14 -30 -47 -42q-13 -5 -18 -14q-2 -8 -12 -8q-11 0 -6 16q7 20 32 31q11 5 23 26q6 12 3 21.5t-9 14.5t-9 4q-7 -2 -11 -13t-4 -21l-1 -9l-2 -3q-20 -8 -23 12q-1 15 11 31q7 10 26 17t28 3q18 -7 23 -25.5t-4 -40.5zM380 272q5 6 10 2t2 -10
q-44 -84 -122 -101q-23 -5 -51 -3q4 -20 -11.5 -60.5t-58.5 -74.5q-30 -23 -69.5 -26.5t-71 19t-33.5 66.5t20.5 95t60.5 91q64 69 133 65q58 -3 78 -62q5 -12 3 -23q-3 -13 -17.5 -23t-21.5 -9q-3 0 -4 2t-0.5 4t1.5 3q1 2 1 6t-2 12t-6 15q-37 53 -97.5 5t-88.5 -127
q-20 -59 5 -87q25 -22 59 -12t56 39q33 44 29 87q-8 4 -11 9q-10 18 -1 35q5 9 14 5q42 -25 82 -21q61 6 112 79z" />
    <glyph glyph-name="uni1ED0" unicode="&#x1ed0;" horiz-adv-x="1861" 
d="M1811 1132q12 1 24 -10.5t12 -17.5q1 -6 -6 -6q-2 1 -11.5 -7t-24 -22t-25.5 -28q-7 -9 -20 1t-9 19q7 19 30 48q17 23 30 23zM1736 1005q2 -8 -12.5 -17t-20.5 -1q-15 26 -29 42q-27 -22 -44 -42q-8 -9 -19.5 0.5t-5.5 17.5q10 17 40 43q20 20 34 20h12q14 0 25 -20
q18 -27 20 -43zM1876 712q74 -136 -16 -312.5t-303 -333.5q-219 -163 -545 -282.5t-560 -118.5q-143 1 -252 53.5t-143 144.5q-16 40 -20 85.5t12.5 112t58.5 133.5q99 154 296 298t415 249q8 3 38 16.5t44 19t37.5 14t40.5 11.5t31 3q30 -1 40 -38q4 -13 -3 -16t-13 2
q-28 23 -271 -112q-220 -118 -387 -255q-67 -54 -137 -131q-131 -149 -148 -268t86.5 -184t313.5 -55q147 6 325.5 56.5t325.5 115.5q148 62 276 140t218.5 160t149.5 168t69.5 163t-22.5 146q-45 83 -170 126t-297 47q-196 4 -468 -68.5t-529 -196.5q-50 -24 -93 -53.5
t-65 -53t-13 -31.5q0 -11 -7 -14.5t-23 7.5q-73 65 -6 109q135 87 237 129q302 125 488.5 167.5t406.5 59.5q227 15 373.5 -40.5t208.5 -172.5z" />
    <glyph glyph-name="uni1ED1" unicode="&#x1ed1;" horiz-adv-x="298" 
d="M357 527q12 1 24 -10.5t12 -17.5q1 -6 -6 -6q-2 1 -11.5 -7t-24 -22t-25.5 -28q-7 -9 -20 1t-9 19q7 19 30 48q17 23 30 23zM282 400q2 -8 -12.5 -17t-20.5 -1q-15 26 -29 42q-27 -22 -44 -42q-8 -9 -19.5 0.5t-5.5 17.5q10 17 40 43q20 20 34 20h12q14 0 25 -20
q18 -27 20 -43zM380 272q5 6 10 2t2 -10q-44 -84 -122 -101q-23 -5 -51 -3q4 -20 -11.5 -60.5t-58.5 -74.5q-30 -23 -69.5 -26.5t-71 19t-33.5 66.5t20.5 95t60.5 91q64 69 133 65q58 -3 78 -62q5 -12 3 -23q-3 -13 -17.5 -23t-21.5 -9q-3 0 -4 2t-0.5 4t1.5 3q1 2 1 6
t-2 12t-6 15q-37 53 -97.5 5t-88.5 -127q-20 -59 5 -87q25 -22 59 -12t56 39q33 44 29 87q-8 4 -11 9q-10 18 -1 35q5 9 14 5q42 -25 82 -21q61 6 112 79z" />
    <glyph glyph-name="uni1ED2" unicode="&#x1ed2;" horiz-adv-x="1861" 
d="M1721 1144q14 0 32 -22q24 -28 33 -47q4 -9 -10 -18.5t-22 -0.5q-11 13 -26.5 27t-26 21.5t-12.5 6.5q-8 0 -7 6q0 6 13 17t26 10zM1736 1005q2 -8 -12.5 -17t-20.5 -1q-15 26 -29 42q-27 -22 -44 -42q-8 -9 -19.5 0.5t-5.5 17.5q10 17 40 43q20 20 34 20h12q14 0 25 -20
q18 -27 20 -43zM1876 712q74 -136 -16 -312.5t-303 -333.5q-219 -163 -545 -282.5t-560 -118.5q-143 1 -252 53.5t-143 144.5q-16 40 -20 85.5t12.5 112t58.5 133.5q99 154 296 298t415 249q8 3 38 16.5t44 19t37.5 14t40.5 11.5t31 3q30 -1 40 -38q4 -13 -3 -16t-13 2
q-28 23 -271 -112q-220 -118 -387 -255q-67 -54 -137 -131q-131 -149 -148 -268t86.5 -184t313.5 -55q147 6 325.5 56.5t325.5 115.5q148 62 276 140t218.5 160t149.5 168t69.5 163t-22.5 146q-45 83 -170 126t-297 47q-196 4 -468 -68.5t-529 -196.5q-50 -24 -93 -53.5
t-65 -53t-13 -31.5q0 -11 -7 -14.5t-23 7.5q-73 65 -6 109q135 87 237 129q302 125 488.5 167.5t406.5 59.5q227 15 373.5 -40.5t208.5 -172.5z" />
    <glyph glyph-name="uni1ED3" unicode="&#x1ed3;" horiz-adv-x="298" 
d="M267 539q14 0 32 -22q24 -28 33 -47q4 -9 -10 -18.5t-22 -0.5q-11 13 -26.5 27t-26 21.5t-12.5 6.5q-8 0 -7 6q0 6 13 17t26 10zM282 400q2 -8 -12.5 -17t-20.5 -1q-15 26 -29 42q-27 -22 -44 -42q-8 -9 -19.5 0.5t-5.5 17.5q10 17 40 43q20 20 34 20h12q14 0 25 -20
q18 -27 20 -43zM380 272q5 6 10 2t2 -10q-44 -84 -122 -101q-23 -5 -51 -3q4 -20 -11.5 -60.5t-58.5 -74.5q-30 -23 -69.5 -26.5t-71 19t-33.5 66.5t20.5 95t60.5 91q64 69 133 65q58 -3 78 -62q5 -12 3 -23q-3 -13 -17.5 -23t-21.5 -9q-3 0 -4 2t-0.5 4t1.5 3q1 2 1 6
t-2 12t-6 15q-37 53 -97.5 5t-88.5 -127q-20 -59 5 -87q25 -22 59 -12t56 39q33 44 29 87q-8 4 -11 9q-10 18 -1 35q5 9 14 5q42 -25 82 -21q61 6 112 79z" />
    <glyph glyph-name="uni1ED4" unicode="&#x1ed4;" horiz-adv-x="1861" 
d="M1839 1092q-14 -30 -47 -42q-13 -5 -18 -14q-2 -8 -12 -8q-11 0 -6 16q7 20 32 31q11 5 23 26q6 12 3 21.5t-9 14.5t-9 4q-7 -2 -11 -13t-5 -20v-10l-2 -3q-20 -8 -23 12q-1 15 11 31q7 10 26 17t28 3q18 -7 23 -25.5t-4 -40.5zM1736 1005q2 -8 -12.5 -17t-20.5 -1
q-15 26 -29 42q-27 -22 -44 -42q-8 -9 -19.5 0.5t-5.5 17.5q10 17 40 43q20 20 34 20h12q14 0 25 -20q18 -27 20 -43zM1876 712q74 -136 -16 -312.5t-303 -333.5q-219 -163 -545 -282.5t-560 -118.5q-143 1 -252 53.5t-143 144.5q-16 40 -20 85.5t12.5 112t58.5 133.5
q99 154 296 298t415 249q8 3 38 16.5t44 19t37.5 14t40.5 11.5t31 3q30 -1 40 -38q4 -13 -3 -16t-13 2q-28 23 -271 -112q-220 -118 -387 -255q-67 -54 -137 -131q-131 -149 -148 -268t86.5 -184t313.5 -55q147 6 325.5 56.5t325.5 115.5q148 62 276 140t218.5 160
t149.5 168t69.5 163t-22.5 146q-45 83 -170 126t-297 47q-196 4 -468 -68.5t-529 -196.5q-50 -24 -93 -53.5t-65 -53t-13 -31.5q0 -11 -7 -14.5t-23 7.5q-73 65 -6 109q135 87 237 129q302 125 488.5 167.5t406.5 59.5q227 15 373.5 -40.5t208.5 -172.5z" />
    <glyph glyph-name="uni1ED5" unicode="&#x1ed5;" horiz-adv-x="298" 
d="M385 487q-14 -30 -47 -42q-13 -5 -18 -14q-2 -8 -12 -8q-11 0 -6 16q8 20 32 31q11 5 23 26q6 12 3 21.5t-9 14.5t-9 4q-7 -2 -11 -13t-5 -21v-9l-2 -3q-20 -8 -23 12q-1 15 11 31q7 10 26 17t28 3q18 -7 23 -25.5t-4 -40.5zM282 400q2 -8 -12.5 -17t-20.5 -1
q-15 26 -29 42q-27 -22 -44 -42q-8 -9 -19.5 0.5t-5.5 17.5q10 17 40 43q20 20 34 20h12q14 0 25 -20q18 -27 20 -43zM380 272q5 6 10 2t2 -10q-44 -84 -122 -101q-23 -5 -51 -3q4 -20 -11.5 -60.5t-58.5 -74.5q-30 -23 -69.5 -26.5t-71 19t-33.5 66.5t20.5 95t60.5 91
q64 69 133 65q58 -3 78 -62q5 -12 3 -23q-3 -13 -17.5 -23t-21.5 -9q-3 0 -4 2t-0.5 4t1.5 3q1 2 1 6t-2 12t-6 15q-37 53 -97.5 5t-88.5 -127q-20 -59 5 -87q25 -22 59 -12t56 39q33 44 29 87q-8 4 -11 9q-10 18 -1 35q5 9 14 5q42 -25 82 -21q61 6 112 79z" />
    <glyph glyph-name="uni1ED6" unicode="&#x1ed6;" horiz-adv-x="1861" 
d="M1829 1134q11 0 3 -21q-15 -31 -48 -38q-23 -5 -66.5 13.5t-50.5 18.5q-14 1 -39 -12q0 -1 -1 -1t-1 1q-3 2 -2 6q4 9 10.5 18.5t22 18t33.5 4.5q21 -5 52.5 -17t42.5 -12t22 5t17 10zM1736 1005q2 -8 -12.5 -17t-20.5 -1q-15 26 -29 42q-27 -22 -44 -42q-8 -9 -19.5 0.5
t-5.5 17.5q10 17 40 43q20 20 34 20h12q14 0 25 -20q18 -27 20 -43zM1876 712q74 -136 -16 -312.5t-303 -333.5q-219 -163 -545 -282.5t-560 -118.5q-143 1 -252 53.5t-143 144.5q-16 40 -20 85.5t12.5 112t58.5 133.5q99 154 296 298t415 249q8 3 38 16.5t44 19t37.5 14
t40.5 11.5t31 3q30 -1 40 -38q4 -13 -3 -16t-13 2q-28 23 -271 -112q-220 -118 -387 -255q-67 -54 -137 -131q-131 -149 -148 -268t86.5 -184t313.5 -55q147 6 325.5 56.5t325.5 115.5q148 62 276 140t218.5 160t149.5 168t69.5 163t-22.5 146q-45 83 -170 126t-297 47
q-196 4 -468 -68.5t-529 -196.5q-50 -24 -93 -53.5t-65 -53t-13 -31.5q0 -11 -7 -14.5t-23 7.5q-73 65 -6 109q135 87 237 129q302 125 488.5 167.5t406.5 59.5q227 15 373.5 -40.5t208.5 -172.5z" />
    <glyph glyph-name="uni1ED7" unicode="&#x1ed7;" horiz-adv-x="298" 
d="M375 529q11 0 3 -21q-15 -31 -48 -38q-23 -5 -66.5 13.5t-50.5 18.5q-13 1 -39 -12q0 -1 -1 -1t-1 1q-3 2 -2 6q4 9 10.5 18.5t22 18t33.5 4.5q21 -5 52.5 -17t42.5 -12t22 5t17 11zM282 400q2 -8 -12.5 -17t-20.5 -1q-15 26 -29 42q-27 -22 -44 -42q-8 -9 -19.5 0.5
t-5.5 17.5q10 17 40 43q20 20 34 20h12q14 0 25 -20q18 -27 20 -43zM380 272q5 6 10 2t2 -10q-44 -84 -122 -101q-23 -5 -51 -3q4 -20 -11.5 -60.5t-58.5 -74.5q-30 -23 -69.5 -26.5t-71 19t-33.5 66.5t20.5 95t60.5 91q64 69 133 65q58 -3 78 -62q5 -12 3 -23
q-3 -13 -17.5 -23t-21.5 -9q-3 0 -4 2t-0.5 4t1.5 3q1 2 1 6t-2 12t-6 15q-37 53 -97.5 5t-88.5 -127q-20 -59 5 -87q25 -22 59 -12t56 39q33 44 29 87q-8 4 -11 9q-10 18 -1 35q5 9 14 5q42 -25 82 -21q61 6 112 79z" />
    <glyph glyph-name="uni1ED8" unicode="&#x1ed8;" horiz-adv-x="1861" 
d="M1736 1005q2 -8 -12.5 -17t-20.5 -1q-15 26 -29 42q-27 -22 -44 -42q-8 -9 -19.5 0.5t-5.5 17.5q10 17 40 43q20 20 34 20h12q14 0 25 -20q18 -27 20 -43zM1876 712q74 -136 -16 -312.5t-303 -333.5q-219 -163 -545 -282.5t-560 -118.5q-143 1 -252 53.5t-143 144.5
q-16 40 -20 85.5t12.5 112t58.5 133.5q99 154 296 298t415 249q8 3 38 16.5t44 19t37.5 14t40.5 11.5t31 3q30 -1 40 -38q4 -13 -3 -16t-13 2q-28 23 -271 -112q-220 -118 -387 -255q-67 -54 -137 -131q-131 -149 -148 -268t86.5 -184t313.5 -55q147 6 325.5 56.5
t325.5 115.5q148 62 276 140t218.5 160t149.5 168t69.5 163t-22.5 146q-45 83 -170 126t-297 47q-196 4 -468 -68.5t-529 -196.5q-50 -24 -93 -53.5t-65 -53t-13 -31.5q0 -11 -7 -14.5t-23 7.5q-73 65 -6 109q135 87 237 129q302 125 488.5 167.5t406.5 59.5
q227 15 373.5 -40.5t208.5 -172.5zM175 -373q1 -6 -6 -6q-2 1 -24 -19q-10 -10 -26.5 3t-9.5 23q2 4 4 5q16 22 31 24q11 1 20.5 -10.5t10.5 -19.5z" />
    <glyph glyph-name="uni1ED9" unicode="&#x1ed9;" horiz-adv-x="298" 
d="M282 400q2 -8 -12.5 -17t-20.5 -1q-15 26 -29 42q-27 -22 -44 -42q-8 -9 -19.5 0.5t-5.5 17.5q10 17 40 43q20 20 34 20h12q14 0 25 -20q18 -27 20 -43zM380 272q5 6 10 2t2 -10q-44 -84 -122 -101q-23 -5 -51 -3q4 -20 -11.5 -60.5t-58.5 -74.5q-30 -23 -69.5 -26.5
t-71 19t-33.5 66.5t20.5 95t60.5 91q64 69 133 65q58 -3 78 -62q5 -12 3 -23q-3 -13 -17.5 -23t-21.5 -9q-3 0 -4 2t-0.5 4t1.5 3q1 2 1 6t-2 12t-6 15q-37 53 -97.5 5t-88.5 -127q-20 -59 5 -87q25 -22 59 -12t56 39q33 44 29 87q-8 4 -11 9q-10 18 -1 35q5 9 14 5
q42 -25 82 -21q61 6 112 79zM54 -69q1 -6 -6 -6q-2 1 -24 -19q-10 -10 -26.5 3t-9.5 23q2 4 4 5q16 22 31 24q11 1 20.5 -10.5t10.5 -19.5z" />
    <glyph glyph-name="uni1EDA" unicode="&#x1eda;" horiz-adv-x="1861" 
d="M1651 1000q-7 -9 -20 1t-9 19q7 19 30 48q17 23 30 23q12 1 24 -10.5t12 -17.5q1 -6 -6 -6q-2 1 -11.5 -7t-24 -22t-25.5 -28zM1923 808q-12 -46 -62 -71q10 -16 15 -25q74 -136 -16 -312.5t-303 -333.5q-219 -163 -545 -282.5t-560 -118.5q-143 1 -252 53.5t-143 144.5
q-16 40 -20 85.5t12.5 112t58.5 133.5q99 154 296 298t415 249q8 3 38 16.5t44 19t37.5 14t40.5 11.5t31 3q30 -1 40 -38q4 -13 -3 -16t-13 2q-28 23 -271 -112q-220 -118 -387 -255q-67 -54 -137 -131q-131 -149 -148 -268t86.5 -184t313.5 -55q147 6 325.5 56.5
t325.5 115.5q148 62 276 140t218.5 160t149.5 168t69.5 163t-22.5 146q-45 83 -170 126t-297 47q-196 4 -468 -68.5t-529 -196.5q-50 -24 -93 -53.5t-65 -53t-13 -31.5q0 -11 -7 -14.5t-23 7.5q-73 65 -6 109q135 87 237 129q302 125 488.5 167.5t406.5 59.5
q398 26 548 -161q28 -11 36 17q7 29 0 39q-2 2 -6 1q-3 -2 -5 0t1 6q5 7 23 15t31 5q11 -3 1 -39z" />
    <glyph glyph-name="uni1EDB" unicode="&#x1edb;" horiz-adv-x="298" 
d="M197 395q-7 -9 -20 1t-9 19q7 19 30 48q17 23 30 23q12 1 24 -10.5t12 -17.5q1 -6 -6 -6q-2 1 -11.5 -7t-24 -22t-25.5 -28zM380 272q5 6 10 2t2 -10q-44 -84 -122 -101q-23 -5 -51 -3q4 -20 -11.5 -60.5t-58.5 -74.5q-30 -23 -69.5 -26.5t-71 19t-33.5 66.5t20.5 95
t60.5 91q64 69 133 65q54 -2 75 -54q22 -3 29 19q7 29 0 39q-2 2 -6 1q-3 -2 -5 0t1 6q5 7 23 15t31 5q11 -3 1 -39q-12 -49 -67 -73h-1v-4q-3 -13 -17.5 -23t-21.5 -9q-3 0 -4 2t-0.5 4t1.5 3q1 2 1 6t-2 12t-6 15q-37 53 -97.5 5t-88.5 -127q-20 -59 5 -87q25 -22 59 -12
t56 39q33 44 29 87q-8 4 -11 9q-10 18 -1 35q5 9 14 5q42 -25 82 -21q61 6 112 79z" />
    <glyph glyph-name="uni1EDC" unicode="&#x1edc;" horiz-adv-x="1861" 
d="M1625 1033q-8 0 -7 6q0 6 13 17t26 10q14 0 32 -22q24 -28 33 -47q4 -9 -10 -18.5t-22 -0.5q-11 13 -26.5 27t-26 21.5t-12.5 6.5zM1923 808q-12 -46 -62 -71q10 -16 15 -25q74 -136 -16 -312.5t-303 -333.5q-219 -163 -545 -282.5t-560 -118.5q-143 1 -252 53.5
t-143 144.5q-16 40 -20 85.5t12.5 112t58.5 133.5q99 154 296 298t415 249q8 3 38 16.5t44 19t37.5 14t40.5 11.5t31 3q30 -1 40 -38q4 -13 -3 -16t-13 2q-28 23 -271 -112q-220 -118 -387 -255q-67 -54 -137 -131q-131 -149 -148 -268t86.5 -184t313.5 -55
q147 6 325.5 56.5t325.5 115.5q148 62 276 140t218.5 160t149.5 168t69.5 163t-22.5 146q-45 83 -170 126t-297 47q-196 4 -468 -68.5t-529 -196.5q-50 -24 -93 -53.5t-65 -53t-13 -31.5q0 -11 -7 -14.5t-23 7.5q-73 65 -6 109q135 87 237 129q302 125 488.5 167.5
t406.5 59.5q398 26 548 -161q28 -11 36 17q7 29 0 39q-2 2 -6 1q-3 -2 -5 0t1 6q5 7 23 15t31 5q11 -3 1 -39z" />
    <glyph glyph-name="uni1EDD" unicode="&#x1edd;" horiz-adv-x="298" 
d="M171 428q-8 0 -7 6q0 6 13 17t26 10q14 0 32 -22q24 -28 33 -47q4 -9 -10 -18.5t-22 -0.5q-11 13 -26.5 27t-26 21.5t-12.5 6.5zM380 272q5 6 10 2t2 -10q-44 -84 -122 -101q-23 -5 -51 -3q4 -20 -11.5 -60.5t-58.5 -74.5q-30 -23 -69.5 -26.5t-71 19t-33.5 66.5t20.5 95
t60.5 91q64 69 133 65q54 -2 75 -54q22 -3 29 19q7 29 0 39q-2 2 -6 1q-3 -2 -5 0t1 6q5 7 23 15t31 5q11 -3 1 -39q-12 -49 -67 -73h-1v-4q-3 -13 -17.5 -23t-21.5 -9q-3 0 -4 2t-0.5 4t1.5 3q1 2 1 6t-2 12t-6 15q-37 53 -97.5 5t-88.5 -127q-20 -59 5 -87q25 -22 59 -12
t56 39q33 44 29 87q-8 4 -11 9q-10 18 -1 35q5 9 14 5q42 -25 82 -21q61 6 112 79z" />
    <glyph glyph-name="uni1EDE" unicode="&#x1ede;" horiz-adv-x="1861" 
d="M1705 1055q-20 -8 -23 12q-1 15 11 31q7 10 26 17t28 3q18 -7 23 -25.5t-4 -40.5q-14 -30 -47 -42q-13 -5 -18 -14q-2 -8 -12 -8q-11 0 -6 16q7 20 32 31q11 5 23 26q6 12 3 21.5t-9 14.5t-9 4q-7 -2 -11 -13t-4 -20l-1 -10zM1923 808q-12 -46 -62 -71q10 -16 15 -25
q74 -136 -16 -312.5t-303 -333.5q-219 -163 -545 -282.5t-560 -118.5q-143 1 -252 53.5t-143 144.5q-16 40 -20 85.5t12.5 112t58.5 133.5q99 154 296 298t415 249q8 3 38 16.5t44 19t37.5 14t40.5 11.5t31 3q30 -1 40 -38q4 -13 -3 -16t-13 2q-28 23 -271 -112
q-220 -118 -387 -255q-67 -54 -137 -131q-131 -149 -148 -268t86.5 -184t313.5 -55q147 6 325.5 56.5t325.5 115.5q148 62 276 140t218.5 160t149.5 168t69.5 163t-22.5 146q-45 83 -170 126t-297 47q-196 4 -468 -68.5t-529 -196.5q-50 -24 -93 -53.5t-65 -53t-13 -31.5
q0 -11 -7 -14.5t-23 7.5q-73 65 -6 109q135 87 237 129q302 125 488.5 167.5t406.5 59.5q398 26 548 -161q28 -11 36 17q7 29 0 39q-2 2 -6 1q-3 -2 -5 0t1 6q5 7 23 15t31 5q11 -3 1 -39z" />
    <glyph glyph-name="uni1EDF" unicode="&#x1edf;" horiz-adv-x="298" 
d="M251 450q-20 -8 -23 12q-1 15 11 31q7 10 26 17t28 3q18 -7 23 -25.5t-4 -40.5q-14 -30 -47 -42q-13 -5 -18 -14q-2 -8 -12 -8q-11 0 -6 16q7 20 32 31q11 5 23 26q6 12 3 21.5t-9 14.5t-9 4q-7 -2 -11 -13t-4 -21l-1 -9zM380 272q5 6 10 2t2 -10q-44 -84 -122 -101
q-23 -5 -51 -3q4 -20 -11.5 -60.5t-58.5 -74.5q-30 -23 -69.5 -26.5t-71 19t-33.5 66.5t20.5 95t60.5 91q64 69 133 65q54 -2 75 -54q22 -3 29 19q7 29 0 39q-2 2 -6 1q-3 -2 -5 0t1 6q5 7 23 15t31 5q11 -3 1 -39q-12 -49 -67 -73h-1v-4q-3 -13 -17.5 -23t-21.5 -9
q-3 0 -4 2t-0.5 4t1.5 3q1 2 1 6t-2 12t-6 15q-37 53 -97.5 5t-88.5 -127q-20 -59 5 -87q25 -22 59 -12t56 39q33 44 29 87q-8 4 -11 9q-10 18 -1 35q5 9 14 5q42 -25 82 -21q61 6 112 79z" />
    <glyph glyph-name="uni1EE0" unicode="&#x1ee0;" horiz-adv-x="1861" 
d="M1567 995q-3 2 -2 6q4 9 10.5 18.5t22 18t33.5 4.5q21 -5 52.5 -17t42.5 -12t22 5t16 10l6 6q11 0 3 -21q-15 -31 -48 -38q-23 -5 -66.5 13.5t-50.5 18.5q-14 1 -39 -12q0 -1 -1 -1t-1 1zM1923 808q-12 -46 -62 -71q10 -16 15 -25q74 -136 -16 -312.5t-303 -333.5
q-219 -163 -545 -282.5t-560 -118.5q-143 1 -252 53.5t-143 144.5q-16 40 -20 85.5t12.5 112t58.5 133.5q99 154 296 298t415 249q8 3 38 16.5t44 19t37.5 14t40.5 11.5t31 3q30 -1 40 -38q4 -13 -3 -16t-13 2q-28 23 -271 -112q-220 -118 -387 -255q-67 -54 -137 -131
q-131 -149 -148 -268t86.5 -184t313.5 -55q147 6 325.5 56.5t325.5 115.5q148 62 276 140t218.5 160t149.5 168t69.5 163t-22.5 146q-45 83 -170 126t-297 47q-196 4 -468 -68.5t-529 -196.5q-50 -24 -93 -53.5t-65 -53t-13 -31.5q0 -11 -7 -14.5t-23 7.5q-73 65 -6 109
q135 87 237 129q302 125 488.5 167.5t406.5 59.5q398 26 548 -161q28 -11 36 17q7 29 0 39q-2 2 -6 1q-3 -2 -5 0t1 6q5 7 23 15t31 5q11 -3 1 -39z" />
    <glyph glyph-name="uni1EE1" unicode="&#x1ee1;" horiz-adv-x="298" 
d="M113 390q-3 2 -2 6q4 9 10.5 18.5t22 18t33.5 4.5q21 -5 52.5 -17t42.5 -12t22 5t16 11l6 5q11 0 3 -21q-15 -31 -48 -38q-23 -5 -66.5 13.5t-50.5 18.5q-14 1 -39 -12q0 -1 -1 -1t-1 1zM380 272q5 6 10 2t2 -10q-44 -84 -122 -101q-23 -5 -51 -3q4 -20 -11.5 -60.5
t-58.5 -74.5q-30 -23 -69.5 -26.5t-71 19t-33.5 66.5t20.5 95t60.5 91q64 69 133 65q54 -2 75 -54q22 -3 29 19q7 29 0 39q-2 2 -6 1q-3 -2 -5 0t1 6q5 7 23 15t31 5q11 -3 1 -39q-12 -49 -67 -73h-1v-4q-3 -13 -17.5 -23t-21.5 -9q-3 0 -4 2t-0.5 4t1.5 3q1 2 1 6t-2 12
t-6 15q-37 53 -97.5 5t-88.5 -127q-20 -59 5 -87q25 -22 59 -12t56 39q33 44 29 87q-8 4 -11 9q-10 18 -1 35q5 9 14 5q42 -25 82 -21q61 6 112 79z" />
    <glyph glyph-name="uni1EE2" unicode="&#x1ee2;" horiz-adv-x="1861" 
d="M1923 808q-12 -46 -62 -71q10 -16 15 -25q74 -136 -16 -312.5t-303 -333.5q-219 -163 -545 -282.5t-560 -118.5q-143 1 -252 53.5t-143 144.5q-16 40 -20 85.5t12.5 112t58.5 133.5q99 154 296 298t415 249q8 3 38 16.5t44 19t37.5 14t40.5 11.5t31 3q30 -1 40 -38
q4 -13 -3 -16t-13 2q-28 23 -271 -112q-220 -118 -387 -255q-67 -54 -137 -131q-131 -149 -148 -268t86.5 -184t313.5 -55q147 6 325.5 56.5t325.5 115.5q148 62 276 140t218.5 160t149.5 168t69.5 163t-22.5 146q-45 83 -170 126t-297 47q-196 4 -468 -68.5t-529 -196.5
q-50 -24 -93 -53.5t-65 -53t-13 -31.5q0 -11 -7 -14.5t-23 7.5q-73 65 -6 109q135 87 237 129q302 125 488.5 167.5t406.5 59.5q398 26 548 -161q28 -11 36 17q7 29 0 39q-2 2 -6 1q-3 -2 -5 0t1 6q5 7 23 15t31 5q11 -3 1 -39zM144 -343q11 1 20.5 -10.5t10.5 -19.5
q1 -6 -6 -6q-2 1 -24 -19q-10 -10 -26.5 3t-9.5 23q2 4 4 5q16 22 31 24z" />
    <glyph glyph-name="uni1EE3" unicode="&#x1ee3;" horiz-adv-x="298" 
d="M380 272q5 6 10 2t2 -10q-44 -84 -122 -101q-23 -5 -51 -3q4 -20 -11.5 -60.5t-58.5 -74.5q-30 -23 -69.5 -26.5t-71 19t-33.5 66.5t20.5 95t60.5 91q64 69 133 65q54 -2 75 -54q22 -3 29 19q7 29 0 39q-2 2 -6 1q-3 -2 -5 0t1 6q5 7 23 15t31 5q11 -3 1 -39
q-12 -49 -67 -73h-1v-4q-3 -13 -17.5 -23t-21.5 -9q-3 0 -4 2t-0.5 4t1.5 3q1 2 1 6t-2 12t-6 15q-37 53 -97.5 5t-88.5 -127q-20 -59 5 -87q25 -22 59 -12t56 39q33 44 29 87q-8 4 -11 9q-10 18 -1 35q5 9 14 5q42 -25 82 -21q61 6 112 79zM23 -39q11 1 20.5 -10.5
t10.5 -19.5q1 -6 -6 -6q-2 1 -24 -19q-10 -10 -26.5 3t-9.5 23q2 4 4 5q16 22 31 24z" />
    <glyph glyph-name="uni1EE4" unicode="&#x1ee4;" horiz-adv-x="2820" 
d="M3093 865q3 -19 -32 -64q-84 -115 -307.5 -449.5t-299.5 -443.5q22 8 34 -19q4 -12 -1 -16.5t-16 -6.5q-8 -2 -20.5 -10.5t-22.5 -17t-30.5 -26t-31.5 -27.5q-21 -17 -27 -11q-24 20 -20 32q6 21 46 70q51 74 491 737q-140 -135 -315 -296t-265 -237q-466 -398 -656 -364
q-56 11 -66 68q-10 55 20 134.5t92 173.5t122.5 174t139.5 180t113 148q114 149 116 205q3 129 -490 54q-415 -63 -968 -227q-207 -62 -347 -114q-57 -22 -109 -48t-81 -47.5t-23 -30.5q-4 -11 -11.5 -14t-20.5 9q-51 69 30 109q259 125 690 246q531 153 1069 190
q93 8 187 -4q93 -11 127 -72t-10 -135q-38 -67 -335 -453q-131 -170 -206 -301t-51 -171q17 -25 60 -20.5t109 37t146.5 85t172 121t185.5 147t188 162.5q187 167 371.5 347.5t199.5 221.5q5 7 17 6t24.5 -11t11.5 -21zM1935 -385q1 -6 -6 -6q-2 1 -24 -19q-10 -10 -26.5 3
t-9.5 23q2 4 4 5q16 22 31 24q11 1 20.5 -10.5t10.5 -19.5z" />
    <glyph glyph-name="uni1EE5" unicode="&#x1ee5;" horiz-adv-x="345" 
d="M366 190q5 4 9.5 2.5t5 -5.5t-2.5 -8l-87 -87l-64 -61q-34 -32 -46 -32q-27 0 -44.5 22.5t-13.5 44.5q0 1 2 8t4 11q-68 -84 -92 -85q-28 -1 -56.5 21.5t-28.5 43.5q0 39 32 99q50 93 102 149q21 23 36 21q13 0 26 -12t14 -19q0 -9 -8 -5q-13 9 -72.5 -82t-71.5 -124
q-14 -40 7 -48q18 -7 65.5 38.5t96.5 106.5l43 66q26 38 46 58q21 21 37 21q13 -1 26 -13.5t13 -19.5q1 -5 -2.5 -5.5t-5.5 1.5q-3 2 -15.5 -10t-31.5 -36t-37 -51q-20 -31 -58 -97q-11 -19 -13.5 -35.5t2.5 -18.5q8 -4 26 9q15 10 36 27q91 75 121 105zM86 -69q1 -6 -6 -6
q-2 1 -24 -19q-10 -10 -26.5 3t-9.5 23q2 4 4 5q16 22 31 24q11 1 20.5 -10.5t10.5 -19.5z" />
    <glyph glyph-name="uni1EE6" unicode="&#x1ee6;" horiz-adv-x="2820" 
d="M2790 1052q-14 -30 -47 -42q-13 -5 -18 -14q-2 -8 -12 -8q-11 0 -6 16q7 20 32 31q11 5 23 26q6 12 3 21.5t-9 14.5t-9 4q-7 -2 -11 -13t-4 -20l-1 -10l-2 -3q-20 -8 -23 12q-1 15 11 31q7 10 26 17t28 3q18 -7 23 -25.5t-4 -40.5zM3093 865q3 -19 -32 -64
q-84 -115 -307.5 -449.5t-299.5 -443.5q22 8 34 -19q4 -12 -1 -16.5t-16 -6.5q-8 -2 -20.5 -10.5t-22.5 -17t-30.5 -26t-31.5 -27.5q-21 -17 -27 -11q-24 20 -20 32q6 21 46 70q51 74 491 737q-140 -135 -315 -296t-265 -237q-466 -398 -656 -364q-56 11 -66 68
q-10 55 20 134.5t92 173.5t122.5 174t139.5 180t113 148q114 149 116 205q3 129 -490 54q-415 -63 -968 -227q-207 -62 -347 -114q-57 -22 -109 -48t-81 -47.5t-23 -30.5q-4 -11 -11.5 -14t-20.5 9q-51 69 30 109q259 125 690 246q531 153 1069 190q93 8 187 -4
q93 -11 127 -72t-10 -135q-38 -67 -335 -453q-131 -170 -206 -301t-51 -171q17 -25 60 -20.5t109 37t146.5 85t172 121t185.5 147t188 162.5q187 167 371.5 347.5t199.5 221.5q5 7 17 6t24.5 -11t11.5 -21z" />
    <glyph glyph-name="uni1EE7" unicode="&#x1ee7;" horiz-adv-x="345" 
d="M314 447q-14 -30 -47 -42q-13 -5 -18 -14q-2 -8 -12 -8q-11 0 -6 16q7 20 32 31q11 5 23 26q6 12 3 21.5t-9 14.5t-9 4q-7 -2 -11 -13t-4 -21l-1 -9l-2 -3q-20 -8 -23 12q-1 15 11 31q7 10 26 17t28 3q18 -7 23 -25.5t-4 -40.5zM366 190q5 4 9.5 2.5t5 -5.5t-2.5 -8
l-87 -87l-64 -61q-34 -32 -46 -32q-27 0 -44.5 22.5t-13.5 44.5q0 1 2 8t4 11q-68 -84 -92 -85q-28 -1 -56.5 21.5t-28.5 43.5q0 39 32 99q50 93 102 149q21 23 36 21q13 0 26 -12t14 -19q0 -9 -8 -5q-13 9 -72.5 -82t-71.5 -124q-14 -40 7 -48q18 -7 65.5 38.5t96.5 106.5
l43 66q26 38 46 58q21 21 37 21q13 -1 26 -13.5t13 -19.5q1 -5 -2.5 -5.5t-5.5 1.5q-3 2 -15.5 -10t-31.5 -36t-37 -51q-20 -31 -58 -97q-11 -19 -13.5 -35.5t2.5 -18.5q8 -4 26 9q15 10 36 27q91 75 121 105z" />
    </font>
</defs>
</svg>
